<?xml version="1.0" encoding="UTF-8"?><svg id="Layer_1" xmlns="http://www.w3.org/2000/svg" xmlns:xlink="http://www.w3.org/1999/xlink" viewBox="0 0 40 40"><defs><style>.cls-1{fill:none;stroke:url(#_ÂÁ_Ï_ÌÌ_È_ËÂÌÚ_2);stroke-linecap:round;stroke-linejoin:round;stroke-width:.32px;}.cls-2{fill:#231f20;}.cls-3{fill:#fab512;}.cls-4{fill:#e4e5e6;}.cls-5{fill:#fff;}.cls-6{fill:#a4a6a9;}.cls-7{fill:#7fb742;}.cls-8{fill:#359dd7;}.cls-9{fill:#ed5126;}</style><linearGradient id="_ÂÁ_Ï_ÌÌ_È_ËÂÌÚ_2" x1="34.05" y1="14.82" x2="5.94" y2="26.47" gradientUnits="userSpaceOnUse"><stop offset="0" stop-color="#fd00fd"/><stop offset="1" stop-color="#03fdfd"/></linearGradient></defs><rect class="cls-2" width="40" height="40"/><line class="cls-1" x1="3.71" y1="20.65" x2="36.29" y2="20.65"/><path class="cls-9" d="M7.42,23.16h2.56c0,.85,0,1.7,0,2.56h-2.56v-2.56h0Z"/><path class="cls-7" d="M10.23,23.16h2.56c0,.85,0,1.7,0,2.56-.85,0-1.7,0-2.56,0,0-.85,0-1.7,0-2.56h0Z"/><path class="cls-5" d="M30.47,24.13c.24-.15.54-.17.81-.09,0,.16,0,.32,0,.47-.13-.06-.27-.09-.41-.04-.11.04-.17.15-.18.26-.02.14,0,.28-.01.41.27,0,.54,0,.81,0,0-.18,0-.35,0-.53.18-.05.36-.11.55-.17,0,.23,0,.46,0,.69.18,0,.36,0,.55,0v.45c-.18,0-.37,0-.55,0,0,.26,0,.52,0,.77,0,.14,0,.29,0,.43.01.08.04.18.12.22.13.07.3.04.42-.04v.45c-.16.07-.33.09-.51.08-.16-.01-.33-.07-.44-.2-.12-.15-.15-.34-.16-.53,0-.4,0-.79,0-1.19-.27,0-.54,0-.81,0,0,.62,0,1.24,0,1.87h-.55c0-.62,0-1.24,0-1.86-.13,0-.26,0-.38,0,0-.15,0-.3,0-.44.13,0,.26,0,.38,0,0-.2-.02-.4.04-.59.05-.17.16-.33.31-.43h0Z"/><path class="cls-5" d="M18.63,24.16c.11-.02.23.02.31.11.09.1.1.25.04.36-.07.13-.23.18-.37.15-.14-.03-.26-.16-.26-.31,0-.16.13-.3.28-.31h0Z"/><path class="cls-5" d="M14.4,24.23h.8c.25.64.5,1.27.75,1.91.06.16.12.32.19.48.32-.79.65-1.59.97-2.38.26,0,.52,0,.77,0,0,1.07,0,2.15,0,3.22-.19,0-.37,0-.56,0,0-.79,0-1.59,0-2.38,0-.04,0-.07,0-.11-.01.02-.02.03-.03.05-.32.81-.65,1.62-.96,2.43-.13,0-.26,0-.4,0-.33-.81-.66-1.63-.98-2.44,0-.02-.02-.03-.03-.05,0,.35,0,.7,0,1.04,0,.48,0,.96,0,1.44-.18,0-.35,0-.53,0,0-1.07,0-2.15,0-3.22h0Z"/><path class="cls-5" d="M20.15,25.14c.27-.08.55-.07.82,0,.05.02.11.04.16.07,0,.18,0,.35,0,.53-.18-.14-.4-.22-.63-.19-.18.02-.35.11-.46.26-.14.18-.17.42-.15.64.02.17.09.34.22.46.14.12.33.17.52.15.18-.02.35-.1.5-.2,0,.17,0,.33,0,.5-.23.13-.5.17-.76.16-.26-.01-.53-.11-.72-.3-.21-.2-.32-.49-.33-.77-.01-.3.05-.61.22-.86.14-.21.37-.36.61-.43h0Z"/><path class="cls-5" d="M26.19,25.11c.26-.04.52-.01.77.08,0,.17,0,.34,0,.51-.17-.12-.38-.18-.58-.17-.1,0-.22.05-.26.15-.04.1-.01.22.08.28.16.1.34.15.51.24.13.07.25.17.32.3.12.25.07.59-.14.78-.2.19-.5.24-.77.23-.19-.01-.39-.05-.56-.13,0-.18,0-.36,0-.53.15.11.32.19.5.22.13.02.26.02.38-.04.11-.06.13-.22.07-.31-.06-.08-.15-.12-.24-.16-.16-.07-.33-.13-.48-.24-.1-.08-.18-.19-.21-.31-.04-.18-.03-.39.08-.55.12-.19.33-.3.55-.34h0Z"/><path class="cls-5" d="M22.37,25.18c.15-.09.35-.1.51-.04,0,.18,0,.37,0,.55-.11-.07-.25-.1-.37-.09-.16.02-.28.14-.35.28-.07.15-.08.31-.08.47,0,.37,0,.74,0,1.11h-.55c0-.77,0-1.54,0-2.31.18,0,.36,0,.55,0,0,.13,0,.26,0,.4.06-.14.15-.28.29-.36h0Z"/><path class="cls-5" d="M18.4,25.15c.18,0,.37,0,.55,0,0,.77,0,1.54,0,2.31h-.55c0-.77,0-1.54,0-2.31h0Z"/><path class="cls-5" d="M25.17,25.68c-.1-.21-.27-.39-.48-.49-.25-.11-.53-.13-.79-.09-.28.04-.55.17-.73.39-.16.2-.24.45-.26.71-.02.3.03.61.2.86.15.21.38.36.64.42.21.04.43.04.65,0,.25-.05.48-.19.63-.39.15-.19.23-.43.24-.67.02-.25,0-.5-.11-.73ZM24.64,26.74c-.05.12-.15.22-.27.27-.14.05-.3.06-.45.02-.15-.04-.28-.15-.35-.29-.09-.18-.1-.38-.08-.58.02-.18.08-.36.21-.48.1-.09.23-.14.36-.14.17-.01.34.04.46.16.13.13.18.31.19.48,0,.19,0,.39-.08.56Z"/><path class="cls-5" d="M29.6,25.75c-.09-.23-.26-.43-.47-.54-.25-.13-.54-.15-.82-.11-.22.03-.44.11-.61.26-.21.18-.33.44-.36.71-.03.27-.02.55.09.8.11.25.31.45.56.54.25.1.52.11.78.07.26-.04.52-.18.68-.4.18-.22.25-.51.25-.79,0-.19-.02-.38-.09-.55ZM29.1,26.53c-.02.12-.06.24-.14.34-.08.1-.2.16-.32.17-.13.02-.27.01-.4-.04-.13-.06-.24-.17-.29-.31-.07-.16-.08-.33-.07-.5.01-.16.06-.33.17-.46.1-.12.25-.19.4-.19.16-.01.32.03.44.13.11.09.17.23.2.37.03.16.03.33,0,.49Z"/><path class="cls-8" d="M7.42,25.97c.85,0,1.7,0,2.56,0,0,.85,0,1.7,0,2.56h-2.56v-2.56h0Z"/><path class="cls-3" d="M10.23,25.97c.85,0,1.7,0,2.56,0v2.56h-2.56c0-.85,0-1.7,0-2.56h0Z"/><path class="cls-6" d="M14.37,21.94c0-.06.05-.11.11-.11s.11.05.11.1c0,.06-.05.11-.11.11s-.11-.05-.11-.11ZM14.4,22.22h.16v.91h-.16v-.91Z"/><path class="cls-6" d="M15.77,22.6v.52h-.16v-.5c0-.18-.09-.26-.24-.26-.17,0-.29.1-.29.3v.47h-.16v-.91h.16v.14c.07-.09.18-.15.33-.15.22,0,.38.13.38.39Z"/><path class="cls-6" d="M16.52,22.67c0-.27.2-.46.48-.46.16,0,.3.07.37.19l-.12.08c-.06-.09-.15-.13-.25-.13-.18,0-.31.12-.31.32s.13.32.31.32c.1,0,.19-.04.25-.13l.12.08c-.07.13-.21.2-.37.2-.28,0-.48-.19-.48-.46Z"/><path class="cls-6" d="M17.52,22.67c0-.27.2-.46.47-.46s.47.19.47.46-.2.46-.47.46-.47-.19-.47-.46ZM18.3,22.67c0-.19-.13-.32-.3-.32s-.31.12-.31.32.13.32.31.32.3-.13.3-.32Z"/><path class="cls-6" d="M18.72,21.85h.16v1.27h-.16v-1.27Z"/><path class="cls-6" d="M19.24,21.85h.16v1.27h-.16v-1.27Z"/><path class="cls-6" d="M20.46,22.58v.55h-.16v-.12c-.05.08-.16.13-.3.13-.21,0-.34-.11-.34-.27,0-.14.09-.26.36-.26h.26v-.03c0-.14-.08-.22-.24-.22-.11,0-.22.04-.29.1l-.07-.12c.09-.08.23-.12.37-.12.25,0,.39.12.39.37ZM20.3,22.85v-.13h-.25c-.16,0-.21.06-.21.14,0,.09.08.15.2.15s.22-.06.26-.16Z"/><path class="cls-6" d="M21.74,22.67c0,.28-.19.46-.46.46-.13,0-.25-.05-.32-.15v.14h-.16v-1.27h.16v.5c.08-.1.19-.15.32-.15.26,0,.46.18.46.46ZM21.58,22.67c0-.19-.13-.32-.31-.32s-.3.12-.3.32.13.32.3.32.31-.13.31-.32Z"/><path class="cls-6" d="M21.92,22.67c0-.27.2-.46.47-.46s.47.19.47.46-.2.46-.47.46-.47-.19-.47-.46ZM22.7,22.67c0-.19-.13-.32-.3-.32s-.31.12-.31.32.13.32.31.32.3-.13.3-.32Z"/><path class="cls-6" d="M23.61,22.21v.16s-.03,0-.04,0c-.18,0-.29.11-.29.31v.45h-.16v-.91h.16v.15c.06-.11.17-.16.33-.16Z"/><path class="cls-6" d="M24.56,22.58v.55h-.16v-.12c-.05.08-.16.13-.3.13-.21,0-.34-.11-.34-.27,0-.14.09-.26.36-.26h.26v-.03c0-.14-.08-.22-.24-.22-.11,0-.22.04-.29.1l-.07-.12c.09-.08.23-.12.37-.12.25,0,.39.12.39.37ZM24.4,22.85v-.13h-.25c-.16,0-.21.06-.21.14,0,.09.08.15.2.15s.22-.06.26-.16Z"/><path class="cls-6" d="M25.41,23.07s-.12.06-.2.06c-.18,0-.29-.1-.29-.28v-.5h-.15v-.13h.15v-.2h.16v.2h.26v.13h-.26v.49c0,.1.05.15.14.15.05,0,.09-.02.13-.04l.05.12Z"/><path class="cls-6" d="M25.62,21.94c0-.06.05-.11.11-.11s.11.05.11.1c0,.06-.05.11-.11.11s-.11-.05-.11-.11ZM25.65,22.22h.16v.91h-.16v-.91Z"/><path class="cls-6" d="M26.07,22.67c0-.27.2-.46.47-.46s.47.19.47.46-.2.46-.47.46-.47-.19-.47-.46ZM26.85,22.67c0-.19-.13-.32-.3-.32s-.31.12-.31.32.13.32.31.32.3-.13.3-.32Z"/><path class="cls-6" d="M28.14,22.6v.52h-.16v-.5c0-.18-.09-.26-.24-.26-.17,0-.29.1-.29.3v.47h-.16v-.91h.16v.14c.07-.09.18-.15.33-.15.22,0,.38.13.38.39Z"/><path class="cls-6" d="M30.34,22.22l-.34.91h-.16l-.26-.69-.26.69h-.16l-.34-.91h.16l.26.72.27-.72h.14l.27.72.27-.72h.15Z"/><path class="cls-6" d="M30.51,21.94c0-.06.05-.11.11-.11s.11.05.11.1c0,.06-.05.11-.11.11s-.11-.05-.11-.11ZM30.54,22.22h.16v.91h-.16v-.91Z"/><path class="cls-6" d="M31.56,23.07s-.12.06-.2.06c-.18,0-.29-.1-.29-.28v-.5h-.15v-.13h.15v-.2h.16v.2h.26v.13h-.26v.49c0,.1.05.15.14.15.05,0,.09-.02.13-.04l.05.12Z"/><path class="cls-6" d="M32.65,22.6v.52h-.16v-.5c0-.18-.09-.26-.25-.26-.17,0-.29.1-.29.3v.47h-.16v-1.27h.16v.49c.07-.09.18-.14.32-.14.22,0,.38.13.38.39Z"/><path class="cls-4" d="M6.99,15.43v-3.86h1.97v3.8c0,1.19.5,1.67,1.32,1.67s1.31-.48,1.31-1.67v-3.8h1.94v3.86c0,2.08-1.21,3.24-3.27,3.24s-3.27-1.16-3.27-3.24Z"/><path class="cls-4" d="M20.97,18.65l-.79-.7c-.65.46-1.45.72-2.34.72-1.6,0-2.78-.83-2.78-1.96,0-.89.45-1.5,1.45-2.05-.46-.47-.67-.92-.67-1.4,0-1.06.92-1.79,2.34-1.79,1.28,0,2.15.65,2.15,1.67,0,.72-.41,1.25-1.29,1.74l1.01.91c.14-.3.24-.63.31-1l1.52.46c-.13.59-.35,1.12-.65,1.58l.74.66-1.01,1.16ZM19.05,16.94l-1.5-1.33c-.45.27-.63.55-.63.9,0,.42.41.73,1.06.73.38,0,.75-.1,1.06-.29ZM17.58,13.23c0,.22.09.39.45.73.54-.29.73-.52.73-.78,0-.28-.19-.47-.56-.47-.4,0-.62.22-.62.52Z"/><path class="cls-4" d="M22.93,18.53l3.23-6.96h.2l3.23,6.96h-.23l-3.15-6.8h.1l-3.15,6.8h-.23ZM23.99,16.44l.1-.19h4.32l.1.19h-4.52Z"/><path class="cls-4" d="M30.97,11.57h1.97v6.96h-1.97v-6.96Z"/></svg>