<svg width="32" height="32" viewBox="0 0 32 32" fill="none" xmlns="http://www.w3.org/2000/svg">
<circle cx="16" cy="16" r="16" fill="#0276B7"/>
<path d="M12.2632 22.7689H9.4558V13.7211H12.2632V22.7689ZM10.8595 12.4883C9.95818 12.4883 9.23047 11.759 9.23047 10.8594C9.23047 9.95978 9.95818 9.23047 10.8595 9.23047C11.7572 9.23047 12.4849 9.95978 12.4849 10.8594C12.4849 11.7553 11.7572 12.4883 10.8595 12.4883ZM22.7689 22.7689H19.9652V18.3709C19.9652 17.3232 19.9467 15.9719 18.5061 15.9719C17.0469 15.9719 16.8253 17.1159 16.8253 18.2968V22.7689H14.0253V13.7211H16.7145V14.9576H16.7514C17.1245 14.2468 18.0406 13.4953 19.4037 13.4953C22.2444 13.4953 22.7689 15.3685 22.7689 17.8045V22.7689Z" fill="white"/>
</svg>
