<?xml version="1.0" encoding="UTF-8"?>
<svg id="Layer_1" data-name="Layer 1" xmlns="http://www.w3.org/2000/svg" xmlns:xlink="http://www.w3.org/1999/xlink" viewBox="0 0 68 68">
  <defs>
    <style>
      .cls-1 {
        fill: #bf2126;
      }

      .cls-2, .cls-3, .cls-4 {
        fill: none;
      }

      .cls-3 {
        clip-path: url(#clippath);
      }

      .cls-4 {
        clip-path: url(#clippath-1);
      }

      .cls-5 {
        fill: #231f20;
      }
    </style>
    <clipPath id="clippath">
      <rect class="cls-2" x="2.36" y="1.43" width="63.28" height="65.13"/>
    </clipPath>
    <clipPath id="clippath-1">
      <rect class="cls-2" x="2.36" y="1.43" width="63.28" height="65.13"/>
    </clipPath>
  </defs>
  <g id="Vector_Smart_Object" data-name="Vector Smart Object">
    <g class="cls-3">
      <polygon class="cls-1" points="55.22 47.46 34.05 36.99 12.78 47.46 55.22 47.46"/>
      <polygon class="cls-1" points="35.2 36.42 42.58 40.07 47.39 30.41 35.2 36.42"/>
      <polygon class="cls-1" points="34 1.43 11.99 46.71 47.5 29.21 34 1.43"/>
      <polygon class="cls-1" points="48.31 30.86 43.49 40.52 56.01 46.71 48.31 30.86"/>
      <rect class="cls-5" x="30.62" y="51.05" width="2.11" height="15.48"/>
      <g class="cls-4">
        <path class="cls-5" d="m39.21,55.1c.2-.31.44-.62.69-.9.51-.55,1.14-1,1.85-1.33.67-.31,1.44-.47,2.27-.47.7,0,1.39.13,2.06.38.67.24,1.28.6,1.81,1.08l.2.18v-2.55l-.06-.03c-.29-.17-.59-.33-.89-.47-.31-.14-.63-.25-.95-.33-.74-.17-1.41-.26-1.99-.26-1.12,0-2.18.21-3.14.63-.94.4-1.81.98-2.58,1.73-.73.73-1.31,1.6-1.71,2.59-.43.93-.64,2.02-.64,3.22,0,1.13.21,2.18.62,3.13.42.97,1,1.83,1.71,2.54.67.68,1.51,1.26,2.52,1.71,1,.4,2.03.61,3.06.61.65,0,1.35-.09,2.06-.28.73-.19,1.38-.45,1.93-.8l.06-.04v-2.59l-.2.18c-.5.46-1.11.84-1.81,1.13-.66.26-1.36.4-2.1.4-.8,0-1.57-.17-2.27-.49-.7-.33-1.32-.77-1.83-1.33-.25-.27-.47-.57-.67-.89-.2-.33-.38-.67-.54-1.03-.28-.7-.42-1.49-.42-2.34s.15-1.65.44-2.37c.15-.37.32-.72.53-1.03"/>
        <polygon class="cls-5" points="57.71 50.22 56.6 52.73 63.31 66.53 65.64 66.53 57.71 50.22"/>
        <polygon class="cls-5" points="21.4 51.05 20 51.05 14.64 64.59 14.96 65.36 16.33 65.36 20.51 55.2 25.27 66.53 27.46 66.53 21.4 51.05"/>
        <polygon class="cls-5" points="11.29 51.05 9.88 51.05 2.36 66.53 4.69 66.53 10.51 54.57 14.08 63.23 15.12 60.61 11.29 51.05"/>
        <polygon class="cls-5" points="50.1 66.53 52.37 66.53 57.19 56.29 56.05 53.94 50.1 66.53"/>
      </g>
    </g>
  </g>
</svg>