<?xml version="1.0" encoding="UTF-8"?>
<svg id="Layer_1" data-name="Layer 1" xmlns="http://www.w3.org/2000/svg" viewBox="0 0 68 68">
  <defs>
    <style>
      .cls-1, .cls-2 {
        fill: #005ea3;
      }

      .cls-1, .cls-3, .cls-4 {
        fill-rule: evenodd;
      }

      .cls-3, .cls-5 {
        fill: #f26537;
      }

      .cls-4 {
        fill: #68bd45;
      }
    </style>
  </defs>
  <path class="cls-1" d="m8.85,42.35l-5.09-2.82c-.91-.6-1.13-1.27-1.32-2.18l-.94-6.56c-.01-.09.09-.1.11-.03.71,2.32,4.35,3.03,6.11,4.19.39.27.82.62,1.12.98.3-.36.73-.71,1.12-.98,1.77-1.16,5.4-1.87,6.12-4.19.02-.08.13-.06.11.03l-.94,6.56c-.19.91-.42,1.58-1.32,2.18l-5.09,2.82Z"/>
  <path class="cls-4" d="m8.85,35.15c.2,0,.13-.6,1.15-1.18,2.03-1.33,6.15-1.91,6.18-5.62v-2.64c0-.06-.05-.05-.06,0-.5,2.42-4.24,3-6.13,4.24-.8.53-1.08,1.48-1.15,2.15-.08-.67-.35-1.62-1.15-2.15-1.89-1.24-5.63-1.83-6.13-4.24,0-.05-.06-.05-.06,0v2.64c.03,3.71,4.15,4.29,6.18,5.62,1.02.58.95,1.18,1.15,1.18"/>
  <path class="cls-3" d="m8.85,23.38c1.43,0,2.59,1.17,2.59,2.59s-1.17,2.59-2.59,2.59-2.59-1.17-2.59-2.59,1.16-2.59,2.59-2.59"/>
  <polygon class="cls-1" points="1.31 44.05 .85 44.05 .85 44.42 1.37 44.42 1.37 44.6 .62 44.6 .62 43.37 1.34 43.37 1.34 43.55 .85 43.55 .85 43.87 1.31 43.87 1.31 44.05"/>
  <path class="cls-1" d="m1.7,43.71l.11.17s.05.09.08.14h0s.05-.1.08-.14l.1-.16h.25l-.3.43.3.46h-.26l-.11-.18s-.05-.1-.08-.14h0c-.03.05-.05.1-.08.14l-.1.18h-.25l.31-.45-.3-.44h.25Z"/>
  <path class="cls-1" d="m3.11,44.57s-.14.05-.25.05c-.28,0-.46-.18-.46-.46s.18-.47.5-.47c.08,0,.17.02.22.04l-.04.17s-.09-.03-.17-.03c-.17,0-.27.13-.27.29,0,.18.12.29.27.29.08,0,.13-.02.18-.03l.03.17Z"/>
  <path class="cls-1" d="m3.39,44.22c0,.16.13.23.27.23.1,0,.18-.02.25-.04l.03.15c-.08.03-.18.06-.31.06-.29,0-.46-.18-.46-.45,0-.25.15-.48.44-.48s.38.24.38.43c0,.04,0,.08,0,.1h-.6Zm.39-.16c0-.08-.03-.22-.18-.22-.14,0-.2.13-.21.22h.39Z"/>
  <rect class="cls-2" x="4.17" y="43.3" width=".23" height="1.3"/>
  <rect class="cls-2" x="4.64" y="43.3" width=".23" height="1.3"/>
  <path class="cls-1" d="m5.27,44.22c0,.16.13.23.27.23.1,0,.18-.02.25-.04l.03.15c-.08.03-.18.06-.31.06-.29,0-.46-.18-.46-.45,0-.25.15-.48.44-.48s.38.24.38.43c0,.04,0,.08,0,.1h-.6Zm.39-.16c0-.08-.03-.22-.18-.22-.14,0-.2.13-.21.22h.39Z"/>
  <path class="cls-1" d="m6.06,43.98c0-.1,0-.19,0-.27h.2v.13h.02c.04-.07.14-.15.29-.15.16,0,.32.1.32.38v.53h-.22v-.5c0-.13-.05-.23-.17-.23-.09,0-.15.06-.18.13,0,.02-.01.05-.01.07v.52h-.23v-.63Z"/>
  <path class="cls-1" d="m7.76,44.57s-.14.05-.25.05c-.28,0-.46-.18-.46-.46s.18-.47.5-.47c.08,0,.17.02.22.04l-.04.17s-.09-.03-.17-.03c-.17,0-.27.13-.27.29,0,.18.12.29.27.29.08,0,.13-.02.18-.03l.03.17Z"/>
  <path class="cls-1" d="m8.09,44.22c0,.16.13.23.27.23.1,0,.18-.02.25-.04l.03.15c-.08.03-.18.06-.31.06-.29,0-.46-.18-.46-.45,0-.25.15-.48.44-.48s.38.24.38.43c0,.04,0,.08,0,.1h-.6Zm.39-.16c0-.08-.03-.22-.18-.22-.14,0-.2.13-.21.22h.39Z"/>
  <path class="cls-1" d="m9.39,43.71l.09.4c.02.09.04.19.06.29h0c.02-.1.05-.2.07-.29l.12-.41h.18l.11.4c.03.1.05.2.07.3h0c.01-.1.03-.19.06-.3l.1-.4h.22l-.28.89h-.21l-.11-.36c-.03-.09-.05-.18-.07-.29h0c-.02.11-.04.2-.07.29l-.11.36h-.21l-.26-.89h.23Z"/>
  <path class="cls-1" d="m10.86,43.46c0,.07-.05.12-.13.12s-.12-.06-.12-.12c0-.07.05-.12.13-.12s.12.05.13.12m-.24,1.14v-.89h.22v.89h-.22Z"/>
  <path class="cls-1" d="m11.35,43.48v.23h.21v.17h-.21v.39c0,.11.03.16.12.16.04,0,.06,0,.09,0v.17s-.09.02-.16.02c-.08,0-.15-.03-.19-.07-.05-.05-.07-.13-.07-.25v-.42h-.13v-.17h.13v-.17l.22-.06Z"/>
  <path class="cls-1" d="m11.73,43.3h.23v.53h0s.07-.08.11-.1c.05-.03.1-.04.16-.04.15,0,.31.1.31.39v.52h-.23v-.5c0-.13-.05-.23-.17-.23-.09,0-.15.06-.18.13,0,.02,0,.04,0,.07v.53h-.23v-1.3Z"/>
  <path class="cls-1" d="m13.37,44.6l-.4-1.23h.25l.17.56c.05.16.09.3.12.45h0c.03-.15.08-.3.13-.45l.18-.56h.24l-.43,1.23h-.26Z"/>
  <path class="cls-1" d="m14.8,44.39c0,.08,0,.16.01.21h-.2l-.02-.1h0c-.05.07-.15.12-.26.12-.18,0-.28-.13-.28-.27,0-.22.2-.34.53-.34h0c0-.07-.02-.17-.18-.17-.09,0-.18.03-.24.07l-.04-.15c.07-.04.18-.08.32-.08.29,0,.37.18.37.38v.32Zm-.22-.22c-.16,0-.31.03-.31.17,0,.09.06.13.13.13.09,0,.16-.06.18-.12,0-.02,0-.03,0-.05v-.12Z"/>
  <rect class="cls-2" x="15.04" y="43.3" width=".23" height="1.3"/>
  <path class="cls-1" d="m16.3,44.33c0,.11,0,.19,0,.27h-.2v-.13h-.02c-.04.06-.13.15-.29.15s-.31-.1-.31-.39v-.52h.23v.48c0,.15.05.24.17.24.09,0,.15-.06.17-.12,0-.02.01-.04.01-.07v-.54h.23v.62Z"/>
  <path class="cls-1" d="m16.71,44.22c0,.16.13.23.27.23.1,0,.18-.02.25-.04l.03.15c-.08.03-.18.06-.31.06-.29,0-.46-.18-.46-.45,0-.25.15-.48.44-.48s.38.24.38.43c0,.04,0,.08,0,.1h-.6Zm.39-.16c0-.08-.03-.22-.18-.22-.14,0-.2.13-.21.22h.39Z"/>
  <path class="cls-1" d="m17.48,44.39s.15.07.23.07c.1,0,.14-.04.14-.1,0-.06-.04-.09-.15-.13-.17-.06-.25-.15-.25-.26,0-.16.13-.28.34-.28.1,0,.18.02.24.05l-.05.16s-.11-.05-.19-.05-.12.04-.12.09.04.08.16.12c.16.06.24.14.24.27,0,.16-.13.28-.36.28-.11,0-.21-.03-.27-.06l.05-.16Z"/>
  <path class="cls-1" d="m21.77,26.6c.46-.08,1.38-.16,2.27-.16,1.07,0,1.73.1,2.31.44.54.29.92.82.92,1.53s-.4,1.31-1.28,1.65v.02c.89.23,1.55.91,1.55,1.9,0,.71-.32,1.27-.81,1.66-.57.45-1.51.7-3.06.7-.86,0-1.51-.06-1.9-.12v-7.63Zm1.74,2.98h.58c.93,0,1.42-.38,1.42-.96s-.45-.9-1.25-.9c-.39,0-.61.02-.75.05v1.81Zm0,3.45c.17.02.38.02.68.02.8,0,1.5-.31,1.5-1.13,0-.77-.7-1.08-1.58-1.08h-.6v2.19Z"/>
  <rect class="cls-2" x="28.75" y="26.5" width="1.75" height="7.77"/>
  <path class="cls-1" d="m38.59,31.3c-.03-.93-.07-2.06-.07-3.19h-.02c-.25.99-.58,2.1-.88,3.01l-.95,3.03h-1.37l-.83-3c-.25-.92-.51-2.03-.7-3.04h-.02c-.03,1.05-.08,2.25-.13,3.22l-.15,2.95h-1.63l.5-7.77h2.34l.76,2.59c.25.9.48,1.87.66,2.78h.05c.21-.9.47-1.93.74-2.79l.82-2.58h2.31l.42,7.77h-1.71l-.13-2.98Z"/>
  <polygon class="cls-1" points="43.14 27.98 41.04 27.98 41.04 26.5 47.01 26.5 47.01 27.98 44.89 27.98 44.89 34.27 43.14 34.27 43.14 27.98"/>
  <polygon class="cls-1" points="52.57 30.99 49.71 30.99 49.71 32.83 52.91 32.83 52.91 34.27 47.96 34.27 47.96 26.5 52.74 26.5 52.74 27.94 49.71 27.94 49.71 29.56 52.57 29.56 52.57 30.99"/>
  <path class="cls-1" d="m59.8,34.07c-.31.15-1.05.33-1.98.33-2.69,0-4.07-1.68-4.07-3.9,0-2.65,1.89-4.12,4.24-4.12.91,0,1.6.17,1.91.35l-.37,1.38c-.35-.15-.84-.29-1.48-.29-1.38,0-2.47.84-2.47,2.57,0,1.56.92,2.54,2.48,2.54.54,0,1.12-.1,1.48-.25l.25,1.38Z"/>
  <polygon class="cls-1" points="62.73 26.5 62.73 29.49 65.63 29.49 65.63 26.5 67.38 26.5 67.38 34.27 65.63 34.27 65.63 31.02 62.73 31.02 62.73 34.27 60.98 34.27 60.98 26.5 62.73 26.5"/>
  <path class="cls-3" d="m21.71,36.16c.25-.05.71-.1,1.15-.1.58,0,.94.08,1.23.28.27.16.45.44.45.81,0,.4-.25.76-.72.93v.02c.46.12.87.47.87,1.06,0,.38-.17.69-.41.9-.31.26-.81.4-1.61.4-.44,0-.76-.03-.97-.06v-4.25Zm.78,1.71h.4c.55,0,.85-.26.85-.62,0-.41-.31-.6-.81-.6-.23,0-.37.01-.45.03v1.19Zm0,1.98c.1.02.24.02.42.02.51,0,.96-.19.96-.72s-.44-.71-.99-.71h-.39v1.41Z"/>
  <rect class="cls-5" x="25.41" y="36.1" width=".79" height="4.32"/>
  <path class="cls-3" d="m27.1,36.16c.3-.06.74-.1,1.19-.1.62,0,1.04.1,1.33.35.24.2.37.5.37.87,0,.56-.38.94-.79,1.08v.02c.31.12.5.42.6.83.14.54.26,1.04.34,1.21h-.81c-.06-.13-.17-.48-.29-1.02-.13-.56-.33-.74-.78-.76h-.4v1.78h-.78v-4.26Zm.78,1.91h.47c.53,0,.86-.28.86-.71,0-.47-.33-.69-.84-.69-.25,0-.41.02-.49.04v1.37Z"/>
  <polygon class="cls-3" points="30.75 36.1 31.54 36.1 31.54 39.76 33.32 39.76 33.32 40.42 30.75 40.42 30.75 36.1"/>
  <path class="cls-3" d="m34.78,39.19l-.37,1.23h-.81l1.39-4.32h1.01l1.41,4.32h-.85l-.39-1.23h-1.37Zm1.24-.6l-.34-1.06c-.08-.26-.15-.56-.22-.81h-.01c-.06.25-.13.55-.21.81l-.33,1.06h1.11Z"/>
  <rect class="cls-5" x="39.32" y="36.1" width=".79" height="4.32"/>
  <path class="cls-3" d="m41.01,40.42v-4.32h.9l1.12,1.85c.28.48.54.98.74,1.45h.01c-.06-.58-.07-1.14-.07-1.8v-1.51h.73v4.32h-.82l-1.13-1.91c-.28-.47-.56-1-.77-1.49h-.03c.03.56.04,1.14.04,1.85v1.55h-.73Z"/>
  <path class="cls-3" d="m45.34,39.56c.25.15.64.28,1.05.28.5,0,.78-.24.78-.59,0-.33-.22-.52-.76-.72-.72-.26-1.17-.64-1.17-1.26,0-.71.59-1.24,1.53-1.24.47,0,.81.1,1.03.22l-.19.63c-.16-.08-.46-.21-.87-.21-.5,0-.71.26-.71.52,0,.33.25.49.83.71.75.28,1.11.66,1.11,1.28,0,.7-.53,1.3-1.64,1.3-.46,0-.94-.13-1.17-.28l.18-.65Z"/>
  <polygon class="cls-3" points="49.51 36.76 48.28 36.76 48.28 36.1 51.55 36.1 51.55 36.76 50.3 36.76 50.3 40.42 49.51 40.42 49.51 36.76"/>
  <rect class="cls-5" x="52.05" y="36.1" width=".79" height="4.32"/>
  <polygon class="cls-3" points="54.58 36.76 53.34 36.76 53.34 36.1 56.61 36.1 56.61 36.76 55.36 36.76 55.36 40.42 54.58 40.42 54.58 36.76"/>
  <path class="cls-3" d="m57.9,36.1v2.52c0,.85.35,1.24.89,1.24.57,0,.91-.39.91-1.24v-2.52h.79v2.47c0,1.33-.69,1.92-1.73,1.92s-1.65-.56-1.65-1.92v-2.48h.79Z"/>
  <polygon class="cls-3" points="62.22 36.76 60.98 36.76 60.98 36.1 64.25 36.1 64.25 36.76 63.01 36.76 63.01 40.42 62.22 40.42 62.22 36.76"/>
  <polygon class="cls-3" points="67.18 38.5 65.55 38.5 65.55 39.77 67.37 39.77 67.37 40.42 64.76 40.42 64.76 36.1 67.27 36.1 67.27 36.74 65.55 36.74 65.55 37.86 67.18 37.86 67.18 38.5"/>
  <path class="cls-3" d="m23.64,42.9c0,.73-.45,1.15-1.05,1.15s-1.01-.47-1.01-1.11c0-.68.43-1.15,1.04-1.15s1.01.48,1.01,1.11m-1.63.03c0,.45.22.8.61.8s.6-.36.6-.82c0-.41-.2-.8-.6-.8s-.61.37-.61.82Z"/>
  <polygon class="cls-3" points="23.99 41.82 25.26 41.82 25.26 42.15 24.39 42.15 24.39 42.76 25.19 42.76 25.19 43.08 24.39 43.08 24.39 44.01 23.99 44.01 23.99 41.82"/>
  <path class="cls-3" d="m28.16,43.12c-.01-.28-.03-.62-.03-.92h0c-.07.27-.16.56-.26.84l-.32.95h-.31l-.29-.94c-.08-.28-.16-.58-.22-.85h0c0,.29-.02.63-.04.93l-.05.88h-.37l.15-2.19h.53l.29.88c.08.26.15.52.2.76h0c.06-.24.13-.51.22-.76l.3-.88h.52l.13,2.19h-.39l-.04-.89Z"/>
  <path class="cls-3" d="m29.44,43.39l-.19.62h-.41l.7-2.19h.51l.71,2.19h-.43l-.2-.62h-.69Zm.63-.3l-.17-.54c-.04-.13-.08-.28-.11-.41h0c-.03.13-.07.28-.1.41l-.17.54h.56Z"/>
  <path class="cls-3" d="m31.06,44.01v-2.19h.46l.57.94c.14.24.27.5.37.73h0c-.03-.29-.04-.58-.04-.91v-.76h.37v2.19h-.42l-.57-.97c-.14-.24-.28-.51-.39-.75h-.01c.02.29.02.58.02.94v.78h-.37Z"/>
  <path class="cls-3" d="m33.7,43.39l-.19.62h-.41l.7-2.19h.51l.71,2.19h-.43l-.2-.62h-.69Zm.63-.3l-.17-.54c-.04-.13-.08-.28-.11-.41h0c-.03.13-.07.28-.1.41l-.17.54h.56Z"/>
  <path class="cls-3" d="m36.99,43.91c-.14.05-.41.12-.7.12-.37,0-.65-.09-.86-.29-.2-.19-.31-.47-.31-.81,0-.7.49-1.14,1.22-1.14.27,0,.48.06.58.1l-.09.32c-.12-.06-.27-.09-.5-.09-.47,0-.8.28-.8.79s.31.79.76.79c.15,0,.25-.02.3-.04v-.55h-.39v-.32h.77v1.11Z"/>
  <polygon class="cls-3" points="38.63 43.04 37.8 43.04 37.8 43.69 38.72 43.69 38.72 44.01 37.4 44.01 37.4 41.82 38.68 41.82 38.68 42.15 37.8 42.15 37.8 42.72 38.63 42.72 38.63 43.04"/>
  <path class="cls-3" d="m40.92,43.12c-.01-.28-.03-.62-.03-.92h0c-.07.27-.16.56-.26.84l-.32.95h-.31l-.29-.94c-.08-.28-.16-.58-.22-.85h0c0,.29-.02.63-.04.93l-.05.88h-.37l.15-2.19h.53l.29.88c.08.26.15.52.2.76h.01c.06-.24.13-.51.22-.76l.3-.88h.52l.13,2.19h-.39l-.04-.89Z"/>
  <polygon class="cls-3" points="42.99 43.04 42.16 43.04 42.16 43.69 43.08 43.69 43.08 44.01 41.76 44.01 41.76 41.82 43.03 41.82 43.03 42.15 42.16 42.15 42.16 42.72 42.99 42.72 42.99 43.04"/>
  <path class="cls-3" d="m43.43,44.01v-2.19h.46l.57.94c.14.24.27.5.37.73h0c-.03-.29-.04-.58-.04-.91v-.76h.37v2.19h-.42l-.57-.97c-.14-.24-.28-.51-.39-.75h-.01c.02.29.02.58.02.94v.78h-.37Z"/>
  <polygon class="cls-3" points="46.05 42.16 45.42 42.16 45.42 41.82 47.08 41.82 47.08 42.16 46.45 42.16 46.45 44.01 46.05 44.01 46.05 42.16"/>
  <polygon class="cls-3" points="48.3 42.16 47.67 42.16 47.67 41.82 49.33 41.82 49.33 42.16 48.7 42.16 48.7 44.01 48.3 44.01 48.3 42.16"/>
  <polygon class="cls-3" points="50.81 43.04 49.98 43.04 49.98 43.69 50.9 43.69 50.9 44.01 49.58 44.01 49.58 41.82 50.86 41.82 50.86 42.15 49.98 42.15 49.98 42.72 50.81 42.72 50.81 43.04"/>
  <path class="cls-3" d="m52.82,43.95c-.09.05-.3.1-.57.1-.7,0-1.12-.44-1.12-1.1,0-.72.5-1.16,1.17-1.16.26,0,.45.06.53.1l-.08.32c-.1-.05-.25-.08-.43-.08-.45,0-.77.28-.77.81,0,.48.28.79.76.79.16,0,.33-.03.44-.08l.07.32Z"/>
  <polygon class="cls-3" points="53.56 41.82 53.56 42.7 54.49 42.7 54.49 41.82 54.89 41.82 54.89 44.01 54.49 44.01 54.49 43.05 53.56 43.05 53.56 44.01 53.17 44.01 53.17 41.82 53.56 41.82"/>
  <path class="cls-3" d="m55.34,44.01v-2.19h.46l.57.94c.14.24.27.5.37.73h0c-.03-.29-.04-.58-.04-.91v-.76h.37v2.19h-.42l-.57-.97c-.14-.24-.28-.51-.39-.75h-.01c.02.29.02.58.02.94v.78s-.37,0-.37,0Z"/>
  <path class="cls-3" d="m59.49,42.9c0,.73-.45,1.15-1.05,1.15s-1.01-.47-1.01-1.11c0-.68.43-1.15,1.04-1.15s1.01.48,1.01,1.11m-1.63.03c0,.45.22.8.61.8s.6-.36.6-.82c0-.41-.2-.8-.6-.8s-.61.37-.61.82Z"/>
  <polygon class="cls-3" points="59.83 41.82 60.23 41.82 60.23 43.68 61.13 43.68 61.13 44.01 59.83 44.01 59.83 41.82"/>
  <path class="cls-3" d="m63.25,42.9c0,.73-.45,1.15-1.05,1.15s-1.01-.47-1.01-1.11c0-.68.43-1.15,1.04-1.15s1.01.48,1.01,1.11m-1.63.03c0,.45.22.8.61.8s.6-.36.6-.82c0-.41-.2-.8-.6-.8s-.61.37-.61.82Z"/>
  <path class="cls-3" d="m65.35,43.91c-.14.05-.41.12-.7.12-.37,0-.65-.09-.86-.29-.19-.19-.31-.47-.31-.81,0-.7.49-1.14,1.22-1.14.27,0,.48.06.58.1l-.09.32c-.12-.06-.27-.09-.5-.09-.47,0-.8.28-.8.79s.31.79.76.79c.15,0,.25-.02.3-.04v-.55s-.39,0-.39,0v-.32h.77v1.11Z"/>
  <path class="cls-3" d="m66.25,44.01v-.91l-.69-1.28h.46l.26.56c.07.16.13.29.19.44h0c.05-.14.11-.28.19-.44l.26-.56h.45l-.73,1.27v.92h-.4Z"/>
</svg>