<?xml version="1.0" encoding="UTF-8"?>
<svg id="Layer_1" data-name="Layer 1" xmlns="http://www.w3.org/2000/svg" viewBox="0 0 68 68">
  <defs>
    <style>
      .cls-1 {
        fill: #767676;
      }

      .cls-2 {
        fill: #173865;
      }
    </style>
  </defs>
  <g>
    <path class="cls-2" d="m12.33,52.18c-.12-.36-.31-.78-.79-.78-.36,0-.59.26-.59.59,0,.36.24.55.73.79.55.28,1.01.58,1.01,1.18,0,.64-.54,1.14-1.36,1.14-.22,0-.41-.03-.57-.09-.16-.05-.26-.09-.33-.12-.05-.14-.13-.62-.17-.94l.2-.06c.1.36.41.99.98.99.39,0,.62-.25.62-.64s-.28-.58-.71-.81c-.51-.26-.99-.57-.99-1.16s.48-1.09,1.27-1.09c.33,0,.63.1.78.14.02.21.06.46.1.82l-.18.04Z"/>
    <path class="cls-2" d="m15.54,55.01v-.18c.35-.05.38-.12.3-.36-.06-.19-.16-.46-.27-.74h-1.15c-.07.21-.16.43-.22.66-.1.31-.07.38.35.43v.18h-1.27v-.18c.37-.05.45-.1.65-.6l1.18-2.98.25-.07c.37,1,.73,2.04,1.11,3.03.19.51.26.57.63.62v.18h-1.56Zm-.52-2.89h-.02c-.17.44-.32.89-.48,1.32h.96l-.46-1.32Z"/>
    <path class="cls-2" d="m21.65,51.45c-.31.02-.44.1-.47.36-.02.17-.05.44-.05.96v2.3h-.24l-2.42-2.93h-.01v1.35c0,.51.02.77.04.94.03.27.14.36.55.39v.18h-1.39v-.18c.32-.02.46-.11.49-.37.02-.19.05-.45.05-.96v-1.23c0-.39,0-.47-.12-.6-.12-.14-.24-.19-.5-.21v-.18h.99l2.28,2.66h.02v-1.15c0-.52-.03-.79-.04-.96-.03-.25-.16-.34-.57-.36v-.18h1.39v.18Z"/>
    <path class="cls-2" d="m26.37,52.17c-.06-.22-.12-.37-.21-.48-.11-.14-.25-.18-.62-.18h-.34c-.19,0-.21.01-.21.2v1.3h.52c.51,0,.56-.05.63-.42h.19v1.13h-.19c-.06-.39-.12-.45-.63-.45h-.52v.96c0,.52.05.56.56.6v.18h-1.72v-.18c.44-.04.49-.07.49-.6v-2.19c0-.51-.05-.55-.48-.58v-.19h2.66c0,.14.03.55.06.87l-.19.03Z"/>
    <path class="cls-2" d="m30.74,55.07s-.12,0-.18,0c-.62-.03-.85-.18-1.09-.55-.17-.25-.35-.58-.51-.88-.09-.17-.2-.24-.42-.24h-.13v.87c0,.47.05.52.5.56v.18h-1.66v-.18c.44-.04.51-.09.51-.56v-2.25c0-.47-.05-.52-.48-.55v-.19h1.55c.47,0,.76.06.99.21.23.16.39.41.39.77,0,.5-.33.78-.73.95.09.18.31.56.48.82.21.32.33.49.46.62.13.15.24.22.37.26l-.03.17Zm-2.15-1.88c.26,0,.46-.05.59-.16.2-.17.29-.4.29-.7,0-.62-.37-.85-.74-.85-.15,0-.24.03-.28.06-.04.03-.05.1-.05.23v1.41h.19Z"/>
    <path class="cls-2" d="m33.41,55.01v-.18c.35-.05.38-.12.3-.36-.06-.19-.16-.46-.27-.74h-1.15c-.07.21-.16.43-.22.66-.1.31-.07.38.35.43v.18h-1.27v-.18c.37-.05.45-.1.65-.6l1.18-2.98.25-.07c.37,1,.73,2.04,1.11,3.03.19.51.26.57.63.62v.18h-1.56Zm-.52-2.89h-.02c-.17.44-.32.89-.48,1.32h.96l-.46-1.32Z"/>
    <path class="cls-2" d="m39.52,51.45c-.31.02-.44.1-.47.36-.02.17-.05.44-.05.96v2.3h-.24l-2.42-2.93h-.01v1.35c0,.51.02.77.04.94.03.27.14.36.55.39v.18h-1.39v-.18c.32-.02.46-.11.49-.37.02-.19.05-.45.05-.96v-1.23c0-.39,0-.47-.12-.6-.12-.14-.24-.19-.5-.21v-.18h.99l2.28,2.66h.02v-1.15c0-.52-.03-.79-.04-.96-.03-.25-.16-.34-.57-.36v-.18h1.39v.18Z"/>
    <path class="cls-2" d="m43.69,54.04c-.08.28-.22.71-.32.91-.16.03-.67.15-1.07.15-1.49,0-2.13-1-2.13-1.91,0-1.2.92-2.01,2.26-2.01.47,0,.88.12,1.04.16.05.32.09.58.13.92l-.2.04c-.17-.66-.58-.88-1.09-.88-.88,0-1.36.79-1.36,1.66,0,1.06.59,1.77,1.41,1.77.52,0,.86-.31,1.15-.89l.19.07Z"/>
    <path class="cls-2" d="m44.3,55.01v-.18c.44-.04.5-.07.5-.56v-2.24c0-.49-.05-.53-.5-.56v-.19h1.65v.19c-.44.03-.49.07-.49.56v2.24c0,.48.05.52.49.56v.18h-1.65Z"/>
    <path class="cls-2" d="m48.75,52.18c-.12-.36-.31-.78-.79-.78-.36,0-.59.26-.59.59,0,.36.24.55.73.79.55.28,1.01.58,1.01,1.18,0,.64-.54,1.14-1.36,1.14-.22,0-.41-.03-.57-.09-.16-.05-.26-.09-.33-.12-.05-.14-.13-.62-.17-.94l.2-.06c.1.36.41.99.98.99.39,0,.62-.25.62-.64s-.28-.58-.71-.81c-.51-.26-.99-.57-.99-1.16s.48-1.09,1.27-1.09c.33,0,.63.1.78.14.02.21.06.46.1.82l-.18.04Z"/>
    <path class="cls-2" d="m53.36,54.04c-.08.28-.22.71-.32.91-.16.03-.67.15-1.07.15-1.49,0-2.13-1-2.13-1.91,0-1.2.92-2.01,2.26-2.01.47,0,.88.12,1.04.16.05.32.09.58.13.92l-.2.04c-.17-.66-.58-.88-1.09-.88-.88,0-1.36.79-1.36,1.66,0,1.06.59,1.77,1.41,1.77.52,0,.86-.31,1.15-.89l.19.07Z"/>
    <path class="cls-2" d="m57.88,53.1c0,1.24-.89,2-1.96,2s-1.92-.84-1.92-1.94c0-1,.71-1.98,1.99-1.98,1.03,0,1.9.77,1.9,1.92Zm-3.1-.07c0,1.02.49,1.84,1.26,1.84.58,0,1.07-.54,1.07-1.61,0-1.17-.52-1.84-1.23-1.84-.6,0-1.1.59-1.1,1.62Z"/>
  </g>
  <polygon class="cls-1" points="66.89 47.53 .93 47.53 .98 47.25 66.93 47.25 66.89 47.53"/>
  <path class="cls-1" d="m55.37,41.82l-1.07-1.47c-.16-.23-.26-.36-.51-.36h-.05v-.16h1.64v.16h-.07c-.14,0-.28.04-.28.12,0,.06.06.13.1.18l.81,1.14.66-.96c.1-.16.17-.25.17-.35,0-.11-.23-.13-.31-.13h-.1v-.16h1.12v.16c-.18,0-.33.13-.42.25l-1,1.41v1.28c0,.46.16.48.45.48h.1v.16h-1.78v-.16h.1c.32,0,.45-.09.45-.44v-1.15Z"/>
  <path class="cls-1" d="m27.27,39.98h-.12c-.2,0-.28.08-.28.15,0,.03.02.1.05.17l.92,2.38h.01l.85-2.23c.06-.17.07-.26.07-.3,0-.16-.16-.18-.34-.18h-.09v-.16h1.24v.16h-.18c-.1,0-.2.02-.28.19-.04.07-1.39,3.47-1.39,3.47h-.2l-1.36-3.35c-.1-.25-.21-.31-.45-.31h-.05v-.16h1.62v.16Z"/>
  <path class="cls-1" d="m11.01,40.38c0-.39-.2-.39-.41-.39h-.06v-.16h1.66v.16h-.06c-.21,0-.43,0-.43.39v1.85c0,.68.25,1.15,1.02,1.15.71,0,1.02-.45,1.02-1.17v-2.38s.78,0,.78,0v.16h-.11c-.14,0-.34,0-.34.39v1.71c0,1.21-.64,1.56-1.44,1.56-1.03,0-1.6-.38-1.6-1.33v-1.94Z"/>
  <path class="cls-1" d="m19.77,42.51h.01v-2.02c0-.44-.31-.5-.47-.5h-.12v-.16h1.41v.16h-.08c-.23,0-.46.04-.46.68v2.98h-.19l-2.76-3.08v2.21c0,.47.09.63.5.63h.09v.16h-1.42v-.16h.08c.37,0,.48-.25.48-.68v-2.26c0-.3-.25-.48-.49-.48h-.07v-.16h1.09l2.39,2.69Z"/>
  <path class="cls-1" d="m22.36,43.4h.08c.19,0,.4-.03.4-.31v-2.81c0-.28-.2-.31-.4-.31h-.08v-.16h1.64v.16h-.08c-.19,0-.4.03-.4.31v2.81c0,.28.2.31.4.31h.08v.16h-1.64v-.16Z"/>
  <path class="cls-1" d="m30.92,43.4h.07c.19,0,.4-.03.4-.31v-2.81c0-.28-.2-.31-.4-.31h-.07v-.16h2.71v.84s-.15,0-.15,0c-.03-.35-.09-.61-.65-.61h-.75v1.4h.64c.32,0,.39-.18.42-.47h.16v1.25h-.16c-.03-.32-.05-.51-.42-.51h-.64v1.25c0,.35.31.35.65.35.64,0,.93-.02,1.09-.64h.15c-.07.28-.18.87-.18.87h-2.87v-.16Z"/>
  <path class="cls-1" d="m36.2,40.39c0-.39-.21-.41-.38-.41h-.1v-.16h1.69c.68,0,1.28.18,1.28.94,0,.48-.32.78-.75.94l.92,1.37c.15.23.26.29.52.32v.16h-.95s-.77-1.12-1.12-1.74h-.43v1.15c0,.41.19.43.44.43h.1v.16h-1.7v-.16h.1c.2,0,.38-.09.38-.29v-2.72Zm.69,1.24h.26c.54,0,.83-.2.83-.84,0-.48-.31-.78-.78-.78-.16,0-.23.02-.31.02v1.6Z"/>
  <path class="cls-1" d="m42.9,40.6c-.04-.35-.26-.67-.63-.67-.42,0-.66.25-.66.68,0,.89,1.61.62,1.61,1.91,0,.74-.61,1.13-1.3,1.13-.3,0-.85-.24-.85-.24l-.09-.83h.15c.06.46.32.84.83.84.36,0,.66-.23.66-.61,0-.95-1.58-.65-1.58-1.95,0-.7.49-1.11,1.18-1.11.15,0,.77.08.77.08l.05.78h-.15Z"/>
  <path class="cls-1" d="m45.13,43.4h.08c.19,0,.4-.03.4-.31v-2.81c0-.28-.2-.31-.4-.31h-.08v-.16h1.64v.16h-.08c-.19,0-.4.03-.4.31v2.81c0,.28.2.31.4.31h.08v.16h-1.64v-.16Z"/>
  <path class="cls-1" d="m49.17,40.09c-.4,0-.39.1-.47.49h-.14v-.91h.14c.04.16.21.16.35.16h2.77c.14,0,.23,0,.24-.16h.14v.91h-.14c-.01-.2-.09-.49-.45-.49h-.88v2.85c0,.41.19.46.45.46h.1v.16h-1.78v-.16h.1c.29,0,.44-.03.44-.45v-2.86h-.88Z"/>
  <path class="cls-2" d="m47.12,34.36v.25h.11c.31,0,.64.08.64.43v.38c0,.77-.04,1.51-.94,1.51-1.61,0-2.28-1.49-2.28-2.88s.74-2.52,2.25-2.52c.99,0,1.51.36,1.76,1.4l.25-.02-.1-1.17s-.62-.36-.95-.43c-.33-.08-.49-.15-1.02-.15-1.7,0-3.38,1.02-3.38,2.98s1.43,3.16,3.32,3.16c.95,0,1.32-.2,1.6-.47l.29.34h.28v-2.82h-1.84Z"/>
  <path class="cls-2" d="m27.72,36.94h.12c.3,0,.63-.04.63-.48v-4.44c0-.44-.32-.48-.63-.48h-.12v-.25h4.63l.02,1.33h-.25c-.04-.55-.14-.96-1.03-.96h-1.53v2.22h1.01c.51,0,.62-.29.67-.74h.25v2.01h-.25c-.05-.51-.08-.84-.66-.84h-1.02v1.97c0,.55.49.55,1.03.55,1.02,0,1.46-.04,1.72-1h.24l-.29,1.38h-4.53v-.25Z"/>
  <path class="cls-2" d="m10.58,31.16c1.8,0,3.24,1.12,3.24,2.92,0,1.95-1.4,3.24-3.2,3.24s-3.17-1.22-3.17-3.04,1.36-3.12,3.12-3.12Zm.13,5.79c1.64,0,1.93-1.45,1.93-2.68s-.67-2.73-2.07-2.73c-1.48,0-1.92,1.32-1.92,2.45,0,1.52.69,2.96,2.07,2.96Z"/>
  <path class="cls-2" d="m16.67,36.36c0,.34.24.44.51.47.35.03.73.03,1.12-.02.36-.04.66-.25.81-.46.14-.19.21-.42.26-.61h.25c-.09.48-.21.96-.31,1.44h-4.47v-.25h.12c.3,0,.63-.04.63-.57v-4.35c0-.44-.33-.48-.63-.48h-.12v-.25h2.62v.25h-.21c-.32,0-.58,0-.58.46v4.37Z"/>
  <path class="cls-2" d="m20.69,36.94h.12c.3,0,.63-.04.63-.48v-4.44c0-.44-.32-.48-.63-.48h-.12v-.25h2.72c2.08,0,3.36,1.17,3.36,2.94s-1.25,2.97-3.14,2.97h-2.94v-.25Zm1.83-.72c0,.59.27.67.88.67,1.44,0,2.18-1.2,2.18-2.51,0-2.23-1.13-2.79-2.49-2.79-.19,0-.39.03-.58.04v4.59Z"/>
  <path class="cls-2" d="m39.08,35.52l.02-.02v-3.17c0-.69-.48-.8-.74-.8h-.19v-.25h2.23v.25h-.13c-.36,0-.74.07-.74,1.07v4.71h-.29l-4.36-4.86v3.49c0,.74.14.99.8.99h.14v.25h-2.24v-.25h.12c.58,0,.76-.4.76-1.07v-3.56c0-.47-.39-.76-.77-.76h-.11v-.25h1.73l3.77,4.24Z"/>
  <path class="cls-2" d="m51.22,36.64c0,.25.36.3.63.3h.09v.25h-1.94v-.25h.05c.33,0,.61-.19.74-.55l1.35-3.88c.11-.31.31-1.05.31-1.05l.9-.36,1.63,4.64c.1.3.2.61.31.86.1.24.28.34.56.34h.05v.25h-1.66l-.66-2.09h-1.92s-.46,1.39-.46,1.54Zm1.42-4.41h-.02l-.79,2.4h1.58l-.78-2.4Z"/>
  <path class="cls-2" d="m56.65,31.71c-.63,0-.61.15-.74.77h-.22v-1.44h.22c.07.25.33.25.56.25h4.48c.23,0,.36,0,.38-.25h.23v1.44h-.23c-.02-.31-.14-.77-.71-.77h-1.39v4.5c0,.65.3.73.7.73h.16v.25h-2.81v-.25h.16c.47,0,.7-.04.7-.71v-4.52h-1.51Z"/>
  <path class="cls-2" d="m62.42,36.94h.12c.3,0,.63-.04.63-.48v-4.44c0-.44-.32-.48-.63-.48h-.12v-.25h4.49l.02,1.33h-.25c-.04-.55-.14-.96-1.03-.96h-1.4v2.22h1.01c.51,0,.62-.29.67-.74h.25v2.01h-.25c-.05-.51-.08-.84-.66-.84h-1.02v1.97c0,.55.49.55,1.03.55,1.02,0,1.46-.04,1.72-1h.24l-.29,1.38h-4.53v-.25Z"/>
  <path class="cls-2" d="m4.41,34.36v.25h.11c.31,0,.64.08.64.43v.38c0,.77-.04,1.51-.94,1.51-1.61,0-2.28-1.49-2.28-2.88s.74-2.52,2.25-2.52c.99,0,1.51.36,1.76,1.4l.25-.02-.1-1.17s-.62-.36-.95-.43c-.33-.08-.49-.15-1.02-.15-1.7,0-3.38,1.02-3.38,2.98s1.43,3.16,3.32,3.16c.95,0,1.32-.2,1.6-.47l.29.34h.28v-2.82h-1.84Z"/>
  <path class="cls-2" d="m34.95,18.65l-.02-.88c0-.11-.21-.25-.47-.25h-.91c-.26,0-.47.14-.47.25l-.02.88s-.02.14.16.14h1.56c.18,0,.16-.14.16-.14Z"/>
  <path class="cls-2" d="m34.19,19.56h-.37c-.38,0-.68.13-.69.3l-.02,1.36c0,.08.14.15.32.15h1.15c.18,0,.32-.07.32-.15l-.02-1.36c0-.17-.31-.3-.69-.3Z"/>
  <path class="cls-2" d="m38.33,22.31c-.26-.31-.54-.67-.82-1.09l.7,3.79.84.16-.73-2.86Z"/>
  <path class="cls-2" d="m36.56,19.65l.55,5.16.78.14-.78-4.33c-.19-.3-.37-.63-.55-.97Z"/>
  <path class="cls-2" d="m29.26,22.78c-.47.51-.79.79-.8.8v1.67l.15-.03.65-2.44Z"/>
  <path class="cls-2" d="m36.17,18.82c-.2-.45-.38-.93-.53-1.43l.08,1.2s.02.06.05.07h.02s.05.04.05.08l.4,5.9.56.1-.63-5.92Z"/>
  <path class="cls-2" d="m31.21,24.74l.56-.1.4-5.9s.02-.06.05-.07h.02s.05-.04.05-.07l.08-1.21c-.16.51-.34.99-.53,1.44l-.63,5.92Z"/>
  <path class="cls-2" d="m38.74,22.78l.65,2.44.16.03v-1.67s-.33-.28-.8-.8Z"/>
  <path class="cls-2" d="m28.46,12.9v9.56c2.72-2.38,4.2-7.29,4.2-7.29l.1-.21h.11l.1.21h2.04l.1-.21h.11l.1.21h0c.04.14,1.52,4.94,4.2,7.29v-9.56h-11.08Z"/>
  <path class="cls-2" d="m34.69,15.77h-1.38c-.14,0-.25.17-.26.26v.71s-.01.04-.01.04c0,.09.22.13.43.13h1.05c.21,0,.43-.04.43-.13v-.74c-.01-.09-.13-.26-.27-.26Z"/>
  <path class="cls-2" d="m34.93,23.22c0-.51-.27-.75-.53-.75h-.79c-.31,0-.52.24-.53.75l-.02,1.19.94-.18.94.18-.02-1.19Z"/>
  <path class="cls-2" d="m28.95,25.16l.84-.16.7-3.79c-.28.41-.56.78-.82,1.09l-.73,2.86Z"/>
  <path class="cls-2" d="m30.11,24.95l.78-.14.55-5.16c-.18.35-.36.67-.55.97l-.78,4.33Z"/>
</svg>