<svg xmlns="http://www.w3.org/2000/svg" width="24" height="24" viewBox="0 0 24 24" fill="none">
  <g clip-path="url(#clip0_10263_1317)">
    <path d="M22.2225 0.000976562H1.7715C0.795 0.000976562 0 0.775727 0 1.72973V22.2677C0 23.224 0.795 24.0002 1.7715 24.0002H22.224C23.2027 24.0002 24 23.224 24 22.2677V1.72973C24 0.775727 23.2027 0.000976562 22.2225 0.000976562Z" fill="#0A66C2"/>
    <path d="M3.55866 8.99785H7.12491V20.4504H3.55866V8.99785ZM5.33916 3.29785C6.47691 3.29785 7.40166 4.2226 7.40166 5.36035C7.40166 6.4981 6.47691 7.4251 5.33991 7.4251C4.7926 7.42391 4.26804 7.20602 3.88096 6.81908C3.49388 6.43215 3.2758 5.90766 3.27441 5.36035C3.27441 5.08931 3.32784 4.82093 3.43163 4.57055C3.53542 4.32017 3.68754 4.0927 3.8793 3.90115C4.07106 3.7096 4.29869 3.55772 4.54919 3.45421C4.79968 3.35069 5.06812 3.29756 5.33916 3.29785ZM9.35166 8.99785H12.7657V10.5631H12.8129C13.2884 9.6631 14.4494 8.7136 16.1879 8.7136C19.7924 8.7136 20.4577 11.0859 20.4577 14.1691V20.4511H16.9004V14.8801C16.9004 13.5526 16.8764 11.8426 15.0509 11.8426C13.1984 11.8426 12.9134 13.2901 12.9134 14.7826V20.4481H9.35691V8.9956L9.35166 8.99785Z" fill="white"/>
  </g>
  <defs>
    <clipPath id="clip0_10263_1317">
      <rect width="24" height="24" fill="white"/>
    </clipPath>
  </defs>
</svg>