<?xml version="1.0" encoding="UTF-8"?><svg id="Layer_1" xmlns="http://www.w3.org/2000/svg" viewBox="0 0 56 56"><defs><style>.cls-1{fill:#707070;}.cls-1,.cls-2,.cls-3,.cls-4,.cls-5,.cls-6,.cls-7,.cls-8,.cls-9,.cls-10{stroke-width:0px;}.cls-2{fill:#717171;}.cls-3{fill:#fefbfb;}.cls-4{fill:#020202;}.cls-5{fill:#6a6a6a;}.cls-6{fill:#010101;}.cls-7{fill:#bbb;}.cls-8{fill:#f13101;}.cls-9{fill:#e71c01;}.cls-10{fill:#6f6f6f;}</style></defs><path class="cls-6" d="m36.08,26.82s-.22,1.41-.34,2.11c-.13.78-.27,1.55-.4,2.33-.07.43-.14.87-.2,1.3-.01.07-.03.1-.1.1-.42,0-.84,0-1.27,0-.14,0-.09-.15-.11-.23-.06-.31-.1-.62-.16-.93-.06-.29-.08-.59-.14-.88-.05-.27-.1-.53-.14-.8-.05-.3-.11-.61-.17-.91-.07-.39-.21-1.17-.21-1.17l-.11-.88-.02-.11s0,.53,0,.77c0,1.65,0,3.31,0,4.96,0,.13-.02.18-.17.18-.51-.01-1.01,0-1.52,0-.11,0-.14-.02-.14-.14,0-3.05,0-6.11,0-9.16,0-.12.03-.15.15-.15.73,0,1.45,0,2.18,0,.09,0,.13.02.15.12.1.6.22,1.2.33,1.79.09.51.19,1.02.28,1.53.1.56.22,1.12.29,1.68.03.28.09.55.16.83.04-.29.07-.58.11-.87.03-.21.08-.43.12-.64.09-.45.17-.9.26-1.36.08-.45.17-.89.25-1.34.07-.41.17-.82.22-1.23.02-.13.06-.26.07-.4,0-.06.04-.12.14-.12.74,0,1.49,0,2.23,0,.14,0,.12.08.12.16,0,1.51,0,3.03,0,4.54s0,3.06,0,4.59c0,.13-.03.17-.16.17-.51,0-1.02,0-1.54,0-.08,0-.13,0-.13-.11,0-1.9.01-3.8.02-5.7,0-.01,0-.32,0-.32l-.05.29Z"/><path class="cls-6" d="m28.95,27.62c.6.35.83.9.92,1.55.09.65.06,1.28-.11,1.91-.24.84-.76,1.4-1.65,1.55-.23.04-.47.04-.7.04-.98,0-1.97,0-2.95,0-.14,0-.16-.05-.16-.17,0-3.04,0-6.08,0-9.12,0-.1,0-.16.13-.16,1,0,2,0,3,.01.3,0,.6.02.89.1.61.18,1.01.58,1.19,1.17.24.76.27,1.53,0,2.29-.11.33-.3.6-.58.83Zm-2.69,1.95c0,.26,0,.53,0,.79,0,.06,0,.11.09.1.34,0,.67,0,1.01-.02.38-.03.56-.18.64-.49.05-.21.05-.42.02-.64-.04-.34-.22-.52-.56-.58-.37-.06-.74-.02-1.11-.03-.08,0-.09.04-.09.1,0,.25,0,.51,0,.76Zm0-3.42c0,.24,0,.48,0,.72,0,.08.02.12.11.12.27,0,.55,0,.82,0,.33-.01.52-.15.59-.43.07-.26.07-.52,0-.78-.06-.24-.22-.37-.46-.41-.32-.05-.65-.03-.97-.04-.09,0-.1.04-.1.11,0,.24,0,.47,0,.71Z"/><path class="cls-9" d="m12.6,29.7c.28,0,.55,0,.83,0,.1,0,.15,0,.17.13.06.27.12.55.39.71.29.18.75.15,1-.05.38-.3.34-.97-.23-1.19-.34-.13-.68-.26-1.02-.4-.38-.16-.77-.32-1.1-.57-.35-.27-.56-.64-.72-1.06-.23-.59-.22-1.21-.18-1.82.04-.59.23-1.15.6-1.62.37-.47.87-.75,1.47-.84.48-.07.96-.06,1.43.08.8.24,1.28.81,1.56,1.57.14.37.19.76.23,1.16,0,.08,0,.11-.09.11-.57,0-1.14,0-1.71,0-.14,0-.13-.09-.14-.18-.07-.3-.21-.52-.52-.61-.42-.13-.78.04-.87.41-.09.36.1.69.45.83.57.24,1.17.42,1.72.7.74.38,1.12,1.02,1.27,1.82.06.33.08.65.07.98-.03.69-.15,1.37-.54,1.96-.4.61-.98.93-1.69,1.04-.33.05-.66.06-.99.02-.62-.08-1.17-.33-1.58-.85-.4-.5-.6-1.08-.73-1.69-.04-.18-.03-.37-.05-.56,0-.09.02-.12.11-.11.29,0,.57,0,.86,0h0Z"/><path class="cls-6" d="m18.79,29.7c.28,0,.56,0,.84,0,.08,0,.12.01.14.11.06.27.12.56.39.72.31.18.83.21,1.13-.16.19-.24.18-.73-.16-.95-.22-.14-.46-.21-.7-.31-.55-.21-1.11-.42-1.6-.76-.35-.25-.56-.62-.72-1.03-.24-.6-.23-1.23-.19-1.84.04-.6.23-1.18.61-1.65.39-.48.91-.75,1.54-.83.55-.07,1.09-.03,1.61.19.71.3,1.1.88,1.33,1.59.11.34.15.69.2,1.04.01.08-.02.11-.1.11-.57,0-1.14,0-1.71,0-.14,0-.12-.1-.14-.18-.07-.28-.19-.5-.5-.6-.39-.11-.75-.01-.85.29-.12.39-.03.75.4.93.58.24,1.18.42,1.74.71.73.38,1.11,1.01,1.26,1.8.06.33.08.65.07.98-.03.54-.1,1.08-.33,1.58-.35.77-.92,1.24-1.75,1.4-.79.15-1.55.12-2.25-.34-.38-.25-.63-.61-.83-1.01-.2-.4-.32-.82-.38-1.26-.02-.14-.02-.29-.04-.43-.01-.09.02-.12.11-.12.29,0,.59,0,.88,0Z"/><path class="cls-8" d="m6.38,26.45c1,0,2,0,3,0,.13,0,.16.04.16.16,0,1.32,0,2.63,0,3.95,0,.12-.03.15-.15.15-2.01,0-4.03,0-6.04,0-.12,0-.16-.03-.16-.16,0-1.31,0-2.62,0-3.93,0-.13.04-.17.17-.17,1.01,0,2.01,0,3.02,0Zm1.29,2.13h.01c0-.11,0-.23,0-.34,0-.11-.02-.15-.14-.14-.19,0-.38,0-.57,0-.11,0-.15-.02-.14-.14.01-.2,0-.39,0-.59,0-.1-.03-.12-.12-.12-.22,0-.45,0-.67,0-.1,0-.13.03-.12.13,0,.2,0,.4,0,.61,0,.09-.03.12-.12.11-.21,0-.42,0-.62,0-.08,0-.12.02-.12.11,0,.24,0,.47,0,.71,0,.08.02.12.11.12.12,0,.24,0,.35,0q.39,0,.39.39c0,.15-.05.34.02.42.09.1.29.03.44.03.15,0,.35.07.43-.03.07-.08.02-.28.02-.42,0-.39,0-.39.39-.39.15,0,.35.07.43-.03.07-.08.01-.28.01-.42Z"/><path class="cls-4" d="m2.88,26.15c0-.75,0-1.5,0-2.26,0-.11.03-.14.14-.14.7,0,1.4,0,2.11,0,.12,0,.15.03.15.15,0,.7,0,1.4,0,2.11,0,.11-.02.14-.14.14-.75,0-1.51,0-2.26,0h0Z"/><path class="cls-6" d="m2.88,26.14c0,.76,0,1.53,0,2.29,0,.08-.03.1-.11.1-.73,0-1.45,0-2.18,0-.08,0-.11-.03-.11-.11,0-.73,0-1.46,0-2.19,0-.08.03-.1.11-.1.76,0,1.52,0,2.28,0,0,0,0,0,0,0Z"/><path class="cls-10" d="m39.99,30.89c0,.43,0,.87,0,1.31,0,.04,0,.09,0,.13,0,.05.03.12-.06.12-.1,0-.07-.07-.07-.12,0-.16,0-.33,0-.49,0-.36,0-.72,0-1.08,0-.06-.05-.15.07-.17.11-.01.14.05.17.14.14.4.28.79.43,1.19.03.09.07.19.12.31.1-.28.2-.53.29-.77.1-.27.21-.54.3-.81.03-.09.1-.04.15-.05.07-.01.08.03.08.09,0,.56,0,1.11,0,1.67,0,.05,0,.09-.07.09-.08,0-.07-.05-.07-.1,0-.45,0-.9,0-1.35,0-.05,0-.1,0-.15-.06,0-.06.04-.07.08-.17.47-.35.95-.52,1.42-.02.05-.02.11-.1.1-.07,0-.09-.04-.12-.11-.16-.48-.33-.95-.5-1.42,0-.02,0-.03-.04-.03Z"/><path class="cls-5" d="m40.7,29c.26.1.32.3.3.55-.02.21-.15.33-.32.41-.14.06-.29.03-.43.03-.4,0-.4,0-.4-.4,0-.44,0-.88,0-1.31,0-.11.03-.15.14-.14.17,0,.34,0,.51,0,.22,0,.4.14.44.32.06.25,0,.4-.23.53Zm-.71.46q0,.39.4.39c.05,0,.1,0,.15,0,.18-.02.29-.13.33-.29.05-.27-.09-.46-.37-.49q-.51-.04-.51.39Zm0-.87c0,.08,0,.17,0,.25,0,.06,0,.1.08.1.16,0,.32.02.49-.02.18-.04.27-.14.27-.31,0-.17-.1-.3-.27-.33-.08-.01-.16,0-.23,0q-.32,0-.32.32Z"/><path class="cls-2" d="m46.59,32.63c.07-.01.12-.02.17.08.06.13.18.2.33.18.14-.01.26-.07.32-.21.05-.12.1-.25.07-.41-.12.1-.22.19-.37.19-.19,0-.34-.07-.44-.24-.14-.25-.11-.72.07-.94.16-.19.43-.23.64-.1.05.03.09.12.13-.02.01-.04.11-.05.11.04,0,.39.02.78-.01,1.18,0,.04-.01.08-.01.12-.01.31-.17.48-.49.53-.22.04-.42-.12-.51-.4Zm.9-.9s-.01-.13-.03-.22c-.03-.17-.13-.27-.31-.28-.18-.02-.31.05-.38.21-.09.22-.1.45,0,.67.07.15.19.23.37.21.17-.01.26-.11.31-.26.03-.09.03-.19.04-.33Z"/><path class="cls-2" d="m42.1,23.96c-.09.32-.18.64-.27.95-.02.06-.02.12-.11.12-.1,0-.11-.08-.12-.13-.09-.37-.18-.73-.3-1.09-.01-.04-.02-.08.03-.1.08-.03.1.04.11.09.07.27.14.54.21.81.02.06.04.12.08.18.09-.31.17-.62.26-.93.02-.06,0-.15.11-.15.11,0,.1.08.12.15.09.31.17.61.27.96.1-.36.2-.68.29-1,.02-.06.03-.14.11-.1.08.03.02.09,0,.14-.09.33-.19.66-.29.99-.02.06,0,.17-.12.17-.12,0-.1-.1-.12-.17-.09-.3-.17-.6-.25-.9-.01,0-.02,0-.03,0Z"/><path class="cls-10" d="m49.85,31.27c.24-.23.42-.23.66,0,.05.05.06.04.1-.02.11-.17.29-.18.46-.14.18.04.25.19.26.35.02.3,0,.61.01.91,0,.04,0,.08-.06.08-.06,0-.06-.04-.06-.08,0-.26,0-.52,0-.78,0-.13-.03-.26-.16-.32-.25-.11-.44.02-.46.31-.01.25,0,.49,0,.74,0,.05.03.13-.07.12-.08,0-.05-.07-.06-.12,0-.25,0-.49,0-.74-.01-.33-.2-.42-.43-.32-.13.06-.17.19-.18.32-.01.24,0,.47-.02.71,0,.05.04.14-.06.15-.1,0-.06-.09-.06-.14,0-.34,0-.67,0-1.01,0-.05-.05-.14.04-.16.1-.02.02.11.09.13Z"/><path class="cls-10" d="m40.33,25.06c-.29,0-.46-.11-.57-.38-.02-.04-.09-.1-.01-.14.07-.03.11,0,.14.09.08.22.29.33.52.3.31-.04.45-.33.29-.59-.07-.11-.2-.16-.33-.19-.17-.05-.34-.1-.48-.23-.21-.21-.09-.57.09-.68.18-.11.56-.11.74.06.03.03.06.06.08.09.05.08.12.2.04.25-.11.06-.12-.09-.16-.16-.07-.13-.33-.21-.53-.16-.14.04-.21.17-.2.35,0,.14.09.21.21.26.16.06.33.09.49.17.2.1.3.28.29.49-.02.22-.15.39-.37.45-.08.02-.16.07-.23.03Z"/><path class="cls-10" d="m40.32,27.52c-.3,0-.53-.17-.59-.44,0-.04-.01-.07.03-.08.06-.01.11,0,.13.07.05.17.17.27.34.31.18.05.4-.02.5-.16.09-.13.07-.28-.01-.41-.07-.12-.2-.16-.33-.2-.17-.05-.34-.09-.48-.23-.18-.2-.15-.56.09-.69.17-.1.57-.07.72.06.04.03.08.07.1.11.04.08.12.19.03.25-.1.05-.11-.09-.15-.15-.08-.14-.34-.23-.55-.17-.14.04-.2.17-.19.35.01.14.09.21.21.25.16.06.33.1.48.18.19.1.29.26.28.47-.01.21-.12.37-.33.44-.09.03-.19.08-.28.05Z"/><path class="cls-1" d="m55.23,29.86c-.18.17-.38.22-.61.12-.14-.06-.22-.19-.24-.33-.06-.31-.09-.62.16-.87.14-.14.39-.2.57-.09.15.09.16.03.16-.1,0-.15,0-.3,0-.45,0-.05,0-.09.07-.09.07,0,.06.05.06.09,0,.59,0,1.18,0,1.77,0,.04,0,.09-.06.09-.11,0-.04-.09-.09-.14Zm.04-.54c0-.06,0-.15-.02-.23-.02-.16-.1-.29-.28-.31-.19-.03-.35.03-.42.2-.11.24-.11.48,0,.72.06.14.18.21.34.2.16-.01.27-.09.33-.24.04-.1.03-.21.05-.34Z"/><path class="cls-1" d="m42.81,32.33c-.11.09-.22.17-.37.16-.22,0-.41-.14-.42-.32-.02-.31.1-.47.38-.49.07,0,.14,0,.2,0,.08,0,.19.05.22-.06.03-.11,0-.22-.09-.31-.14-.14-.43-.09-.51.09-.03.06-.05.09-.11.07-.06-.02-.02-.08-.01-.11.05-.17.23-.26.48-.25.22.01.35.13.36.37.02.3,0,.61,0,.91,0,.04,0,.07-.06.08-.11.01-.05-.09-.09-.13Zm-.17-.55c-.06,0-.12,0-.18.01-.03,0-.07.01-.1.02-.14.05-.22.17-.19.31.02.15.12.23.28.23.24,0,.36-.12.39-.37q.02-.21-.19-.21Z"/><path class="cls-1" d="m45.88,32.33c-.11.09-.22.17-.37.16-.21,0-.41-.14-.42-.32-.02-.31.1-.46.37-.49.07,0,.15,0,.22,0,.08,0,.19.05.22-.06.03-.11,0-.22-.09-.31-.14-.14-.43-.09-.51.09-.03.06-.05.09-.11.07-.07-.02-.02-.08-.01-.11.05-.19.21-.27.48-.25.21.02.35.14.36.37.02.3,0,.61,0,.91,0,.04,0,.07-.06.08-.11.01-.05-.09-.09-.13Zm.02-.41s.05-.13-.05-.13c-.16-.01-.33-.02-.48.05-.12.06-.16.17-.14.3.02.13.1.21.23.22.27.03.42-.12.44-.44Z"/><path class="cls-1" d="m52.17,29.86c-.12.11-.23.17-.38.17-.22,0-.41-.15-.41-.32,0-.37.07-.42.37-.49.07-.02.15,0,.22,0,.07,0,.18.04.21-.05.04-.1,0-.21-.06-.3-.13-.16-.44-.12-.53.06-.02.05-.03.1-.1.08-.08-.02-.03-.08-.02-.12.04-.23.29-.26.5-.24.21.02.34.17.34.4,0,.27,0,.55,0,.83,0,.05.03.12-.07.12-.1,0-.05-.08-.08-.14Zm-.2-.54c-.09,0-.19,0-.28.04-.14.05-.2.16-.17.31.02.14.11.23.26.23.24,0,.37-.11.4-.35q.03-.22-.21-.22Z"/><path class="cls-10" d="m42.95,26.33c.11-.06.16-.15.26-.18.33-.07.54.11.56.48.01.25,0,.51,0,.76,0,.04.01.1-.06.1-.08,0-.07-.06-.07-.11,0-.27,0-.54-.01-.81,0-.18-.11-.29-.26-.3-.18-.02-.32.06-.38.23-.04.1-.04.2-.04.3,0,.19,0,.37,0,.56,0,.05.03.13-.06.13-.1,0-.06-.08-.06-.13,0-.57,0-1.13,0-1.7,0-.04-.03-.11.05-.12.09,0,.07.07.07.12,0,.21,0,.42,0,.66Zm0,.03h0s0,0,0,0h0Z"/><path class="cls-2" d="m52.48,31.81c-.11,0-.21,0-.32,0-.12-.01-.13.04-.12.14.03.17.09.33.26.4.18.06.33-.02.43-.17.04-.05.08-.08.12-.05.07.04,0,.09-.01.13-.12.2-.31.26-.53.23-.2-.02-.31-.17-.36-.33-.07-.24-.09-.5.02-.75.1-.23.28-.33.53-.3.21.03.39.22.42.44.03.25.02.26-.24.26-.07,0-.13,0-.2,0Zm-.07-.11c.1,0,.2,0,.3,0,.05,0,.09,0,.09-.07,0-.16-.13-.35-.29-.39-.17-.05-.34.03-.42.2-.11.23-.09.26.16.26.05,0,.1,0,.15,0Z"/><path class="cls-2" d="m47.04,29.35c-.09,0-.18,0-.27,0-.17,0-.2.03-.15.2.04.15.11.3.28.34.17.05.31-.03.4-.17.04-.06.08-.09.13-.05.05.04,0,.09-.03.13-.12.19-.3.25-.52.22-.2-.02-.31-.16-.36-.32-.07-.24-.09-.5.02-.75.12-.29.33-.33.54-.31.2.02.37.22.41.44.04.25.02.27-.23.27-.07,0-.15,0-.22,0Zm-.06-.11c.1,0,.2,0,.3,0,.05,0,.09,0,.09-.07,0-.16-.13-.35-.29-.39-.17-.05-.34.03-.41.2-.11.23-.09.26.16.26.05,0,.1,0,.15,0Z"/><path class="cls-2" d="m48.72,31.81c-.1,0-.2,0-.3,0-.12-.01-.13.04-.12.14.03.17.09.33.26.4.17.06.32-.01.42-.16.04-.05.08-.1.13-.06.07.05,0,.1-.02.14-.12.19-.31.24-.53.22-.2-.02-.31-.17-.36-.33-.07-.24-.08-.5.02-.75.12-.29.33-.33.55-.3.21.03.38.23.4.46q.02.24-.22.24c-.08,0-.16,0-.24,0Zm-.04-.11h0c.1,0,.2,0,.3,0,.05,0,.08-.01.08-.08,0-.17-.14-.36-.31-.39-.18-.04-.34.06-.41.24-.08.21-.07.23.15.23.06,0,.12,0,.18,0Z"/><path class="cls-10" d="m44.28,26.82c0-.21.04-.39.2-.54.19-.18.5-.18.69,0,.3.28.26.93-.07,1.17-.24.18-.58.1-.72-.17-.09-.17-.1-.23-.1-.45Zm.96,0c0-.12-.02-.27-.11-.4-.16-.22-.46-.21-.61,0-.14.21-.13.61.02.81.17.22.48.2.62-.03.06-.11.08-.23.09-.38Z"/><path class="cls-10" d="m46.85,26.81c0,.34-.14.62-.36.68-.42.12-.6-.04-.7-.42-.07-.27-.06-.57.17-.79.23-.23.62-.18.79.1.08.14.12.29.1.43Zm-.95,0c0,.13.02.26.09.37.08.14.19.22.35.21.17,0,.27-.1.33-.24.07-.18.08-.36.03-.54-.06-.22-.21-.35-.4-.34-.19,0-.31.12-.37.35-.02.06-.02.13-.03.2Z"/><path class="cls-10" d="m49.92,26.81c0,.34-.14.62-.36.68-.42.12-.6-.04-.7-.42-.07-.27-.06-.57.17-.79.23-.23.62-.18.79.1.08.14.12.29.1.43Zm-.95,0c0,.13.02.26.08.37.07.14.19.22.35.21.17,0,.27-.1.33-.24.07-.17.08-.35.04-.53-.05-.23-.21-.37-.4-.36-.19,0-.32.12-.38.36-.01.06-.02.12-.03.18Z"/><path class="cls-2" d="m45.74,25.07c-.2.02-.32-.1-.41-.25-.02-.04-.08-.1,0-.14.07-.04.09.03.12.08.11.18.27.24.45.16.1-.04.16-.12.16-.23,0-.11-.05-.18-.15-.21-.12-.04-.24-.1-.37-.13-.16-.04-.2-.17-.22-.3-.02-.13.08-.23.17-.31.17-.13.53-.04.63.16.02.05.07.11,0,.15-.06.04-.11-.02-.13-.07-.07-.15-.19-.17-.33-.16-.12,0-.19.07-.21.18-.02.1.03.18.13.22.12.04.23.07.35.11.2.08.28.21.25.4-.02.17-.17.31-.35.33-.04,0-.08,0-.12,0Z"/><path class="cls-2" d="m48.36,30.03c-.25,0-.39-.11-.44-.29-.02-.05-.03-.09.02-.11.05-.02.08,0,.1.06.07.17.21.23.38.21.13-.02.22-.08.25-.21.02-.13-.04-.21-.15-.26-.12-.05-.24-.1-.37-.13-.17-.05-.2-.18-.21-.32-.01-.13.14-.28.28-.31.23-.06.46.04.54.23.02.04.04.09,0,.12-.05.03-.1,0-.12-.05-.07-.14-.18-.18-.33-.18-.13,0-.2.06-.22.18-.02.11.04.19.15.23.11.04.22.07.33.11.19.08.27.2.25.39-.02.17-.15.32-.34.34-.04,0-.09,0-.11,0Z"/><path class="cls-2" d="m49.68,30.03c-.25,0-.39-.11-.44-.29-.02-.05-.03-.09.02-.11.05-.02.08,0,.1.06.07.17.21.23.38.21.13-.02.22-.08.25-.21.02-.13-.04-.21-.16-.26-.12-.05-.24-.1-.37-.13-.17-.05-.2-.19-.21-.32-.01-.13.14-.28.28-.31.23-.06.46.04.54.23.02.04.04.09,0,.12-.05.03-.1,0-.12-.05-.07-.15-.19-.19-.34-.18-.12,0-.19.07-.21.18-.02.1.03.18.13.22.12.04.23.07.35.11.19.08.27.2.25.39-.02.17-.15.31-.34.34-.04,0-.09,0-.11,0Z"/><path class="cls-2" d="m44.42,25.07c-.2.02-.32-.1-.41-.25-.02-.04-.08-.1,0-.14.07-.03.09.03.12.08.11.18.27.23.45.15.1-.05.16-.12.16-.23,0-.11-.05-.18-.15-.21-.12-.04-.24-.1-.37-.13-.16-.04-.2-.17-.22-.3-.02-.13.08-.23.17-.3.18-.13.53-.03.63.16.02.05.07.11,0,.15-.06.04-.11-.02-.13-.07-.07-.15-.19-.17-.33-.16-.12,0-.19.07-.21.18-.01.1.03.18.14.22.12.04.23.07.35.11.2.08.28.21.25.4-.02.17-.17.31-.35.33-.04,0-.08,0-.12,0Z"/><path class="cls-2" d="m43.36,30.03c-.25,0-.41-.12-.44-.29,0-.04-.05-.09.02-.11.05-.01.09.01.1.06.07.19.22.22.4.2.12-.01.2-.07.22-.19.02-.12-.01-.23-.14-.28-.1-.04-.21-.07-.32-.11-.21-.08-.29-.19-.26-.38.03-.18.17-.29.37-.3.22,0,.4.1.44.27,0,.03.02.07-.02.09-.06.03-.1,0-.12-.06-.07-.15-.19-.18-.34-.17-.12,0-.19.07-.21.18-.01.1.03.18.14.22.12.04.23.07.35.11.19.08.27.2.25.39-.02.17-.15.31-.34.34-.04,0-.09,0-.11,0Z"/><path class="cls-1" d="m43.74,31.28c.1-.08.18-.17.31-.18.28-.01.47.14.48.42.01.28,0,.56,0,.84,0,.05,0,.09-.07.09-.07,0-.06-.05-.06-.1,0-.24,0-.48,0-.72,0-.28-.14-.41-.36-.39-.16.01-.31.17-.32.36-.01.24,0,.48-.02.72,0,.05.03.14-.07.13-.09,0-.05-.09-.05-.14,0-.34,0-.68,0-1.03,0-.05-.04-.13.04-.14.1-.02.03.1.1.13Z"/><path class="cls-1" d="m53.5,31.8c0-.19,0-.38,0-.57,0-.04-.01-.08.05-.08.05,0,.05.03.05.07,0,.09.05.07.09.03.15-.16.34-.17.52-.09.19.09.23.27.23.47,0,.24,0,.48,0,.72,0,.05.02.11-.06.11-.08,0-.06-.06-.06-.11,0-.24,0-.48,0-.72-.01-.28-.16-.42-.39-.38-.15.02-.28.18-.29.37-.01.24-.01.48-.02.72,0,.05.03.13-.07.12-.08,0-.05-.08-.05-.12,0-.18,0-.36,0-.54Z"/><path class="cls-1" d="m41.48,26.83c0,.15.02.29.11.42.14.21.44.2.57-.02.01-.02.02-.05.04-.08.02-.05.07-.07.11-.04.05.03.01.07,0,.1-.08.21-.26.33-.47.31-.18-.01-.42-.13-.46-.38-.06-.33-.08-.64.19-.9.14-.13.3-.13.47-.09.16.04.25.16.3.31,0,.03.03.07-.02.09-.04.01-.08,0-.1-.03,0-.02-.01-.04-.02-.06-.13-.25-.44-.27-.6-.04-.08.12-.11.26-.1.4Z"/><path class="cls-1" d="m45.16,28.81c.1-.08.21-.18.37-.17.24.01.41.15.42.41.02.29,0,.57,0,.86,0,.04,0,.08-.06.08-.07,0-.07-.04-.07-.09,0-.21,0-.42,0-.62,0-.07,0-.14,0-.2-.04-.22-.15-.31-.33-.3-.18,0-.32.15-.34.35-.03.25-.02.49-.02.74,0,.05.03.13-.07.12-.08,0-.05-.08-.05-.12,0-.35,0-.7,0-1.05,0-.05-.04-.13.04-.14.1-.02.03.1.1.13Z"/><path class="cls-1" d="m52.89,29.32c0-.19,0-.37,0-.56,0-.03-.02-.08.05-.09.05,0,.05.03.06.06,0,.12.07.06.1.02.14-.16.32-.16.49-.09.18.07.24.24.24.43,0,.26,0,.52,0,.78,0,.05.02.11-.06.11-.08,0-.06-.06-.06-.11,0-.24,0-.48,0-.73-.01-.27-.15-.41-.37-.38-.15.02-.28.17-.3.36-.03.25-.02.49-.02.74,0,.04.02.11-.06.12-.09,0-.06-.07-.06-.11,0-.19,0-.37,0-.56Z"/><path class="cls-5" d="m42.28,29.86c-.21.18-.44.22-.61.11-.1-.06-.14-.16-.15-.26-.01-.31-.01-.62-.01-.93,0-.05-.02-.11.07-.11.07,0,.05.06.05.1,0,.25,0,.51,0,.76,0,.28.15.4.39.35.15-.03.25-.15.27-.34.01-.25.01-.49.02-.74,0-.05-.03-.13.06-.13.09,0,.05.08.05.13,0,.35,0,.7,0,1.04,0,.05.04.12-.04.14-.1.02-.06-.08-.1-.13Z"/><path class="cls-2" d="m55.09,31.8c0-.11,0-.21,0-.32,0-.11.04-.25-.16-.23-.04,0-.06-.03-.06-.07,0-.03.02-.05.05-.05.2.03.15-.11.16-.22,0-.07-.05-.19.06-.19.12,0,.07.12.06.18-.01.16.02.26.21.22.04,0,.08,0,.08.06,0,.05-.04.07-.08.06-.22-.04-.21.09-.21.24,0,.22,0,.44,0,.66,0,.13.04.2.18.19.04,0,.09-.01.09.05,0,.05-.03.08-.08.09-.18.04-.32-.07-.32-.26,0-.07,0-.15,0-.22,0-.07,0-.15,0-.22Z"/><path class="cls-5" d="m50.49,26.89c0-.15,0-.3,0-.45,0-.09,0-.16-.12-.14-.04,0-.08,0-.09-.05,0-.07.04-.07.09-.07.1.01.12-.04.12-.13,0-.08,0-.17,0-.25.02-.21.18-.31.38-.26.03,0,.05.02.05.05,0,.05-.02.07-.07.08-.24.07-.26.1-.27.34,0,.12.02.18.15.17.05,0,.13-.03.13.06,0,.09-.08.07-.13.06-.11,0-.14.04-.14.14,0,.31,0,.62,0,.93,0,.05.03.13-.06.13-.09,0-.05-.08-.06-.13,0-.16,0-.31,0-.47Z"/><path class="cls-5" d="m47.5,26.52c0,.28,0,.55,0,.83,0,.05.04.14-.06.14-.09,0-.05-.09-.05-.13,0-.56,0-1.11,0-1.67,0-.05-.04-.14.06-.14.09,0,.06.08.06.13,0,.28,0,.56,0,.84h0Z"/><path class="cls-5" d="m43.52,24.39c0,.18,0,.36,0,.54,0,.04.01.1-.06.1-.07,0-.06-.05-.06-.1,0-.37,0-.74,0-1.11,0-.04-.02-.11.06-.11.07,0,.05.06.05.1,0,.19,0,.38,0,.57Z"/><path class="cls-5" d="m44.31,29.32c0-.19,0-.37,0-.56,0-.04-.01-.1.06-.09.06,0,.05.05.05.09,0,.38,0,.76,0,1.15,0,.04,0,.08-.06.08-.07,0-.06-.05-.06-.09,0-.19,0-.38,0-.57Z"/><path class="cls-1" d="m44.42,28.17s.03.12-.05.12c-.09,0-.05-.08-.05-.13,0-.04-.03-.12.04-.12.09,0,.04.08.06.13Z"/><path class="cls-1" d="m43.51,23.21s.03.12-.05.12c-.09,0-.05-.08-.05-.13,0-.04-.03-.12.04-.12.09,0,.04.08.06.13Z"/><path class="cls-3" d="m7.67,28.59c0,.15.06.34-.01.42-.09.1-.29.03-.43.03-.39,0-.39,0-.39.39,0,.15.05.34-.02.42-.09.1-.28.03-.43.03-.15,0-.35.07-.44-.03-.07-.08-.02-.28-.02-.42q0-.39-.39-.39c-.12,0-.24,0-.35,0-.09,0-.12-.03-.11-.12,0-.24,0-.47,0-.71,0-.09.04-.11.12-.11.21,0,.42,0,.62,0,.09,0,.12-.03.12-.11,0-.2,0-.4,0-.61,0-.09.02-.13.12-.13.22,0,.45,0,.67,0,.09,0,.13.02.12.12,0,.2,0,.39,0,.59,0,.12.04.14.14.14.19,0,.38,0,.57,0,.12,0,.15.04.14.14,0,.11,0,.22,0,.34h-.01Z"/><polygon class="cls-7" points="42.94 26.36 42.95 26.36 42.95 26.36 42.94 26.36"/></svg>