<?xml version="1.0" encoding="UTF-8"?>
<svg id="Layer_1" xmlns="http://www.w3.org/2000/svg" xmlns:xlink="http://www.w3.org/1999/xlink" viewBox="0 0 120 60">
  <defs>
    <style>
      .cls-1 {
        fill: none;
      }

      .cls-2 {
        clip-path: url(#clippath-1);
      }

      .cls-3 {
        fill: #20386c;
      }

      .cls-4 {
        clip-path: url(#clippath);
      }
    </style>
    <clipPath id="clippath">
      <rect class="cls-1" y="3.13" width="120" height="53.75"/>
    </clipPath>
    <clipPath id="clippath-1">
      <rect class="cls-1" y="3.13" width="120" height="53.75"/>
    </clipPath>
  </defs>
  <g id="Vector_Smart_Object">
    <g class="cls-4">
      <g class="cls-2">
        <g>
          <path class="cls-3" d="M7.48,43.31c-1.75,0-3.98.24-5.43.24-.3,0-1.09,0-1.09-.6,0-.47.43-1.03,2.23-1.33,1.33-.24,2.72-.43,2.72-3.92V9.35c0-1.15-2.53-1.03-4.11-1.15-1.39-.13-1.82-.13-1.82-.79,0-1.03,1.63-1.03,2.35-1.03h5.49c2.95,0,5.79-.35,9.65-.35,12.66,0,22.91,6.27,22.91,20.81,0,9.05-8.32,16.47-18.69,16.47,0,0-14.21,0-14.21,0ZM11.1,35.76c0,4.22,3.81,6.09,7.74,6.09,4.71,0,15.93-3.92,15.93-16.17S23.65,7.83,16.17,7.83c-4.94,0-5.07,1.09-5.07,1.93v26.01h0Z"/>
          <path class="cls-3" d="M45.73,35.81c0-3.68.13-9.28.13-12.85,0-.84-1.03-.96-1.75-1.15-1.45-.35-1.82-.47-1.82-.9,0-.54.66-.54,1.5-.54s1.69.13,2.59.13c.84,0,1.75-.13,2.65-.13.79,0,.9.3.9,1.15,0,5.37-.13,10.74-.13,16.11,0,2.46,1.82,3.87,4.77,3.87,6.69,0,7.18-2.84,7.23-5.31,0-4.28.13-8.62.13-12.92,0-.73-.3-.73-3.14-1.45-.47-.13-1.75-.47-1.75-.96,0-.35.66-.47,1.33-.47,1.03,0,2.05.13,3.08.13,1.2,0,2.35-.13,3.55-.13.65-.05,1.22.43,1.26,1.07v.19c0,6.09-.24,12.19-.24,18.27,0,1.26,1.03,1.45,1.56,1.45,2.35,0,3.14,0,3.14.6,0,.47-.3.6-1.2.73-4.22.66-6.69,1.2-7.25,1.2-.47,0-.47-.43-.47-.96v-1.39c0-.49-.13-.73-.43-.73-.96,0-3.55,3.55-8.43,3.55-5.67.02-7.23-3.43-7.23-8.56"/>
          <path class="cls-3" d="M75.71,8.98c0-3.19-2.95-2.18-2.95-3.32,0-.43.43-.54,1.26-.84l4.11-1.56c.33-.11.68-.14,1.03-.13.3,0,.66.17.66,1.09v24.79c0,.66.13.96.54.96.6,0,9.84-5.43,9.84-6.52,0-1.56-2.29-1.56-2.29-2.46,0-.3.47-.6.84-.6,1.26,0,3.08.13,4.64.13s3.32-.13,4.52-.13c.54,0,1.15.13,1.15.73,0,.66-2.12,1.09-2.95,1.45-1.75.79-11.64,6.52-11.64,7.18.03.33.21.65.47.84l10.44,9.49c2.46,2.23,4.77,2.05,4.77,2.89,0,.3-.6.6-1.56.6-1.26,0-2.84-.24-4.64-.24-1.56,0-3.02.24-4.47.24-1.26,0-1.82-.06-1.82-.6s.73-.73,1.75-.84c.6-.06,1.15-.43,1.15-.84,0-.3-.3-.6-.66-.96l-9.13-8.65c-.14-.16-.33-.28-.54-.35-.24,0-.43.06-.43.3v8.57c0,1.33.79,1.75,1.33,1.93.96.3,1.75.3,1.75.84,0,.47-.79.6-1.39.6-1.45,0-2.72-.24-4.04-.24-1.45,0-3.32.24-4.34.24-.35,0-1.45-.06-1.45-.6s.49-.66,1.09-.84c1.69-.47,2.95-.3,2.95-2.84V9h0l.02-.02Z"/>
          <path class="cls-3" d="M104.07,29.32c-.13.69-.16,1.41-.13,2.12,0,5.07,1.39,10.07,8.75,10.07,4.64,0,4.77-2.42,5.73-2.42.27-.03.52.17.54.44v.05c0,.43-2.54,4.83-8.81,4.83-6.63,0-10.44-4.71-10.44-12.25,0-5.67,3.52-12.73,10.97-12.73,6.93,0,9.28,5.91,9.28,8.51,0,1.09-.19,1.39-1.2,1.39h-14.73l.03-.02ZM116.02,24.55c0-2.05-1.93-3.68-4.47-3.68-4.34,0-6.93,4.22-6.93,6.09,0,.43.13.54,5.26.54s6.14-.79,6.14-2.95h0Z"/>
          <path class="cls-3" d="M5.4,56.87c-1.55,0-2.54-1.28-2.54-3.09s.99-3.11,2.54-3.11c.84-.06,1.64.38,2.05,1.12l-.81.51c-.24-.47-.73-.76-1.25-.73-1.06,0-1.61.85-1.61,2.19s.57,2.19,1.61,2.19c.55.03,1.06-.27,1.33-.74l.74.51c-.43.74-1.23,1.18-2.08,1.15"/>
          <path class="cls-3" d="M11.62,56.87c-1.55,0-2.54-1.28-2.54-3.09s.99-3.11,2.54-3.11,2.56,1.28,2.56,3.11-.99,3.09-2.56,3.09M11.62,51.57c-1.06,0-1.63.85-1.63,2.19s.57,2.19,1.63,2.19,1.63-.85,1.63-2.19-.57-2.19-1.63-2.19"/>
          <path class="cls-3" d="M19.53,54.33l1.23,2.46h-1.06l-1.2-2.38h-1.34v2.38h-.88v-6.02h2.64c1.06,0,1.93.55,1.93,1.8.06.84-.51,1.59-1.33,1.77M18.92,51.65h-1.75v1.93h1.75c.6,0,1.03-.32,1.03-.96.03-.51-.36-.95-.87-.98h-.16"/>
          <path class="cls-3" d="M25.45,54.54h-1.56v2.24h-.9v-6.02h2.51c1.11,0,1.93.63,1.93,1.88s-.82,1.89-1.99,1.89M25.48,51.62h-1.61v2.07h1.61c.51.06.98-.32,1.03-.82v-.24c.05-.52-.35-.98-.87-1.01h-.16"/>
          <path class="cls-3" d="M31.72,56.87c-1.55,0-2.54-1.28-2.54-3.09s.99-3.11,2.54-3.11,2.56,1.28,2.56,3.11-.99,3.09-2.56,3.09M31.72,51.57c-1.06,0-1.63.85-1.63,2.19s.57,2.19,1.63,2.19,1.63-.85,1.63-2.19-.57-2.19-1.63-2.19"/>
          <path class="cls-3" d="M39.62,54.33l1.23,2.46h-1.06l-1.2-2.38h-1.36v2.38h-.88v-6.02h2.64c1.06,0,1.93.55,1.93,1.8.06.84-.51,1.59-1.31,1.77M38.98,51.65h-1.75v1.93h1.75c.6,0,1.03-.32,1.03-.96.03-.51-.36-.95-.87-.98h-.16"/>
          <path class="cls-3" d="M47.07,56.78l-.51-1.42h-2.4l-.51,1.42h-.93l2.16-6.02h.95l2.19,6.02h-.96ZM45.81,53.16c-.14-.43-.38-1.12-.46-1.37-.06.25-.28.95-.44,1.41l-.47,1.37h1.86l-.49-1.41Z"/>
          <polygon class="cls-3" points="51.51 51.65 51.51 56.78 50.61 56.78 50.61 51.65 48.85 51.65 48.85 50.76 53.26 50.76 53.26 51.65 51.49 51.65 51.51 51.65"/>
          <polygon class="cls-3" points="55.17 56.78 55.17 50.76 59.04 50.76 59.04 51.65 56.07 51.65 56.07 53.13 57.79 53.13 57.79 54 56.07 54 56.07 55.89 59.16 55.89 59.16 56.78 55.17 56.78 55.17 56.78"/>
          <polygon class="cls-3" points="64.48 56.78 64.48 50.76 68.35 50.76 68.35 51.65 65.37 51.65 65.37 53.13 67.12 53.13 67.12 54 65.4 54 65.4 55.89 68.49 55.89 68.49 56.78 64.48 56.78 64.48 56.78"/>
          <path class="cls-3" d="M72.08,56.78h-1.64v-6.02h1.64c1.61,0,2.92.88,2.92,3s-1.36,3.02-2.92,3.02M72.08,51.65h-.74v4.26h.74c1.42,0,2.01-.87,2.01-2.13s-.58-2.13-2.01-2.13"/>
          <path class="cls-3" d="M79.29,56.87c-1.48,0-2.26-.96-2.26-2.62v-3.49h.9v3.46c0,1.14.47,1.75,1.37,1.75s1.41-.58,1.41-1.69v-3.52h.9v3.52c0,1.66-.82,2.57-2.32,2.57"/>
          <path class="cls-3" d="M86.19,56.87c-1.55,0-2.54-1.28-2.54-3.09s.99-3.11,2.54-3.11c.84-.06,1.64.38,2.05,1.12l-.81.51c-.24-.47-.73-.76-1.25-.73-1.06,0-1.61.85-1.61,2.19s.57,2.19,1.61,2.19c.55.03,1.06-.27,1.33-.74l.74.51c-.43.74-1.22,1.18-2.07,1.15"/>
          <path class="cls-3" d="M94.22,56.78l-.51-1.42h-2.4l-.51,1.42h-.93l2.16-6.02h.95l2.19,6.02s-.96,0-.96,0ZM92.95,53.16c-.14-.43-.39-1.12-.46-1.37-.06.25-.28.95-.44,1.41l-.47,1.37h1.86l-.47-1.41h-.02Z"/>
          <polygon class="cls-3" points="98.67 51.65 98.67 56.78 97.77 56.78 97.77 51.65 96 51.65 96 50.76 100.41 50.76 100.41 51.65 98.65 51.65 98.67 51.65"/>
          <rect class="cls-3" x="102.35" y="50.76" width=".9" height="6.02"/>
          <path class="cls-3" d="M107.92,56.87c-1.55,0-2.54-1.28-2.54-3.09s.99-3.11,2.54-3.11,2.56,1.28,2.56,3.11-.99,3.09-2.56,3.09M107.92,51.57c-1.06,0-1.63.85-1.63,2.19s.57,2.19,1.63,2.19,1.64-.85,1.64-2.19-.57-2.19-1.64-2.19"/>
          <path class="cls-3" d="M116.29,56.78l-2.4-3.77c-.14-.22-.35-.58-.44-.74v4.52h-.88v-6.03h.95l2.29,3.66c.16.25.41.71.51.85v-4.5h.87v6.02s-.88,0-.88,0Z"/>
        </g>
      </g>
    </g>
  </g>
</svg>