<?xml version="1.0" encoding="UTF-8"?>
<svg id="Layer_1" xmlns="http://www.w3.org/2000/svg" viewBox="0 0 120 60">
  <defs>
    <style>
      .cls-1 {
        fill: #0fa54a;
      }

      .cls-2 {
        fill: #010101;
      }
    </style>
  </defs>
  <polygon class="cls-2" points="0 48 21.92 48 21.92 41.16 6.9 41.16 6.9 33.41 20.7 33.41 20.7 26.57 6.9 26.57 6.9 18.82 21.92 18.82 21.92 11.98 0 11.98 0 48"/>
  <path class="cls-2" d="M42.96,27.3l-5.8-1.66c-1.96-.52-3.6-1.57-3.6-3.66,0-2.53,2.06-3.66,4.71-3.66,2.32,0,4.48,1.18,5.14,3.5h7.67c-.77-6.12-5.23-10.35-12.45-10.35-6.27,0-11.94,3.91-11.94,10.5,0,5.3,2.73,8.93,8.23,10.42l6.08,1.78c2.52.67,3.7,1.9,3.7,3.91,0,2.47-2.09,3.6-5.14,3.6-3.45,0-5.81-2-6.23-5.04h-7.13c.36,7.15,5.46,11.88,13.33,11.88s12.03-4.38,12.03-10.46-3.05-9.28-8.61-10.77"/>
  <polygon class="cls-1" points="76.06 26.57 69.22 26.57 69.22 33.41 76.06 33.41 76.06 40.23 82.91 40.23 82.91 33.41 82.91 33.39 82.91 26.57 76.06 26.57"/>
  <path class="cls-2" d="M82.9,21.81h0c-1.1-6.27-5.8-10.35-13.33-10.35s-12.23,4.07-13.34,10.35c-.17.99-.25,1.99-.25,2.99v10.39c0,7.98,4.94,13.33,13.59,13.33v-6.84c-3.76,0-6.69-2.32-6.69-6.48v-10.4c-.01-1.03.2-2.05.62-2.99,1.05-2.27,3.34-3.5,6.07-3.5s5.02,1.23,6.09,3.5h0c.11.23.21.48.29.72h7.08c-.06-.25-.09-.48-.13-.72Z"/>
  <path class="cls-1" d="M100.12,40.74c-6.1,0-10.2-3.9-10.2-10.04v-9.19c0-6.14,4.1-10.04,10.2-10.04s9.84,3.53,10.16,9.23h-4.35c-.37-3.41-3.17-4.92-5.81-4.92-2.84,0-5.85,1.75-5.85,5.75v9.17c0,3.98,3.01,5.75,5.85,5.75,2.65,0,5.45-1.5,5.81-4.91h4.35c-.37,5.62-4.35,9.2-10.16,9.2Z"/>
  <path class="cls-1" d="M120,40.33h-4.34V11.88h4.34v28.45Z"/>
</svg>