<?xml version="1.0" encoding="UTF-8"?>
<svg id="Layer_1" xmlns="http://www.w3.org/2000/svg" viewBox="0 0 120 60">
  <defs>
    <style>
      .cls-1 {
        fill: #787878;
      }

      .cls-2 {
        fill: #1e3668;
      }
    </style>
  </defs>
  <g>
    <path class="cls-2" d="M29.19,55.85c-.16-.52-.44-1.11-1.12-1.11-.52,0-.84.38-.84.84,0,.51.33.78,1.03,1.12.78.39,1.43.82,1.43,1.67,0,.91-.77,1.62-1.93,1.62-.31,0-.59-.05-.81-.12-.22-.07-.37-.12-.47-.17-.07-.2-.18-.88-.24-1.34l.28-.08c.15.52.59,1.4,1.39,1.4.55,0,.88-.36.88-.91s-.39-.83-1.01-1.15c-.73-.38-1.4-.81-1.4-1.65s.68-1.55,1.8-1.55c.47,0,.89.14,1.11.21.03.3.08.65.15,1.16l-.26.06h0Z"/>
    <path class="cls-2" d="M33.75,59.88v-.26c.49-.07.54-.16.43-.51-.09-.27-.23-.66-.38-1.05h-1.63c-.11.3-.22.61-.32.94-.14.44-.1.54.5.61v.26h-1.81v-.26c.53-.07.64-.15.92-.85l1.68-4.23.36-.1c.52,1.42,1.04,2.9,1.57,4.31.27.72.38.81.9.88v.26h-2.22ZM33.01,55.77h-.03c-.24.63-.46,1.27-.69,1.88h1.36l-.65-1.88h0Z"/>
    <path class="cls-2" d="M42.44,54.81c-.44.03-.62.14-.66.51-.03.25-.07.63-.07,1.37v3.27h-.34l-3.44-4.16h-.02v1.92c0,.73.03,1.1.06,1.34.04.39.2.52.79.55v.26h-1.98v-.26c.46-.03.65-.15.7-.52.03-.27.07-.64.07-1.37v-1.74c0-.56,0-.67-.16-.86-.16-.21-.33-.27-.7-.3v-.26h1.41l3.24,3.78h.03v-1.64c0-.74-.04-1.12-.06-1.36-.05-.35-.22-.48-.81-.52v-.26h1.97v.26h0Z"/>
    <path class="cls-2" d="M49.15,55.83c-.08-.32-.16-.52-.29-.69-.15-.2-.36-.25-.88-.25h-.48c-.27,0-.3.02-.3.28v1.85h.74c.73,0,.79-.07.89-.6h.27v1.61h-.27c-.09-.56-.16-.64-.89-.64h-.74v1.37c0,.75.07.79.8.85v.26h-2.44v-.26c.62-.06.7-.11.7-.85v-3.11c0-.73-.07-.78-.68-.83v-.27h3.78c0,.2.05.79.09,1.24l-.27.04h0Z"/>
    <path class="cls-2" d="M55.37,59.95c-.07,0-.16,0-.25,0-.88-.04-1.21-.25-1.56-.78-.24-.36-.49-.83-.73-1.24-.13-.25-.28-.34-.6-.34h-.19v1.24c0,.67.07.75.7.8v.26h-2.36v-.26c.63-.06.72-.12.72-.8v-3.2c0-.67-.07-.74-.69-.79v-.27h2.2c.67,0,1.08.08,1.41.29.33.22.55.58.55,1.09,0,.71-.47,1.11-1.03,1.35.13.25.44.8.69,1.17.29.45.47.7.65.88.19.21.34.31.53.37l-.05.25h0ZM52.32,57.27c.38,0,.65-.07.84-.22.29-.24.41-.57.41-.99,0-.88-.52-1.2-1.05-1.2-.21,0-.33.04-.39.08-.06.05-.07.14-.07.33v2.01h.27,0Z"/>
    <path class="cls-2" d="M59.16,59.88v-.26c.49-.07.54-.16.43-.51-.09-.27-.23-.66-.38-1.05h-1.63c-.11.3-.22.61-.32.94-.14.44-.1.54.5.61v.26h-1.81v-.26c.53-.07.64-.15.92-.85l1.68-4.23.36-.1c.52,1.42,1.04,2.9,1.57,4.31.27.72.38.81.9.88v.26h-2.22ZM58.42,55.77h-.03c-.24.63-.46,1.27-.69,1.88h1.36l-.65-1.88h0Z"/>
    <path class="cls-2" d="M67.85,54.81c-.44.03-.62.14-.66.51-.03.25-.07.63-.07,1.37v3.27h-.34l-3.44-4.16h-.02v1.92c0,.73.03,1.1.06,1.34.04.39.2.52.79.55v.26h-1.98v-.26c.46-.03.65-.15.7-.52.03-.27.07-.64.07-1.37v-1.74c0-.56,0-.67-.16-.86-.16-.21-.33-.27-.7-.3v-.26h1.41l3.24,3.78h.03v-1.64c0-.74-.04-1.12-.06-1.36-.05-.35-.22-.48-.81-.52v-.26h1.97v.26h0Z"/>
    <path class="cls-2" d="M73.77,58.49c-.11.39-.32,1.02-.46,1.29-.22.05-.95.21-1.52.21-2.12,0-3.03-1.42-3.03-2.71,0-1.7,1.3-2.86,3.22-2.86.66,0,1.25.17,1.47.22.07.45.12.82.18,1.3l-.29.06c-.25-.93-.83-1.24-1.55-1.24-1.25,0-1.93,1.13-1.93,2.36,0,1.51.84,2.52,2,2.52.75,0,1.22-.44,1.64-1.26l.27.11Z"/>
    <path class="cls-2" d="M74.64,59.88v-.26c.63-.06.7-.11.7-.8v-3.19c0-.7-.07-.75-.7-.8v-.27h2.35v.27c-.63.05-.7.11-.7.8v3.19c0,.69.07.75.7.8v.26h-2.35Z"/>
    <path class="cls-2" d="M80.98,55.85c-.16-.52-.44-1.11-1.12-1.11-.52,0-.84.38-.84.84,0,.51.33.78,1.03,1.12.78.39,1.43.82,1.43,1.67,0,.91-.77,1.62-1.93,1.62-.31,0-.59-.05-.81-.12-.22-.07-.37-.12-.47-.17-.07-.2-.18-.88-.24-1.34l.28-.08c.15.52.59,1.4,1.39,1.4.55,0,.88-.36.88-.91s-.39-.83-1.01-1.15c-.73-.38-1.4-.81-1.4-1.65s.68-1.55,1.8-1.55c.47,0,.89.14,1.11.21.03.3.08.65.15,1.16l-.26.06h0Z"/>
    <path class="cls-2" d="M87.53,58.49c-.11.39-.32,1.02-.46,1.29-.22.05-.95.21-1.52.21-2.12,0-3.03-1.42-3.03-2.71,0-1.7,1.3-2.86,3.22-2.86.66,0,1.25.17,1.47.22.07.45.12.82.18,1.3l-.29.06c-.25-.93-.83-1.24-1.55-1.24-1.25,0-1.93,1.13-1.93,2.36,0,1.51.84,2.52,2,2.52.75,0,1.22-.44,1.64-1.26l.27.11Z"/>
    <path class="cls-2" d="M93.96,57.16c0,1.76-1.26,2.84-2.79,2.84s-2.73-1.19-2.73-2.76c0-1.42,1.02-2.81,2.83-2.81,1.46,0,2.69,1.1,2.69,2.73ZM89.54,57.06c0,1.45.7,2.61,1.79,2.61.83,0,1.52-.76,1.52-2.29,0-1.66-.75-2.62-1.74-2.62-.85,0-1.56.84-1.56,2.3h0Z"/>
  </g>
  <polygon class="cls-1" points="106.76 49.24 12.99 49.24 13.05 48.84 106.82 48.84 106.76 49.24"/>
  <path class="cls-1" d="M90.38,41.11l-1.53-2.09c-.23-.32-.37-.52-.73-.52h-.08v-.23h2.32v.23h-.1c-.21,0-.4.05-.4.18,0,.08.09.18.14.25l1.15,1.62.94-1.36c.14-.22.24-.35.24-.5,0-.16-.33-.18-.44-.18h-.14v-.23h1.59v.23c-.26,0-.47.18-.59.35l-1.42,2.01v1.82c0,.65.23.69.63.69h.15v.23h-2.53v-.23h.15c.45,0,.63-.12.63-.63v-1.63h0Z"/>
  <path class="cls-1" d="M50.43,38.51h-.18c-.28,0-.4.11-.4.21,0,.04.03.15.07.24l1.3,3.39h.02l1.21-3.17c.09-.24.1-.37.1-.43,0-.22-.23-.25-.49-.25h-.13v-.23h1.77v.23h-.26c-.14,0-.28.02-.4.27-.06.11-1.98,4.94-1.98,4.94h-.28l-1.94-4.77c-.15-.36-.3-.43-.64-.43h-.08v-.23h2.3v.23h0Z"/>
  <path class="cls-1" d="M27.31,39.06c0-.55-.28-.56-.59-.56h-.09v-.23h2.36v.23h-.09c-.3,0-.61,0-.61.56v2.63c0,.97.36,1.64,1.45,1.64,1.01,0,1.45-.64,1.45-1.67v-3.39h1.11v.23h-.16c-.21,0-.49,0-.49.56v2.43c0,1.72-.92,2.22-2.05,2.22-1.46,0-2.28-.53-2.28-1.9v-2.75h0Z"/>
  <path class="cls-1" d="M39.77,42.1l.02-.02v-2.86c0-.63-.44-.72-.66-.72h-.17v-.23h2.01v.23h-.11c-.32,0-.66.06-.66.97v4.24h-.27l-3.93-4.38v3.14c0,.66.13.89.72.89h.13v.23h-2.02v-.23h.11c.53,0,.69-.36.69-.97v-3.21c0-.43-.35-.69-.69-.69h-.1v-.23h1.55l3.39,3.82h0Z"/>
  <path class="cls-1" d="M43.46,43.37h.11c.27,0,.56-.04.56-.44v-3.99c0-.4-.29-.44-.56-.44h-.11v-.23h2.32v.23h-.11c-.27,0-.57.04-.57.44v3.99c0,.4.29.44.57.44h.11v.23h-2.32v-.23Z"/>
  <path class="cls-1" d="M55.63,43.37h.11c.27,0,.57-.04.57-.44v-3.99c0-.4-.29-.44-.57-.44h-.11v-.23h3.85l.02,1.2h-.23c-.04-.5-.13-.86-.93-.86h-1.06v2h.91c.46,0,.56-.26.6-.67h.23v1.78h-.23c-.05-.46-.07-.73-.59-.73h-.92v1.78c0,.5.44.5.93.5.92,0,1.32-.03,1.55-.9h.21c-.1.4-.26,1.24-.26,1.24h-4.08v-.23h0Z"/>
  <path class="cls-1" d="M63.13,39.09c0-.56-.3-.58-.54-.58h-.14v-.23h2.41c.96,0,1.81.26,1.81,1.34,0,.69-.46,1.11-1.06,1.34l1.3,1.95c.21.32.37.41.74.46v.23h-1.36s-1.09-1.59-1.59-2.47h-.61v1.63c0,.59.27.61.63.61h.14v.23h-2.42v-.23h.14c.28,0,.54-.13.54-.41v-3.87h0ZM64.11,40.86h.37c.76,0,1.17-.29,1.17-1.19,0-.68-.43-1.11-1.11-1.11-.23,0-.33.02-.44.03v2.27h0Z"/>
  <path class="cls-1" d="M72.66,39.39c-.05-.5-.37-.95-.9-.95-.6,0-.94.36-.94.96,0,1.27,2.29.88,2.29,2.71,0,1.05-.87,1.6-1.84,1.6-.43,0-1.21-.34-1.21-.34l-.13-1.18h.21c.09.65.46,1.19,1.18,1.19.52,0,.94-.33.94-.87,0-1.35-2.24-.93-2.24-2.77,0-.99.7-1.58,1.68-1.58.21,0,1.1.11,1.1.11l.08,1.11h-.21,0Z"/>
  <path class="cls-1" d="M75.82,43.37h.11c.27,0,.56-.04.56-.44v-3.99c0-.4-.29-.44-.56-.44h-.11v-.23h2.32v.23h-.11c-.27,0-.57.04-.57.44v3.99c0,.4.29.44.57.44h.11v.23h-2.32v-.23Z"/>
  <path class="cls-1" d="M81.57,38.66c-.57,0-.55.14-.66.69h-.21v-1.29h.21c.06.23.3.22.5.22h3.93c.21,0,.32,0,.34-.22h.21v1.29h-.21c-.02-.28-.13-.69-.64-.69h-1.25v4.05c0,.59.27.66.63.66h.15v.23h-2.53v-.23h.15c.42,0,.63-.04.63-.64v-4.07h-1.25,0Z"/>
  <path class="cls-2" d="M78.65,30.52v.36h.16c.44,0,.91.12.91.61v.54c0,1.1-.05,2.15-1.33,2.15-2.29,0-3.24-2.11-3.24-4.09s1.06-3.59,3.2-3.59c1.4,0,2.14.52,2.5,1.99l.36-.02-.14-1.66s-.89-.51-1.36-.62c-.47-.11-.7-.21-1.45-.21-2.42,0-4.8,1.45-4.8,4.23s2.03,4.5,4.72,4.5c1.36,0,1.88-.28,2.27-.67l.42.49h.4v-4.01h-2.62,0Z"/>
  <path class="cls-2" d="M51.07,34.17h.17c.43,0,.89-.06.89-.69v-6.31c0-.63-.46-.69-.89-.69h-.17v-.36h6.58l.02,1.89h-.36c-.06-.78-.21-1.36-1.47-1.36h-2.18v3.15h1.43c.72,0,.88-.41.95-1.06h.36v2.85h-.36c-.07-.72-.11-1.19-.94-1.19h-1.44v2.8c0,.78.7.78,1.47.78,1.44,0,2.08-.05,2.44-1.43h.34l-.41,1.95h-6.44v-.36h0Z"/>
  <path class="cls-2" d="M26.7,25.95c2.56,0,4.61,1.59,4.61,4.15,0,2.77-1.99,4.61-4.55,4.61s-4.5-1.73-4.5-4.32,1.94-4.44,4.44-4.44h0ZM26.88,34.19c2.33,0,2.74-2.06,2.74-3.81s-.95-3.89-2.95-3.89c-2.11,0-2.73,1.88-2.73,3.49,0,2.15.99,4.21,2.94,4.21h0Z"/>
  <path class="cls-2" d="M35.36,33.36c0,.48.34.63.72.67.49.04,1.04.04,1.59-.02.51-.06.94-.35,1.16-.65.19-.27.3-.6.37-.87h.35c-.13.69-.3,1.36-.45,2.05h-6.35v-.36h.17c.43,0,.9-.06.9-.81v-6.19c0-.63-.47-.69-.9-.69h-.17v-.36h3.73v.36h-.3c-.46,0-.82.01-.82.65v6.21h0Z"/>
  <path class="cls-2" d="M41.08,34.17h.17c.43,0,.89-.06.89-.69v-6.31c0-.63-.46-.69-.89-.69h-.17v-.36h3.86c2.96,0,4.78,1.66,4.78,4.18s-1.78,4.22-4.47,4.22h-4.18v-.36h0ZM43.67,33.15c0,.84.39.95,1.25.95,2.05,0,3.1-1.71,3.1-3.56,0-3.18-1.61-3.97-3.54-3.97-.28,0-.55.04-.82.06v6.52Z"/>
  <path class="cls-2" d="M67.23,32.16l.02-.02v-4.51c0-.99-.69-1.13-1.05-1.13h-.27v-.36h3.16v.36h-.18c-.51,0-1.05.1-1.05,1.53v6.69h-.41l-6.2-6.91v4.96c0,1.05.21,1.41,1.13,1.41h.21v.36h-3.19v-.36h.17c.83,0,1.08-.57,1.08-1.53v-5.07c0-.67-.55-1.08-1.1-1.08h-.16v-.36h2.45l5.36,6.03h0Z"/>
  <path class="cls-2" d="M84.48,33.75c0,.36.51.42.9.42h.13v.36h-2.76v-.36h.07c.47,0,.87-.28,1.05-.78l1.93-5.52c.16-.45.45-1.49.45-1.49l1.28-.51,2.32,6.59c.15.42.29.87.45,1.23.15.34.4.48.79.48h.07v.36h-2.37l-.93-2.97h-2.73s-.65,1.97-.65,2.19h0ZM86.5,27.48h-.02l-1.12,3.41h2.25l-1.11-3.41h0Z"/>
  <path class="cls-2" d="M92.21,26.74c-.9,0-.87.21-1.05,1.09h-.31v-2.04h.31c.1.36.47.35.79.35h6.38c.33,0,.51.01.54-.35h.33v2.04h-.33c-.02-.45-.2-1.09-1-1.09h-1.97v6.4c0,.93.42,1.04,1,1.04h.23v.36h-3.99v-.36h.23c.66,0,1-.06,1-1.01v-6.43h-2.14,0Z"/>
  <path class="cls-2" d="M100.41,34.17h.17c.43,0,.89-.06.89-.69v-6.31c0-.63-.46-.69-.89-.69h-.17v-.36h6.39l.02,1.89h-.36c-.06-.78-.21-1.36-1.47-1.36h-1.99v3.15h1.43c.72,0,.88-.41.95-1.06h.36v2.85h-.36c-.07-.72-.11-1.19-.94-1.19h-1.44v2.8c0,.78.7.78,1.47.78,1.44,0,2.08-.05,2.44-1.43h.34l-.41,1.95h-6.44v-.36h0Z"/>
  <path class="cls-2" d="M17.93,30.52v.36h.16c.44,0,.91.12.91.61v.54c0,1.1-.05,2.15-1.33,2.15-2.29,0-3.24-2.11-3.24-4.09s1.06-3.59,3.2-3.59c1.4,0,2.14.52,2.5,1.99l.36-.02-.14-1.66s-.89-.51-1.36-.62c-.47-.11-.7-.21-1.45-.21-2.42,0-4.8,1.45-4.8,4.23s2.03,4.5,4.72,4.5c1.36,0,1.88-.28,2.27-.67l.42.49h.4v-4.01h-2.62,0Z"/>
  <path class="cls-2" d="M61.35,8.17l-.02-1.25c0-.16-.3-.35-.67-.35h-1.3c-.37,0-.67.19-.67.35l-.02,1.25s-.02.2.23.2h2.22c.26,0,.23-.2.23-.2h0Z"/>
  <path class="cls-2" d="M60.27,9.46h-.52c-.53,0-.97.19-.98.43l-.03,1.93c0,.11.2.21.45.21h1.63c.25,0,.45-.09.45-.21l-.03-1.93c0-.24-.44-.43-.98-.43Z"/>
  <path class="cls-2" d="M66.15,13.37c-.37-.44-.76-.96-1.17-1.54l1,5.39,1.2.22-1.03-4.06Z"/>
  <path class="cls-2" d="M63.64,9.59l.79,7.33,1.11.21-1.11-6.15c-.27-.43-.53-.89-.79-1.38h0Z"/>
  <path class="cls-2" d="M53.27,14.05c-.66.73-1.12,1.12-1.14,1.14v2.38l.22-.04.92-3.47Z"/>
  <path class="cls-2" d="M63.08,8.42c-.28-.64-.53-1.32-.75-2.03l.11,1.71s.03.08.07.09h.02s.07.06.08.11l.56,8.39.8.15-.89-8.42h0Z"/>
  <path class="cls-2" d="M56.04,16.84l.8-.15.56-8.39s.03-.09.08-.1h.02s.07-.06.07-.1l.11-1.72c-.22.72-.48,1.4-.76,2.04l-.89,8.42h0Z"/>
  <path class="cls-2" d="M66.74,14.05l.92,3.47.22.04v-2.38s-.46-.39-1.14-1.14Z"/>
  <path class="cls-2" d="M52.13,0v13.59c3.87-3.38,5.97-10.36,5.97-10.36l.15-.3h.16l.15.3h2.89l.15-.3h.16l.15.3h0c.06.21,2.16,7.03,5.97,10.36V0h-15.75,0Z"/>
  <path class="cls-2" d="M60.99,4.08h-1.96c-.2,0-.36.24-.36.36l-.02,1v.05c0,.13.31.18.62.18h1.49c.3,0,.62-.05.62-.18v-.05l-.02-1c0-.12-.17-.36-.36-.36h0Z"/>
  <path class="cls-2" d="M61.32,14.66c-.01-.72-.39-1.06-.75-1.06h-1.12c-.45,0-.74.34-.75,1.06l-.03,1.69,1.34-.25,1.34.25-.03-1.69h0Z"/>
  <path class="cls-2" d="M52.83,17.44l1.2-.22,1-5.39c-.4.59-.8,1.1-1.17,1.54l-1.03,4.06Z"/>
  <path class="cls-2" d="M54.47,17.13l1.11-.21.79-7.33c-.25.49-.52.95-.79,1.38l-1.11,6.15h0Z"/>
</svg>