<?xml version="1.0" encoding="UTF-8"?>
<svg id="Layer_1" xmlns="http://www.w3.org/2000/svg" viewBox="0 0 120 60">
  <defs>
    <style>
      .cls-1 {
        fill: #00539a;
      }

      .cls-2 {
        fill: #838381;
      }
    </style>
  </defs>
  <g id="g42">
    <path id="path12" class="cls-2" d="M37.62.08c-1.49.19-3.36.75-4.83,1.46-1.73.82-2.99,1.7-4.35,3-.72.7-.87.87-.79.95.16.15,2.47,1.31,3.48,1.74,1.88.81,3.77,1.41,5.4,1.74.85.17,2.55.37,2.64.32.03-.02.06-2.12.06-4.67V0h-.53c-.3.01-.77.05-1.06.08Z"/>
    <path id="path14" class="cls-2" d="M40.33,4.61c0,2.54.03,4.65.06,4.71.07.1,1.71,0,2.86-.17,2.73-.42,5.48-1.49,8.15-3.18.35-.22.65-.41.66-.43.06-.05-.74-.89-1.39-1.44-2.15-1.87-4.44-3.06-7.11-3.71-.84-.2-2.22-.4-2.83-.4h-.4v4.61Z"/>
    <path id="path16" class="cls-2" d="M26.52,6.67c-.3.39-1.14,1.74-1.46,2.36-.61,1.19-1.17,2.84-1.45,4.2-.16.79-.34,2.53-.27,2.7.04.09,1.08.1,7.93.09l7.9-.02v-5.51l-.89-.09c-1.48-.15-2.79-.43-4.49-.95-1.7-.52-4.45-1.69-6.11-2.61-.43-.24-.82-.43-.86-.43-.04,0-.18.12-.3.27Z"/>
    <path id="path18" class="cls-2" d="M52.1,6.88c-1.42.95-3.42,1.92-5.22,2.54-1.81.62-3.27.9-5.33,1.05l-1.19.08v5.44h15.82v-.74c-.07-2.49-1.17-5.7-2.76-8.01-.27-.4-.56-.74-.62-.75s-.38.17-.71.39Z"/>
    <path id="path20" class="cls-2" d="M23.31,17.2s.04.4.07.82c.26,2.51,1.1,4.96,2.44,7.09.5.8.99,1.43,1.09,1.43.04,0,.87-.39,1.83-.87,3.22-1.61,6-2.54,8.63-2.88.62-.08,1.29-.18,1.47-.21l.33-.05.02-2.71v-2.7s-7.93,0-7.93,0c-4.62,0-7.95.03-7.95.07Z"/>
    <path id="path22" class="cls-2" d="M40.33,19.82c0,2.1.02,2.68.1,2.68.04,0,.56.04,1.13.07,3.87.27,6.98,1.34,10.71,3.68.22.13.44.22.5.2.17-.07,1.17-1.62,1.63-2.53,1.03-2.01,1.63-4.08,1.8-6.18l.05-.6h-15.92v2.68Z"/>
    <path id="path24" class="cls-2" d="M40.37,23.8c-.07.17-.04,8.98.02,9.02.03.02.42,0,.87-.04,3.68-.33,7.24-1.97,9.94-4.57l.75-.72-.2-.18c-.62-.54-3.4-1.97-4.74-2.45-2.04-.73-4.36-1.19-5.99-1.19-.5,0-.62.02-.65.12Z"/>
    <path id="path26" class="cls-2" d="M38.14,23.8c-2.1.27-4.61.97-6.72,1.87-.89.38-2.84,1.33-3.4,1.65l-.33.19.62.62c2.21,2.22,5.13,3.77,8.25,4.39.92.18,2.49.36,2.6.29.03-.02.06-2.07.06-4.56v-4.51h-.42c-.24.01-.53.04-.65.05Z"/>
    <path id="path28" class="cls-1" d="M76.23,37.18l.02,12.85,3.3.02c2.59.01,3.31,0,3.37-.07.03-.05.06-.49.06-.97v-.87l.69.65c1.07,1.03,2.04,1.61,3.3,1.99.58.18.78.2,1.73.2,1.27,0,1.87-.12,2.93-.64,2.41-1.15,4.2-3.62,4.88-6.76.24-1.1.24-3.49,0-4.62-.76-3.65-3.01-6.34-6.07-7.23-.92-.27-2.36-.29-3.31-.04-1.31.35-2.33.93-3.45,2.01l-.71.66v-4.84c-.02-2.67-.03-4.91-.03-4.99,0-.15-.07-.15-3.37-.17h-3.36s.01,12.83.01,12.83ZM87.7,35.95c1.69.82,2.79,3.24,2.56,5.66-.27,2.88-2.18,4.96-4.26,4.63-.71-.11-1.2-.38-1.84-1.01-.47-.46-.64-.7-.91-1.26-.59-1.2-.8-2.46-.65-3.76.22-1.91,1.14-3.51,2.38-4.17.65-.35.77-.37,1.53-.35.59.01.74.05,1.19.27Z"/>
    <path id="path30" class="cls-1" d="M58.31,27.49c0,1.4-.03,2.51-.07,2.61l-.07.19h-3.57v2.65h1.84s1.84.04,1.84.04v8.49s.02,8.49.02,8.49l3.87.02h3.87s0-8.51,0-8.51v-8.53h1.74c1.52,0,1.75-.01,1.78-.12.06-.15.06-2.15,0-2.36-.04-.16-.06-.17-1.77-.18l-1.72-.02-.02-2.6v-2.59h-7.74v2.42Z"/>
    <path id="path32" class="cls-1" d="M24.76,36.12c-.02.05-.03,3.21-.02,7.01l.02,6.91,3.84.02h3.84s.04-.37.04-.37c.02-.21.04-3.37.02-7.01l-.02-6.62-3.85-.02c-3.04-.01-3.86,0-3.88.07Z"/>
    <path id="path34" class="cls-1" d="M36.02,43.05v7.02h3.85s3.84-.04,3.84-.04v-13.97l-3.84-.02h-3.85s0,7.01,0,7.01Z"/>
    <path id="path36" class="cls-1" d="M46.49,43.05v7.02h3.85s3.84-.04,3.84-.04l.02-7.01v-7s-3.85,0-3.85,0h-3.86v7.02Z"/>
    <path id="path38" class="cls-1" d="M68.91,40.2s-.05.96-.05,2.08v2.04l1.47.04c.8.02,1.86.02,2.34,0l.87-.04v-2.07s-.04-2.07-.04-2.07l-2.27-.02c-1.25,0-2.29,0-2.32.04Z"/>
    <path id="path40" class="cls-2" d="M25.05,53.53c-.05.05-.1.17-.1.26v.17h5.72v1.32h-2.08c-1.81,0-2.09.01-2.13.11-.02.07-.03.13,0,.15.01.02.32.12.68.22.8.23,1.25.43,1.55.71.31.29.27.5-.16.71-.44.23-.68.21-.98-.04-.37-.32-.56-.4-.85-.34-.28.05-.36.17-.29.44.07.25.29.37.91.51.58.12.99.3,1.77.8.45.29.54.32.69.25.1-.04.17-.1.17-.12s-.37-.26-.82-.51c-.53-.3-.79-.49-.72-.51.05-.03.27-.1.48-.15.62-.14.89-.43.76-.79-.07-.19-.59-.54-1.05-.72-.19-.07-.37-.16-.39-.19-.02-.04.53-.07,1.23-.07h1.26l.02,1.08.02,1.09.26.12c.14.07.33.14.43.17l.16.04v-4.27h1.71v3.95l.38.16c.22.08.41.15.45.15s.07-.95.08-2.12l.02-2.11,2.55-.02h2.54s0,.72,0,.72v.74h-1.63c-1.62,0-2.01.05-2.01.25,0,.14.86.92,1.08.97.25.07.4-.09.4-.41v-.27l.51-.04c.28-.02.77-.02,1.08,0l.56.04v1.95l.25.11c.13.06.33.12.45.15l.2.04v-4.26h2.38v1.84h-.27c-.39,0-.62.07-.62.19,0,.1.75.65,1.18.87.14.07.32.1.42.08.15-.04.18-.1.18-.34v-.29h2.67v1.54l.25.15.24.15h-.33c-.44,0-.89.13-.89.25,0,.1.51.49.63.49.04,0,.25-.09.46-.2.32-.15.43-.18.62-.12.13.04.28.13.33.22.1.13.09.18-.04.35-.26.32-.79.45-1.74.4-.88-.04-1.25-.14-2.33-.61-.56-.24-.84-.29-.84-.12,0,.07.93.51,1.64.78,1.03.37,2.38.52,3.15.33.35-.09.82-.45.88-.69.07-.27-.22-.62-.71-.83l-.44-.2v-4.23h6.31v.96h-2.34c-1.29,0-2.34.03-2.34.06,0,.04.1.15.21.26.19.18.27.2.71.2.27,0,.5.03.5.06,0,.04-.07.12-.15.2-.22.19-.19.54.06.89.42.58,1.6,1.5,1.92,1.5.09,0,.2-.05.25-.11.06-.07.06-.11.01-.11s-.33-.17-.65-.38c-.59-.39-1-.88-1-1.21,0-.24.42-.67.73-.76.15-.04.68-.07,1.19-.07h.91v2.49l.41.15c.23.09.43.15.45.15.02,0,.04-.96.04-2.13v-2.13h2.38v1.84h-.27c-.39,0-.62.07-.62.19,0,.12.97.8,1.31.91.32.11.46.01.49-.32l.02-.24h2.67l-.02.43c-.01.24,0,.6.02.82.04.37.05.39.35.47.16.05.34.11.4.13.08.03.1-.32.12-2.08l.02-2.12,1.17-.02,1.17-.02v1.85h-.32c-.18,0-.39.05-.47.11-.14.1-.13.11.04.26.28.23.94.65,1.14.73.1.04.25.04.33.02.13-.03.16-.1.16-.32v-.29h1.33c1.51,0,1.43-.04,1.36.65-.01.21,0,.51.01.69.04.3.07.33.36.41.17.05.36.11.41.13.07.04.09-.41.09-2.1v-2.14h1.11v-.44h-19.71c-10.85,0-20.71-.02-21.94-.04-1.79-.04-2.24-.03-2.31.05ZM46.12,54.89v.92h-2.67v-1.84h2.67v.92ZM60.22,54.9l.02.9h-2.76v-1.84h1.36s1.35.04,1.35.04l.02.9ZM67.01,54s.02.43,0,.92l-.02.89h-2.67v-.87c0-.48.02-.9.05-.92.05-.05,2.58-.07,2.63-.02Z"/>
  </g>
</svg>