<?xml version="1.0" encoding="UTF-8"?>
<svg id="Layer_1" xmlns="http://www.w3.org/2000/svg" xmlns:xlink="http://www.w3.org/1999/xlink" viewBox="0 0 120 60">
  <defs>
    <style>
      .cls-1 {
        fill: #d5a62a;
      }

      .cls-2 {
        fill: none;
      }

      .cls-3 {
        clip-path: url(#clippath-1);
      }

      .cls-4 {
        fill: #050508;
      }

      .cls-5 {
        fill: #263d8a;
      }

      .cls-6 {
        fill: #929497;
      }

      .cls-7 {
        clip-path: url(#clippath);
      }
    </style>
    <clipPath id="clippath">
      <rect class="cls-2" y="13.43" width="120" height="33.14"/>
    </clipPath>
    <clipPath id="clippath-1">
      <rect class="cls-2" y="13.43" width="120" height="33.14"/>
    </clipPath>
  </defs>
  <g id="IMT">
    <g class="cls-7">
      <rect class="cls-1" x="10.57" y="34.11" width="1.09" height="4.18"/>
      <polygon class="cls-1" points="12.6 34.11 14.33 34.11 15.2 36.89 15.21 36.89 16.12 34.11 17.78 34.11 17.78 38.29 16.71 38.29 16.73 35.08 16.71 35.08 15.67 38.29 14.66 38.29 13.66 35.08 13.65 35.08 13.67 38.29 12.6 38.29 12.6 34.11"/>
      <polygon class="cls-1" points="19.13 34.93 18.12 34.93 18.12 34.11 21.24 34.11 21.24 34.93 20.23 34.93 20.23 38.29 19.13 38.29 19.13 34.93"/>
      <g class="cls-3">
        <path class="cls-1" d="M15.21,18.11s-.28-.17-.32-.19c-.1-.07-.2-.15-.28-.24-.17-.17-.31-.38-.4-.6-.23-.58-.12-1.21.05-1.79.13-.45.3-.88.5-1.29.07-.14.15-.29.23-.43.02-.03.09-.11.09-.15-.04.55.29,1.03.46,1.52.19.54.41,1.16.34,1.75-.06.48-.27,1.11-.67,1.41"/>
        <path class="cls-1" d="M16.53,20.34c-.02-.37-.22-.7-.42-1.01-.2-.31-.35-.67-.41-1.04-.06-.39.08-.78.27-1.11.11-.19.24-.36.39-.52.02-.02.2-.17.2-.2.17,1.16.86,1.52.73,2.51-.05.37-.17.74-.4,1.03-.09.12-.22.27-.36.33"/>
        <path class="cls-1" d="M15.67,22.74c-.06-.79-.7-1.31-1.27-1.78-.42-.34-.8-.76-1.01-1.28-.23-.56-.2-1.24,0-1.8.09-.27.24-.5.4-.74,0,0,.18.37,1.07,1.04.77.58,1.28,1.47,1.36,2.44.06.72-.15,1.5-.54,2.11"/>
        <path class="cls-1" d="M14.98,24.07c.45-.39,1.15-1.11,1.35-2.06.12-.54.24-1.1.53-1.58.25-.4.67-.66,1.11-.79-.08.42-.05.85,0,1.27.06.45.1.99-.02,1.43-.11.42-.35.77-.67,1.05-.59.54-1.7.81-2.32.68"/>
        <path class="cls-1" d="M12.87,19.31s.36.99.99,1.66c.35.37.76.68,1.11,1.04.38.4.5,1,.22,1.49-.25.44-.81.51-1.26.43-.52-.1-.91-.4-1.17-.87-.23-.43-.35-.92-.4-1.4-.09-.82.18-1.61.51-2.35"/>
        <rect class="cls-1" x="13.49" y="24.45" width="3.39" height=".69"/>
        <rect class="cls-1" x="11.8" y="25.37" width="6.79" height=".92"/>
        <path class="cls-1" d="M23.21,25.12c-.52-1.42-.99-2.88-1.45-4.32-.45-1.39-.88-2.78-1.31-4.18h-1.85c.37,1.28.74,2.55,1.1,3.83.3,1.04.59,2.09.87,3.13.17.62.37,1.32.48,1.96.23,1.36-.22,2.05-1.62,2.05h-3.1v-.84h-2.3v.84h-3.1c-1.4,0-1.85-.68-1.62-2.05.11-.63.32-1.33.48-1.96.28-1.05.57-2.09.87-3.13.36-1.28.73-2.55,1.1-3.83h-1.85c-.43,1.4-.87,2.79-1.31,4.18-.46,1.44-.93,2.9-1.45,4.32-.94,2.56.75,4.71,3.4,4.75.87.01,1.74.03,2.61.02.18,0,.87-.02.87-.02v3.32h2.27v-3.32s.69.01.87.02c.87,0,1.74,0,2.61-.02,2.65-.04,4.34-2.19,3.4-4.75"/>
        <path class="cls-5" d="M2.76,46.57c1.52,0,2.76-1.24,2.76-2.76s-1.24-2.76-2.76-2.76S0,42.29,0,43.81s1.24,2.76,2.76,2.76"/>
        <path class="cls-5" d="M11.05,46.57c1.52,0,2.76-1.24,2.76-2.76s-1.24-2.76-2.76-2.76-2.76,1.24-2.76,2.76,1.24,2.76,2.76,2.76"/>
        <path class="cls-5" d="M19.33,46.57c1.52,0,2.76-1.24,2.76-2.76s-1.24-2.76-2.76-2.76-2.76,1.24-2.76,2.76,1.24,2.76,2.76,2.76"/>
        <path class="cls-5" d="M27.62,46.57c1.52,0,2.76-1.24,2.76-2.76s-1.24-2.76-2.76-2.76-2.76,1.24-2.76,2.76,1.24,2.76,2.76,2.76"/>
        <rect class="cls-4" x="38.67" y="16.9" width=".97" height="4.82"/>
        <path class="cls-4" d="M40.58,18.16h.88v.48h.01c.29-.41.68-.57,1.17-.57.84,0,1.21.59,1.21,1.39v2.24h-.92v-1.9c0-.44,0-1.02-.6-1.02-.67,0-.81.72-.81,1.18v1.74h-.92v-3.56Z"/>
        <path class="cls-4" d="M46.92,18.91c-.28-.1-.49-.15-.83-.15-.25,0-.55.09-.55.39,0,.57,1.61.21,1.61,1.49,0,.83-.74,1.16-1.49,1.16-.35,0-.71-.06-1.05-.15l.06-.76c.29.15.59.23.91.23.23,0,.61-.09.61-.43,0-.7-1.61-.22-1.61-1.5,0-.77.67-1.1,1.39-1.1.43,0,.72.07,1.01.13l-.06.7Z"/>
        <path class="cls-4" d="M48.17,18.84h-.68v-.68h.68v-.71l.92-.3v1.01h.82v.68h-.82v1.66c0,.3.08.59.44.59.17,0,.32-.03.42-.1l.03.73c-.19.05-.41.08-.68.08-.72,0-1.13-.45-1.13-1.15v-1.81Z"/>
        <path class="cls-4" d="M50.58,18.16h.93v3.56h-.93v-3.56ZM50.58,16.63h.93v.88h-.93v-.88Z"/>
        <path class="cls-4" d="M52.71,18.84h-.68v-.68h.68v-.71l.92-.3v1.01h.82v.68h-.82v1.66c0,.3.08.59.44.59.17,0,.32-.03.42-.1l.03.73c-.19.05-.41.08-.68.08-.72,0-1.13-.45-1.13-1.15v-1.81Z"/>
        <path class="cls-4" d="M58.36,21.71h-.88v-.48h-.01c-.28.34-.68.57-1.17.57-.84,0-1.21-.59-1.21-1.39v-2.24h.92v1.9c0,.43,0,1.02.6,1.02.67,0,.81-.73.81-1.18v-1.74h.92v3.56Z"/>
        <path class="cls-4" d="M59.61,18.84h-.68v-.68h.68v-.71l.92-.3v1.01h.82v.68h-.82v1.66c0,.3.08.59.44.59.17,0,.32-.03.42-.1l.03.73c-.19.05-.41.08-.68.08-.72,0-1.13-.45-1.13-1.15v-1.81Z"/>
        <path class="cls-4" d="M64.22,19.59c-.03-.45-.23-.84-.75-.84s-.78.36-.82.84h1.57ZM64.85,21.51c-.34.19-.72.28-1.22.28-1.17,0-1.86-.68-1.86-1.84,0-1.03.55-1.88,1.65-1.88,1.32,0,1.69.9,1.69,2.15h-2.46c.04.57.44.9,1.01.9.45,0,.84-.17,1.18-.36v.75Z"/>
        <path class="cls-4" d="M69.38,21.08c.71,0,.9-.64.9-1.23,0-.55-.29-1.06-.9-1.06s-.89.52-.89,1.06c0,.59.19,1.23.89,1.23M69.38,18.08c1.06,0,1.86.71,1.86,1.88,0,1.02-.68,1.84-1.86,1.84s-1.86-.81-1.86-1.84c0-1.17.81-1.88,1.86-1.88"/>
        <path class="cls-4" d="M72.31,18.84h-.68v-.68h.68v-.5c0-.71.4-1.21,1.13-1.21.23,0,.5.03.68.08l-.08.77c-.08-.05-.2-.12-.4-.12-.31,0-.41.27-.41.55v.44h.81v.68h-.81v2.88h-.92v-2.88Z"/>
        <polygon class="cls-4" points="38.68 25.18 40.23 25.18 41.37 28.83 41.38 28.83 42.53 25.18 44.08 25.18 44.08 30 43.15 30 43.15 26.02 43.14 26.02 41.84 30 40.92 30 39.62 26.02 39.6 26.04 39.6 30 38.68 30 38.68 25.18"/>
        <path class="cls-4" d="M46.35,29.41c.28,0,.5-.12.65-.32.15-.2.19-.46.19-.73h-.4c-.41,0-1.03.07-1.03.61,0,.3.26.43.59.43M45.27,26.63c.36-.17.84-.27,1.24-.27,1.08,0,1.53.45,1.53,1.5v.46c0,.36,0,.63.01.89,0,.27.02.52.04.79h-.81c-.03-.19-.03-.42-.04-.53h-.01c-.21.39-.68.61-1.1.61-.63,0-1.24-.38-1.24-1.06,0-.53.26-.84.61-1.01.35-.17.81-.21,1.19-.21h.51c0-.57-.26-.77-.8-.77-.39,0-.79.15-1.1.39l-.03-.79Z"/>
        <path class="cls-4" d="M48.95,26.44h.88v.48h.01c.29-.41.68-.57,1.17-.57.84,0,1.21.59,1.21,1.39v2.24h-.92v-1.9c0-.44,0-1.02-.6-1.02-.67,0-.81.72-.81,1.18v1.74h-.92v-3.56Z"/>
        <path class="cls-4" d="M54.41,29.41c.28,0,.5-.12.65-.32.15-.2.19-.46.19-.73h-.4c-.41,0-1.03.07-1.03.61,0,.3.26.43.59.43M53.32,26.63c.36-.17.84-.27,1.24-.27,1.08,0,1.53.45,1.53,1.5v.46c0,.36,0,.63.01.89,0,.27.02.52.04.79h-.81c-.03-.19-.03-.42-.04-.53h-.01c-.21.39-.68.61-1.1.61-.63,0-1.24-.38-1.24-1.06,0-.53.26-.84.61-1.01.35-.17.81-.21,1.19-.21h.51c0-.57-.26-.77-.8-.77-.39,0-.79.15-1.1.39l-.03-.79Z"/>
        <path class="cls-4" d="M59.34,28.18c0-.61-.23-1.1-.77-1.1-.63,0-.83.58-.83,1.13,0,.48.26,1.08.79,1.08.58,0,.81-.5.81-1.1M60.27,26.44v3.21c0,.97-.39,1.88-1.88,1.88-.37,0-.79-.06-1.23-.24l.08-.79c.28.15.75.31,1.04.31,1.02,0,1.07-.77,1.07-1.38h-.01c-.17.3-.59.57-1.1.57-1.05,0-1.45-.84-1.45-1.79,0-.86.44-1.84,1.5-1.84.47,0,.84.16,1.09.57h.01v-.48h.88Z"/>
        <path class="cls-4" d="M63.45,27.87c-.03-.45-.23-.84-.75-.84s-.78.36-.82.84h1.57ZM64.07,29.8c-.34.19-.72.28-1.22.28-1.17,0-1.86-.68-1.86-1.84,0-1.03.55-1.88,1.65-1.88,1.32,0,1.69.9,1.69,2.15h-2.46c.04.57.44.9,1.02.9.45,0,.83-.17,1.18-.36v.75Z"/>
        <path class="cls-4" d="M65.05,26.44h.86v.5h.01c.29-.44.71-.58,1.06-.58.5,0,.85.19,1.05.63.21-.43.68-.63,1.11-.63.88,0,1.13.6,1.13,1.39v2.24h-.93v-2.12c0-.33,0-.8-.53-.8-.61,0-.69.73-.69,1.19v1.73h-.92v-2.12c0-.33,0-.8-.53-.8-.61,0-.69.73-.69,1.19v1.73h-.92v-3.56Z"/>
        <path class="cls-4" d="M73.43,27.87c-.03-.45-.23-.84-.75-.84s-.78.36-.82.84h1.57ZM74.05,29.8c-.34.19-.72.28-1.22.28-1.17,0-1.86-.68-1.86-1.84,0-1.03.55-1.88,1.65-1.88,1.32,0,1.69.9,1.69,2.15h-2.46c.04.57.44.9,1.01.9.45,0,.84-.17,1.18-.36v.75Z"/>
        <path class="cls-4" d="M75.03,26.44h.88v.48h.01c.29-.41.68-.57,1.17-.57.84,0,1.21.59,1.21,1.39v2.24h-.92v-1.9c0-.44,0-1.02-.6-1.02-.67,0-.81.72-.81,1.18v1.74h-.93v-3.56Z"/>
        <path class="cls-4" d="M79.55,27.12h-.68v-.68h.68v-.71l.93-.3v1.01h.82v.68h-.82v1.66c0,.3.08.59.43.59.17,0,.32-.03.42-.1l.03.73c-.19.05-.41.08-.68.08-.72,0-1.13-.45-1.13-1.15v-1.81Z"/>
        <polygon class="cls-4" points="84.81 25.94 83.43 25.94 83.43 25.18 87.16 25.18 87.16 25.94 85.78 25.94 85.78 30 84.81 30 84.81 25.94"/>
        <path class="cls-4" d="M89.16,27.87c-.03-.45-.23-.84-.75-.84s-.78.36-.82.84h1.57ZM89.78,29.8c-.34.19-.72.28-1.22.28-1.17,0-1.86-.68-1.86-1.84,0-1.03.55-1.88,1.65-1.88,1.32,0,1.69.9,1.69,2.15h-2.46c.04.57.44.9,1.02.9.45,0,.84-.17,1.18-.36v.75Z"/>
        <path class="cls-4" d="M93.07,27.21c-.17-.08-.34-.13-.63-.13-.57,0-.94.46-.94,1.13s.31,1.16.96,1.16c.26,0,.55-.1.71-.17l.04.77c-.27.08-.55.12-.92.12-1.17,0-1.75-.79-1.75-1.88,0-1.03.61-1.84,1.72-1.84.37,0,.64.04.9.12l-.08.73Z"/>
        <path class="cls-4" d="M93.83,24.82h.93v2.11h.01c.23-.35.63-.57,1.12-.57.84,0,1.21.59,1.21,1.39v2.24h-.93v-1.9c0-.43,0-1.02-.6-1.02-.67,0-.81.72-.81,1.18v1.74h-.93v-5.18Z"/>
        <path class="cls-4" d="M97.98,26.44h.88v.48h.01c.29-.41.68-.57,1.17-.57.84,0,1.21.59,1.21,1.39v2.24h-.92v-1.9c0-.44,0-1.02-.6-1.02-.67,0-.81.72-.81,1.18v1.74h-.93v-3.56Z"/>
        <path class="cls-4" d="M103.83,29.37c.71,0,.9-.64.9-1.23,0-.55-.29-1.06-.9-1.06s-.89.52-.89,1.06c0,.59.19,1.23.89,1.23M103.83,26.36c1.06,0,1.86.71,1.86,1.88,0,1.02-.68,1.84-1.86,1.84s-1.86-.81-1.86-1.84c0-1.17.81-1.88,1.86-1.88"/>
        <rect class="cls-4" x="106.44" y="24.82" width=".92" height="5.18"/>
        <path class="cls-4" d="M109.9,29.37c.71,0,.9-.64.9-1.23,0-.55-.29-1.06-.9-1.06s-.89.52-.89,1.06c0,.59.19,1.23.89,1.23M109.9,26.36c1.06,0,1.86.71,1.86,1.88,0,1.02-.68,1.84-1.86,1.84s-1.86-.81-1.86-1.84c0-1.17.81-1.88,1.86-1.88"/>
        <path class="cls-4" d="M114.83,28.18c0-.61-.23-1.1-.77-1.1-.63,0-.83.58-.83,1.13,0,.48.26,1.08.79,1.08.58,0,.81-.5.81-1.1M115.75,26.44v3.21c0,.97-.39,1.88-1.88,1.88-.37,0-.79-.06-1.23-.24l.08-.79c.28.15.75.31,1.04.31,1.02,0,1.07-.77,1.07-1.38h-.01c-.17.3-.59.57-1.1.57-1.05,0-1.45-.84-1.45-1.79,0-.86.44-1.84,1.5-1.84.47,0,.84.16,1.09.57h.01v-.48h.88Z"/>
        <path class="cls-4" d="M118.19,29.04h.01l.86-2.6h.94l-1.33,3.53c-.3.79-.51,1.56-1.48,1.56-.22,0-.44-.03-.66-.1l.06-.68c.12.04.25.06.48.06.37,0,.6-.25.6-.63l-1.36-3.73h1.02l.86,2.6Z"/>
        <path class="cls-4" d="M40.99,36.7h-.81v-.3h1.15v1.73c-.35.15-.7.21-1.08.21-1.09,0-1.75-.72-1.75-1.8s.68-1.8,1.75-1.8c.26,0,.7.05.93.16l-.04.32c-.27-.15-.59-.18-.89-.18-.9,0-1.41.64-1.41,1.5s.49,1.5,1.41,1.5c.21,0,.57-.02.74-.12v-1.22Z"/>
        <path class="cls-4" d="M42.17,34.56h.31v1.62h0c.13-.28.42-.49.79-.49.68,0,.87.45.87,1.08v1.52h-.31v-1.51c0-.44-.08-.82-.6-.82-.56,0-.75.53-.75.97v1.36h-.31v-3.73Z"/>
        <path class="cls-4" d="M46.36,37.01h-.09c-.54,0-1.19.05-1.19.61,0,.33.24.46.53.46.74,0,.75-.64.75-.92v-.15ZM46.39,37.88h-.01c-.14.3-.49.47-.81.47-.72,0-.84-.49-.84-.72,0-.85.91-.89,1.56-.89h.06v-.13c0-.43-.15-.65-.58-.65-.26,0-.51.06-.75.21v-.3c.19-.09.52-.17.75-.17.63,0,.89.28.89.95v1.12c0,.2,0,.36.03.53h-.31v-.41Z"/>
        <polygon class="cls-4" points="47.19 38.02 48.71 36.02 47.25 36.02 47.25 35.75 49.08 35.75 49.08 36.02 47.55 38.02 49.08 38.02 49.08 38.29 47.19 38.29 47.19 38.02"/>
        <path class="cls-4" d="M49.63,35.75h.31v2.54h-.31v-2.54ZM49.94,35.07h-.31v-.42h.31v.42Z"/>
        <path class="cls-4" d="M52.16,37.01h-.09c-.54,0-1.19.05-1.19.61,0,.33.24.46.53.46.74,0,.75-.64.75-.92v-.15ZM52.19,37.88h-.01c-.14.3-.49.47-.81.47-.72,0-.84-.49-.84-.72,0-.85.91-.89,1.56-.89h.06v-.13c0-.43-.15-.65-.58-.65-.26,0-.51.06-.75.21v-.3c.19-.09.52-.17.75-.17.63,0,.89.28.89.95v1.12c0,.2,0,.36.03.53h-.31v-.41Z"/>
        <path class="cls-4" d="M54.25,35.96c-.57,0-.75.6-.75,1.06s.19,1.06.75,1.06c.6,0,.75-.57.75-1.06s-.15-1.06-.75-1.06M53.19,34.56h.31v1.62h0c.04-.12.29-.49.79-.49.75,0,1.04.56,1.04,1.33s-.35,1.33-1.04,1.33c-.36,0-.62-.14-.79-.46h0v.4h-.31v-3.73Z"/>
        <path class="cls-4" d="M57.41,37.01h-.09c-.54,0-1.19.05-1.19.61,0,.33.24.46.53.46.74,0,.75-.64.75-.92v-.15ZM57.44,37.88h-.01c-.14.3-.49.47-.81.47-.72,0-.84-.49-.84-.72,0-.85.91-.89,1.56-.89h.06v-.13c0-.43-.15-.65-.58-.65-.26,0-.51.06-.75.21v-.3c.19-.09.52-.17.75-.17.63,0,.89.28.89.95v1.12c0,.2,0,.36.03.53h-.31v-.41Z"/>
        <path class="cls-4" d="M59.41,38.08c.56,0,.75-.6.75-1.06s-.19-1.06-.75-1.06c-.6,0-.75.57-.75,1.06s.15,1.06.75,1.06M60.48,38.29h-.31v-.4h0c-.17.32-.43.46-.79.46-.7,0-1.04-.58-1.04-1.33s.3-1.33,1.04-1.33c.5,0,.75.36.79.49h0v-1.62h.31v3.73Z"/>
        <polygon class="cls-4" points="61.39 37.87 61.81 37.87 61.42 38.95 61.11 38.95 61.39 37.87"/>
        <path class="cls-4" d="M64.34,37.99h.28c.98,0,1.63-.4,1.63-1.46s-.63-1.41-1.41-1.41h-.5v2.87ZM64,34.81h.86c1.24,0,1.74.72,1.74,1.73,0,1.26-.84,1.74-1.99,1.74h-.61v-3.47Z"/>
        <path class="cls-4" d="M68.86,36.84c0-.44-.18-.88-.65-.88s-.75.46-.75.88h1.39ZM69.01,38.21c-.22.09-.5.14-.74.14-.84,0-1.15-.57-1.15-1.33s.43-1.33,1.07-1.33c.72,0,1.01.58,1.01,1.26v.16h-1.74c0,.54.29.97.84.97.23,0,.56-.09.71-.19v.32Z"/>
        <rect class="cls-4" x="69.8" y="34.56" width=".31" height="3.73"/>
        <path class="cls-4" d="M70.9,34.56h.31v1.62h0c.13-.28.42-.49.79-.49.68,0,.87.45.87,1.08v1.52h-.31v-1.51c0-.44-.08-.82-.6-.82-.56,0-.75.53-.75.97v1.36h-.31v-3.73Z"/>
        <path class="cls-4" d="M73.66,35.75h.31v2.54h-.31v-2.54ZM73.98,35.07h-.31v-.42h.31v.42Z"/>
        <polygon class="cls-4" points="76.14 34.81 76.57 34.81 78.34 37.87 78.35 37.87 78.35 34.81 78.69 34.81 78.69 38.29 78.23 38.29 76.49 35.29 76.48 35.29 76.48 38.29 76.14 38.29 76.14 34.81"/>
        <path class="cls-4" d="M81.88,35.2c-.22-.11-.53-.15-.78-.15-.9,0-1.41.64-1.41,1.5s.49,1.5,1.41,1.5c.23,0,.58-.03.78-.15l.02.3c-.19.11-.58.15-.8.15-1.09,0-1.75-.72-1.75-1.8s.68-1.8,1.75-1.8c.2,0,.62.03.8.13l-.02.32Z"/>
        <path class="cls-4" d="M83.17,36.35h.36c.4,0,.87-.15.87-.64,0-.57-.4-.6-.88-.6h-.35v1.24ZM82.83,34.81h.9c.62,0,1.02.26,1.02.9,0,.45-.34.75-.77.8h0c.28.05.34.19.45.43l.59,1.34h-.38l-.5-1.17c-.2-.45-.35-.46-.68-.46h-.28v1.64h-.34v-3.47Z"/>
        <rect class="cls-6" x="33" y="16.62" width=".28" height="22.09"/>
      </g>
    </g>
  </g>
</svg>