<?xml version="1.0" encoding="UTF-8"?>
<svg id="Layer_1" xmlns="http://www.w3.org/2000/svg" viewBox="0 0 60 60">
  <defs>
    <style>
      .cls-1 {
        fill: #fff;
      }

      .cls-2 {
        fill: #f58220;
      }

      .cls-2, .cls-3 {
        fill-rule: evenodd;
      }

      .cls-4 {
        font-family: Georgia-Italic, Georgia;
        font-size: 5.47px;
        font-style: italic;
      }

      .cls-3 {
        fill: #046ba6;
      }
    </style>
  </defs>
  <rect class="cls-1" width="60" height="60"/>
  <g>
    <path d="M7.77,49.34v-2.97h.89v2.25h.81c.25,0,.48-.05.66-.15.19-.1.33-.23.44-.41.1-.18.16-.39.16-.63s-.05-.45-.16-.63c-.1-.18-.25-.31-.44-.41-.19-.1-.41-.14-.66-.14h-.7v-.73h.74c.42,0,.78.08,1.1.24.32.16.57.38.74.66.18.28.27.62.27,1.01s-.09.72-.27,1.01c-.18.29-.43.51-.74.67-.32.16-.68.24-1.1.24h-1.74Z"/>
    <path d="M11.73,49.34l1.71-3.83h.87l1.71,3.83h-.93l-1.4-3.38h.35l-1.41,3.38h-.91ZM12.58,48.52l.24-.67h1.97l.24.67h-2.45ZM17.02,49.34v-3.11h-1.22v-.72h3.34v.72h-1.23v3.11h-.89ZM18.92,49.34l1.71-3.83h.88l1.71,3.83h-.93l-1.4-3.38h.35l-1.41,3.38h-.91ZM19.77,48.52l.24-.67h1.97l.24.67h-2.45ZM26.42,49.41c-.31,0-.6-.04-.88-.12-.28-.08-.51-.19-.68-.32l.3-.67c.16.12.36.21.58.29.22.07.45.11.68.11.17,0,.32-.02.42-.05.11-.03.19-.08.24-.14.05-.06.08-.13.08-.21,0-.1-.04-.18-.12-.24-.08-.06-.19-.11-.32-.15-.13-.04-.28-.07-.44-.11-.16-.03-.32-.08-.48-.13-.16-.05-.3-.12-.44-.2-.13-.08-.24-.19-.32-.32-.08-.13-.12-.3-.12-.5,0-.22.06-.42.18-.6.12-.18.3-.32.54-.43.24-.11.54-.16.9-.16.24,0,.48.03.71.08.23.06.44.14.62.25l-.27.67c-.18-.1-.36-.18-.54-.23-.18-.05-.35-.07-.52-.07s-.31.02-.42.06c-.11.04-.19.09-.24.16-.05.06-.07.14-.07.22,0,.1.04.18.12.24s.19.11.32.14c.13.04.28.07.43.11.16.04.32.08.48.13.16.05.3.11.43.19.13.08.24.19.32.32s.12.3.12.5c0,.22-.06.41-.18.59-.12.18-.3.32-.54.43-.24.11-.54.16-.91.16M30.48,49.41c-.3,0-.57-.05-.82-.15-.25-.1-.47-.23-.66-.41-.19-.18-.33-.39-.43-.63-.1-.24-.16-.5-.16-.79s.05-.55.16-.79c.1-.24.25-.45.44-.63.19-.18.41-.32.66-.41.25-.1.53-.15.83-.15.33,0,.63.06.9.17.27.11.49.28.68.51l-.57.52c-.13-.15-.28-.26-.44-.34-.16-.07-.34-.11-.53-.11-.18,0-.34.03-.49.09-.15.06-.28.14-.39.25s-.19.24-.25.39c-.06.15-.09.32-.09.5s.03.35.09.5c.06.15.15.28.25.39.11.11.24.19.39.25.15.06.31.09.49.09.19,0,.36-.04.53-.11.16-.07.31-.19.44-.34l.57.52c-.18.22-.41.39-.68.51-.27.12-.57.17-.91.17M32.66,45.52h.89v3.83h-.89v-3.83ZM35.27,47.06h1.84v.69h-1.84v-.69ZM35.33,48.63h2.08v.71h-2.96v-3.83h2.89v.71h-2.01v2.41ZM38.12,49.34v-3.83h.73l2.26,2.76h-.36v-2.76h.87v3.83h-.73l-2.26-2.76h.36v2.76h-.88ZM44.37,49.41c-.3,0-.57-.05-.82-.15-.25-.1-.47-.23-.66-.41-.19-.18-.33-.39-.44-.63-.1-.24-.16-.5-.16-.79s.05-.55.16-.79c.1-.24.25-.45.44-.63.19-.18.41-.32.66-.41.25-.1.53-.15.83-.15.33,0,.63.06.9.17.27.11.49.28.68.51l-.57.52c-.13-.15-.28-.26-.44-.34-.16-.07-.34-.11-.52-.11-.18,0-.34.03-.49.09-.15.06-.28.14-.39.25-.11.11-.19.24-.25.39-.06.15-.09.32-.09.5s.03.35.09.5c.06.15.14.28.25.39.11.11.24.19.39.25.15.06.31.09.49.09.19,0,.36-.04.52-.11.16-.07.31-.19.44-.34l.57.52c-.18.22-.41.39-.68.51-.27.12-.57.17-.91.17M47.37,47.06h1.84v.69h-1.84v-.69ZM47.43,48.63h2.08v.71h-2.96v-3.83h2.89v.71h-2.01v2.41ZM51.48,49.41c-.31,0-.6-.04-.88-.12-.28-.08-.51-.19-.68-.32l.3-.67c.16.12.36.21.58.29.22.07.45.11.68.11.17,0,.32-.02.42-.05.11-.03.19-.08.24-.14.05-.06.08-.13.08-.21,0-.1-.04-.18-.12-.24-.08-.06-.19-.11-.32-.15-.13-.04-.28-.07-.43-.11-.16-.03-.32-.08-.48-.13-.16-.05-.3-.12-.43-.2-.13-.08-.24-.19-.32-.32-.08-.13-.12-.3-.12-.5,0-.22.06-.42.18-.6.12-.18.3-.32.54-.43.24-.11.54-.16.9-.16.24,0,.48.03.71.08.23.06.44.14.62.25l-.27.67c-.18-.1-.36-.18-.54-.23-.18-.05-.35-.07-.53-.07s-.31.02-.42.06c-.11.04-.19.09-.24.16-.05.06-.07.14-.07.22,0,.1.04.18.12.24.08.06.19.11.32.14.13.04.28.07.44.11.16.04.32.08.48.13.16.05.3.11.44.19.13.08.24.19.32.32.08.13.12.3.12.5,0,.22-.06.41-.18.59-.12.18-.3.32-.54.43-.24.11-.54.16-.91.16"/>
    <path d="M3.9,43.64c-.26,0-.5-.05-.71-.14-.22-.1-.39-.23-.53-.41l.49-.59c.11.14.22.24.33.31.12.07.24.11.38.11.36,0,.54-.21.54-.63v-1.82h-1.35v-.71h2.23v2.48c0,.47-.12.83-.35,1.06-.23.23-.58.35-1.03.35M6.15,39.74h.89v3.83h-.89v-3.83ZM7.95,43.57v-3.83h.73l2.26,2.76h-.36v-2.76h.88v3.83h-.73l-2.26-2.76h.36v2.76h-.88ZM12.37,43.57v-3.83h1.74c.42,0,.78.08,1.1.24.32.16.57.38.74.66.18.28.27.62.27,1.01s-.09.72-.27,1.01c-.18.29-.43.51-.74.67-.32.16-.68.24-1.1.24h-1.74ZM13.25,42.85h.81c.25,0,.48-.05.66-.15.19-.1.33-.23.44-.41.1-.18.16-.39.16-.63s-.05-.46-.16-.63c-.1-.18-.25-.31-.44-.41-.19-.1-.41-.14-.66-.14h-.81v2.37ZM16.33,43.57l1.71-3.83h.87l1.71,3.83h-.93l-1.4-3.38h.35l-1.41,3.38h-.91ZM17.18,42.75l.24-.67h1.97l.24.67h-2.45ZM21.02,43.57v-3.83h.89v3.11h1.92v.72h-2.81ZM27.7,43.64c-.3,0-.57-.05-.82-.14-.25-.1-.47-.23-.66-.41-.19-.18-.33-.39-.43-.63-.1-.24-.16-.51-.16-.79s.05-.55.16-.79c.1-.24.25-.45.44-.63.19-.18.41-.32.66-.41.25-.1.53-.15.83-.15.33,0,.63.06.9.17.27.11.49.28.68.51l-.57.52c-.13-.15-.28-.26-.44-.34-.16-.07-.34-.11-.53-.11-.18,0-.34.03-.49.09-.15.06-.28.14-.39.25-.11.11-.19.24-.25.39-.06.15-.09.32-.09.5s.03.35.09.5c.06.15.15.28.25.39.11.11.24.19.39.25.15.06.31.09.49.09.19,0,.36-.04.53-.11.16-.07.31-.19.44-.34l.57.52c-.18.22-.41.39-.68.51-.27.12-.57.17-.91.17M30.7,41.29h1.84v.69h-1.84v-.69ZM30.76,42.86h2.08v.71h-2.96v-3.83h2.89v.71h-2.01v2.41ZM33.55,43.57v-3.83h.73l2.26,2.76h-.36v-2.76h.88v3.83h-.73l-2.26-2.76h.36v2.76h-.88ZM38.77,43.57v-3.11h-1.22v-.72h3.34v.72h-1.23v3.11h-.89ZM41.35,43.57v-3.83h1.66c.34,0,.64.06.89.17.25.11.44.27.57.48.14.21.2.46.2.74s-.07.53-.2.74c-.13.21-.33.36-.57.47-.25.11-.54.16-.89.16h-1.16l.39-.39v1.45h-.89ZM43.79,43.57l-.96-1.39h.95l.97,1.39h-.96ZM42.24,42.22l-.39-.42h1.12c.27,0,.48-.06.61-.18.13-.12.2-.28.2-.49s-.07-.38-.2-.49c-.13-.12-.34-.17-.61-.17h-1.12l.39-.42v2.17ZM46.19,41.29h1.84v.69h-1.84v-.69ZM46.25,42.86h2.08v.71h-2.96v-3.83h2.89v.71h-2.01v2.41Z"/>
    <text class="cls-4" transform="translate(50.04 43.12)"><tspan x="0" y="0">for</tspan></text>
    <path class="cls-3" d="M29.98,37.12l1.46-.93-11.43-6.64v-7.92l1.49-.85v7.95l11.56,6.69,8.3-4.91v-1.88l-8.29,4.89-1.55-.82,9.93-5.77v-9.72l-11.41-6.64-1.57.93,11.38,6.63v7.85l-1.35.87v-7.93l-11.58-6.65-8.38,4.92v1.83l8.44-4.94,1.43.9-9.87,5.73v9.73l11.43,6.67ZM31.69,28.3h.23v-1.26h1.02v1.02h-1.26v.23ZM30,15.97l3.42,1.97,3.41,1.97v7.89l-3.41,1.97-3.42,1.97-3.41-1.97-3.41-1.97v-7.89l3.41-1.97,3.41-1.97ZM30,17.47l.34.2v8.76s-1.06,0-1.06,0v-2.42h-2.42v2.42h2.42v1.06h1.06v.84h.84v-.84h-.84v-1.06h2.79v-7.15s2.4,1.38,2.4,1.38v6.39l-2.77,1.6-2.77,1.6-2.76-1.6-2.77-1.6v-6.39l2.77-1.6,2.76-1.6Z"/>
    <path class="cls-2" d="M6.82,45.78h1.35v-.26h-1.41c-.37-.71-1.15-.32-1.08.24.06.49.86.72,1.13.02"/>
    <path class="cls-2" d="M7.69,46.02h.48v.09h-.5c-.13.25-.41.11-.39-.09.02-.17.31-.26.4,0"/>
    <path class="cls-2" d="M7.56,45.12h.61v.12h-.63c-.17.32-.52.14-.49-.11.03-.22.39-.32.51,0"/>
  </g>
</svg>