<?xml version="1.0" encoding="UTF-8"?>
<svg id="Layer_1" xmlns="http://www.w3.org/2000/svg" viewBox="0 0 120 60">
  <defs>
    <style>
      .cls-1 {
        fill: #203e75;
      }

      .cls-2 {
        fill: #003e7e;
      }
    </style>
  </defs>
  <path class="cls-2" d="M.31,11.71h119.36v36.58H.31V11.71ZM0,11.39v37.23h120V11.39H0Z"/>
  <g>
    <path class="cls-1" d="M35.59,19.73c-.54-.34-1.64-1.15-2.43-1.14-.81,0-1.56.52-1.77.97-.03.07-.06.13-.08.19-.08.02-.12.04-.12.04,0,0-.22.04-.65.19-.01,0-.03.01-.04.02l1.98-2.54.12.07c.05.01.11.02.17.03.43.04,1.22-.33,1.73-1,.49-.65.65-1.95.76-2.56.11-.61.53-.99.53-.99,0,0-1.26.44-1.97.83-.72.39-1.31,1.07-1.53,1.58-.29.67-.18,1.29-.09,1.64.03.11.06.22.14.3l.13.08c-.78.84-1.53,1.6-2.21,2.27.01-.3.08-.5.08-.5,0,0,.02-.05.04-.14.06-.02.12-.05.18-.08.42-.23.89-1.05.89-1.93s-.77-2.04-1.1-2.61c-.33-.58-.2-1.16-.2-1.16,0,0-.85,1.16-1.24,1.94-.39.78-.46,1.71-.3,2.29.2.74.74,1.19,1.06,1.42.11.08.21.14.34.17,0,.09,0,.17-.02.22-.05.17-.19.59-.33.97-.33.32-.63.63-.91.92l-1.26,1.67c-3.3,4.35-5.59,10.08-3.59,15.7l1.09-1.52c-1.2-5.16.6-9.81,3.12-13.85l1.11-1.59.7-.9c.37-.23.95-.51,1.16-.58.05-.02.13-.03.21-.03.03.13.09.25.16.36.22.35.65.91,1.33,1.12.53.16,1.39.08,2.11-.34.72-.42,1.78-1.34,1.78-1.34,0,0-.53.14-1.07-.2"/>
    <path class="cls-1" d="M30.93,24.24c-.46-.97-.83-1.64-1.83-2.65l-.49-.4c-3.16-2.8-7.51-3.51-10.55-6.72-5.24-.83-10.91.29-16.1-.88,1.92,1.14,4.13,1.92,6.34,2.55,2.75-1.55,6.25-1.63,9.48-1.52l.43.34c1.12,3.3,4.67,3.67,6.99,5.51v.14c-1.98-.23-4.07-.46-6.11-.34-.51-.93-1.33-1.41-2.2-1.61h0c-1.55-.34-3.42.08-4.67-.34l.74.83c.26.09.58-.14.89-.06.52.92,1.38,1.75,2.21,2.47.77.31,1.61,0,2.41,0,3.18,0,6.3.11,9.03,1.23l.66.28c1.26.57,2.58,1.49,3.38,2.75l-.6-1.58ZM15.95,20.5c-.46-.4-.86-.83-.97-1.37.54.11,1.05.24,1.54.43h0c.45.18.97.43,1.35.66-.9,0-.86,1.28-1.92.28"/>
    <path class="cls-1" d="M30.93,40.79c-1.25,2.74-2.99,5.22-5.01,7.5h2.85c1.84-1.87,3.38-4,4.42-6.58,1.49-4.21-.89-8.08-3.78-11.01,1.83,2.81,3.18,6.77,1.52,10.09"/>
    <path class="cls-1" d="M17.59,29.2c-1.48-1.31-10-6.11-10-11.72l-4.54-1.45c2.27,2.88,1.85,3.7,6.98,8.57,5.82,5.53,8.68,7.68,7.23,9.8-.65.95-5.23,2.02-8.63-3.67C6.42,27.03,3.78,21.88.06,18.15v2.87c3.59,5.07,4.88,9.81,7.55,12.14,5.79,5.07,12.07,2.9,12.33.51.17-1.6-.87-3.16-2.36-4.47"/>
    <polygon class="cls-1" points="40.48 16.89 40.48 23.82 44.61 23.82 44.61 24.7 39.44 24.7 39.44 16.89 40.48 16.89"/>
    <rect class="cls-1" x="45.08" y="16.89" width="1.04" height="7.81"/>
    <polygon class="cls-1" points="49.3 24.7 46.56 16.89 47.67 16.89 49.91 23.66 49.93 23.66 52.18 16.89 53.26 16.89 50.49 24.7 49.3 24.7"/>
    <polygon class="cls-1" points="59.08 16.89 59.08 17.76 54.72 17.76 54.72 20.25 58.78 20.25 58.78 21.12 54.72 21.12 54.72 23.82 59.11 23.82 59.11 24.7 53.68 24.7 53.68 16.89 59.08 16.89"/>
    <path class="cls-1" d="M63.51,16.89c.74,0,1.33.18,1.74.55.42.36.63.86.63,1.5,0,.47-.11.89-.32,1.25-.22.36-.56.6-1.03.73v.02c.23.04.41.12.55.22.14.1.25.22.34.37.08.14.15.3.19.48.04.17.07.36.09.55.01.19.03.38.03.58s.03.39.05.58c.03.19.07.37.13.54.05.17.14.32.25.45h-1.16c-.07-.08-.12-.19-.15-.33-.03-.14-.04-.29-.05-.46,0-.17-.01-.36-.02-.55,0-.2-.03-.39-.07-.58-.03-.19-.07-.37-.11-.54-.04-.17-.11-.32-.21-.45s-.22-.23-.37-.31c-.15-.08-.36-.11-.61-.11h-2.54v3.34h-1.04v-7.81h3.68ZM63.73,20.43c.22-.04.41-.11.57-.21.16-.11.3-.25.39-.43.1-.18.15-.41.15-.69,0-.39-.11-.71-.33-.96-.22-.25-.57-.37-1.06-.37h-2.58v2.72h2.17c.24,0,.47-.02.69-.05"/>
    <path class="cls-1" d="M70.35,16.89c.79,0,1.38.2,1.79.61.4.4.61.97.61,1.7s-.2,1.3-.61,1.71c-.4.41-1,.61-1.79.6h-2.38v3.19h-1.04v-7.81h3.42ZM70,20.63c.59,0,1.02-.11,1.3-.36.27-.25.41-.61.41-1.07s-.14-.82-.41-1.07c-.27-.24-.71-.37-1.3-.37h-2.03v2.87h2.03Z"/>
    <path class="cls-1" d="M73.34,19.26c.16-.49.39-.93.71-1.31.31-.38.7-.68,1.17-.91.47-.23,1.01-.34,1.63-.34s1.16.11,1.63.34c.47.23.86.53,1.17.91.31.38.55.82.71,1.31.16.49.23,1,.23,1.54s-.08,1.04-.23,1.54c-.16.49-.39.93-.71,1.31-.31.38-.7.68-1.17.9-.47.22-1.01.33-1.63.33s-1.16-.11-1.63-.33c-.47-.22-.86-.52-1.17-.9-.31-.38-.55-.81-.71-1.31-.16-.49-.24-1-.24-1.54s.08-1.04.24-1.54M74.3,21.96c.1.38.26.73.48,1.03.22.31.5.55.84.74.34.19.75.28,1.23.28s.88-.09,1.22-.28c.34-.19.62-.43.84-.74.22-.31.38-.65.48-1.03.1-.38.15-.77.15-1.16s-.05-.78-.15-1.17c-.1-.38-.26-.73-.48-1.03-.22-.31-.5-.55-.84-.74-.34-.19-.75-.28-1.22-.28s-.88.09-1.23.28c-.34.19-.62.43-.84.74-.22.31-.38.65-.48,1.03-.1.38-.15.77-.15,1.17s.05.78.15,1.16"/>
    <path class="cls-1" d="M81.24,19.26c.16-.49.39-.93.71-1.31.31-.38.7-.68,1.17-.91.47-.23,1.01-.34,1.63-.34s1.16.11,1.63.34c.47.23.86.53,1.17.91.31.38.55.82.71,1.31.16.49.24,1,.24,1.54s-.08,1.04-.24,1.54c-.16.49-.39.93-.71,1.31-.31.38-.7.68-1.17.9-.47.22-1.01.33-1.63.33s-1.16-.11-1.63-.33c-.47-.22-.86-.52-1.17-.9-.31-.38-.55-.81-.71-1.31-.16-.49-.24-1-.24-1.54s.08-1.04.24-1.54M82.2,21.96c.1.38.26.73.48,1.03s.5.55.84.74c.34.19.75.28,1.23.28s.88-.09,1.23-.28c.34-.19.62-.43.84-.74.22-.31.38-.65.48-1.03.1-.38.15-.77.15-1.16s-.05-.78-.15-1.17c-.1-.38-.26-.73-.48-1.03-.22-.31-.5-.55-.84-.74-.34-.19-.75-.28-1.23-.28s-.88.09-1.23.28c-.34.19-.62.43-.84.74-.22.31-.38.65-.48,1.03-.1.38-.15.77-.15,1.17s.05.78.15,1.16"/>
    <polygon class="cls-1" points="90.36 16.89 90.36 23.82 94.5 23.82 94.5 24.7 89.32 24.7 89.32 16.89 90.36 16.89"/>
    <path class="cls-1" d="M43.76,33.97c-.08.25-.2.48-.38.68-.18.2-.42.36-.71.48-.3.12-.66.18-1.1.18-.73,0-1.29-.19-1.68-.57-.39-.38-.59-.95-.59-1.69v-.48h1.04v.33c0,.23.02.43.05.62.04.19.1.35.19.49.09.14.22.25.38.32.16.08.37.11.63.11.47,0,.8-.13.98-.38.18-.26.27-.6.27-1.03v-5.71h1.04v5.86c0,.26-.04.52-.11.78"/>
    <path class="cls-1" d="M44.92,29.7c.16-.49.39-.93.71-1.31.31-.38.7-.68,1.17-.91.47-.23,1.01-.34,1.63-.34s1.16.11,1.63.34c.47.23.86.53,1.17.91.31.38.55.82.71,1.31.16.49.23,1,.23,1.54s-.08,1.04-.23,1.54c-.16.49-.39.93-.71,1.31-.31.38-.7.68-1.17.9-.47.22-1.01.33-1.63.33s-1.16-.11-1.63-.33c-.47-.22-.86-.52-1.17-.9-.31-.38-.55-.81-.71-1.31-.16-.49-.24-1-.24-1.54s.08-1.04.24-1.54M45.88,32.4c.1.38.26.73.48,1.03.22.31.5.55.84.74.34.19.75.28,1.23.28s.88-.09,1.23-.28c.34-.19.62-.43.84-.74.22-.31.38-.65.48-1.03.1-.38.15-.77.15-1.17s-.05-.78-.15-1.16c-.1-.38-.26-.73-.48-1.03-.22-.31-.5-.55-.84-.74-.34-.19-.75-.28-1.23-.28s-.88.09-1.23.28c-.34.19-.62.43-.84.74-.22.31-.38.65-.48,1.03-.1.38-.15.77-.15,1.16s.05.78.15,1.17"/>
    <polygon class="cls-1" points="54.05 27.33 54.05 30.69 58.16 30.69 58.16 27.33 59.2 27.33 59.2 35.14 58.16 35.14 58.16 31.57 54.05 31.57 54.05 35.14 53.01 35.14 53.01 27.33 54.05 27.33"/>
    <polygon class="cls-1" points="61.55 27.33 65.66 33.67 65.69 33.67 65.69 27.33 66.67 27.33 66.67 35.14 65.53 35.14 61.45 28.88 61.43 28.88 61.43 35.14 60.45 35.14 60.45 27.33 61.55 27.33"/>
    <polygon class="cls-1" points="72.4 27.33 74.86 33.9 77.34 27.33 78.76 27.33 78.76 35.14 77.77 35.14 77.77 28.65 77.75 28.65 75.31 35.14 74.43 35.14 71.99 28.65 71.96 28.65 71.96 35.14 70.98 35.14 70.98 27.33 72.4 27.33"/>
    <path class="cls-1" d="M79.83,29.7c.16-.49.39-.93.71-1.31.31-.38.7-.68,1.17-.91.47-.23,1.01-.34,1.63-.34s1.16.11,1.63.34c.47.23.86.53,1.17.91.31.38.55.82.71,1.31.16.49.24,1,.24,1.54s-.08,1.04-.24,1.54c-.16.49-.39.93-.71,1.31-.31.38-.7.68-1.17.9-.47.22-1.01.33-1.63.33s-1.16-.11-1.63-.33c-.47-.22-.86-.52-1.17-.9-.31-.38-.55-.81-.71-1.31-.16-.49-.24-1-.24-1.54s.08-1.04.24-1.54M80.79,32.4c.1.38.26.73.48,1.03.22.31.5.55.84.74.34.19.75.28,1.23.28s.88-.09,1.23-.28c.34-.19.62-.43.84-.74.22-.31.38-.65.48-1.03.1-.38.15-.77.15-1.17s-.05-.78-.15-1.16c-.1-.38-.26-.73-.48-1.03-.22-.31-.5-.55-.84-.74-.34-.19-.75-.28-1.23-.28s-.88.09-1.23.28c-.34.19-.62.43-.84.74-.22.31-.38.65-.48,1.03-.1.38-.15.77-.15,1.16s.05.78.15,1.17"/>
    <path class="cls-1" d="M87.74,29.7c.16-.49.39-.93.71-1.31.31-.38.7-.68,1.17-.91.47-.23,1.01-.34,1.63-.34s1.16.11,1.63.34c.47.23.86.53,1.17.91.31.38.55.82.71,1.31.16.49.23,1,.23,1.54s-.08,1.04-.23,1.54c-.16.49-.39.93-.71,1.31-.31.38-.7.68-1.17.9-.47.22-1.01.33-1.63.33s-1.16-.11-1.63-.33c-.47-.22-.86-.52-1.17-.9-.31-.38-.55-.81-.71-1.31-.16-.49-.24-1-.24-1.54s.08-1.04.24-1.54M88.69,32.4c.1.38.26.73.48,1.03.22.31.5.55.84.74.34.19.75.28,1.23.28s.88-.09,1.23-.28c.34-.19.62-.43.84-.74.22-.31.38-.65.48-1.03.1-.38.15-.77.15-1.17s-.05-.78-.15-1.16c-.1-.38-.26-.73-.48-1.03-.22-.31-.5-.55-.84-.74-.34-.19-.75-.28-1.23-.28s-.88.09-1.23.28c-.34.19-.62.43-.84.74-.22.31-.38.65-.48,1.03-.1.38-.15.77-.15,1.16s.05.78.15,1.17"/>
    <path class="cls-1" d="M99.5,27.33c.74,0,1.33.18,1.74.55.42.36.63.86.63,1.5,0,.47-.11.89-.32,1.25-.22.36-.56.6-1.03.73v.02c.23.04.41.12.55.22.14.1.26.22.34.37.08.14.15.3.19.48.04.17.07.36.09.55.01.19.03.38.03.58,0,.2.03.39.05.58.03.19.07.37.13.54.06.17.14.32.25.45h-1.16c-.07-.08-.12-.19-.15-.33-.03-.14-.04-.29-.05-.46,0-.17-.01-.36-.02-.55,0-.2-.03-.39-.07-.58-.03-.19-.07-.37-.11-.54-.04-.17-.11-.32-.21-.45-.09-.13-.22-.23-.37-.31-.15-.08-.36-.11-.61-.11h-2.54v3.34h-1.04v-7.81h3.68ZM99.71,30.88c.22-.04.41-.11.57-.21.16-.11.3-.25.39-.43.1-.18.15-.41.15-.69,0-.39-.11-.71-.33-.96-.22-.25-.57-.37-1.06-.37h-2.58v2.72h2.17c.24,0,.47-.02.69-.05"/>
    <polygon class="cls-1" points="108.3 27.33 108.3 28.21 103.95 28.21 103.95 30.69 108.01 30.69 108.01 31.57 103.95 31.57 103.95 34.27 108.33 34.27 108.33 35.14 102.91 35.14 102.91 27.33 108.3 27.33"/>
    <path class="cls-1" d="M112.88,28.4c-.35-.25-.79-.38-1.33-.38-.22,0-.43.02-.65.07s-.4.12-.56.22c-.16.1-.3.24-.39.41-.1.17-.15.38-.15.64,0,.24.07.44.21.59.14.15.33.27.57.37.24.1.5.17.8.24.3.06.6.13.91.2.31.07.61.16.91.26.3.1.57.23.8.4.24.17.43.38.57.63.14.26.21.58.21.96,0,.42-.09.77-.28,1.07-.19.3-.42.54-.72.72-.29.19-.62.32-.98.4-.36.08-.72.13-1.08.13-.44,0-.85-.05-1.24-.16-.39-.11-.73-.27-1.03-.5-.3-.22-.53-.51-.7-.85-.17-.35-.26-.76-.26-1.23h.98c0,.33.06.61.19.85.13.24.3.43.5.58.21.15.45.27.73.34.28.07.56.11.85.11.23,0,.47-.02.71-.07.24-.04.45-.12.64-.22.19-.11.34-.25.46-.43.12-.18.17-.42.17-.7s-.07-.49-.21-.66c-.14-.17-.33-.3-.57-.41-.24-.11-.5-.19-.8-.26-.3-.07-.6-.13-.91-.2-.31-.07-.61-.15-.91-.24-.3-.09-.57-.21-.8-.36s-.43-.34-.57-.58c-.14-.24-.21-.53-.21-.89,0-.39.08-.73.24-1.02.16-.29.37-.52.64-.71.27-.19.57-.32.91-.42.34-.09.69-.14,1.04-.14.4,0,.77.05,1.12.14.34.1.64.24.9.45.26.2.46.46.61.77s.23.68.25,1.11h-.98c-.06-.56-.26-.97-.61-1.22"/>
    <path class="cls-1" d="M44.08,41.33c0,1.53-.7,2.29-2.29,2.29s-2.29-.76-2.29-2.29v-3.09h1.37v3.17c0,.68.25,1.02.92,1.02s.92-.35.92-1.02v-3.17h1.37v3.09Z"/>
    <polygon class="cls-1" points="44.85 38.24 46.25 38.24 48.08 41.48 48.1 41.48 48.1 38.24 49.39 38.24 49.39 43.5 47.98 43.5 46.15 40.22 46.14 40.22 46.14 43.5 44.85 43.5 44.85 38.24"/>
    <rect class="cls-1" x="50.19" y="38.24" width="1.37" height="5.27"/>
    <polygon class="cls-1" points="55.05 43.5 53.47 43.5 51.81 38.24 53.24 38.24 54.28 42.15 54.29 42.15 55.32 38.24 56.76 38.24 55.05 43.5"/>
    <polygon class="cls-1" points="57.01 38.24 61.21 38.24 61.21 39.34 58.39 39.34 58.39 40.26 60.97 40.26 60.97 41.32 58.39 41.32 58.39 42.32 61.28 42.32 61.28 43.5 57.01 43.5 57.01 38.24"/>
    <path class="cls-1" d="M61.95,38.24h2.68c.93,0,1.84.42,1.84,1.48,0,.57-.27,1.11-.83,1.32h0c.56.15.72.77.77,1.28.02.22.04,1,.22,1.19h-1.36c-.12-.18-.14-.69-.15-.84-.04-.53-.13-1.08-.77-1.08h-1.04v1.92h-1.37v-5.27ZM63.32,40.52h1.15c.41,0,.63-.22.63-.62s-.31-.57-.69-.57h-1.09v1.19Z"/>
    <path class="cls-1" d="M68.22,41.73c.03.62.41.82,1,.82.41,0,.84-.15.84-.54,0-.46-.75-.55-1.51-.77-.75-.21-1.54-.55-1.54-1.52,0-1.15,1.16-1.6,2.15-1.6,1.05,0,2.1.51,2.11,1.7h-1.37c.02-.48-.43-.63-.85-.63-.29,0-.66.1-.66.45,0,.41.76.48,1.53.69.76.21,1.53.57,1.53,1.52,0,1.33-1.14,1.76-2.29,1.76s-2.28-.53-2.29-1.88h1.37Z"/>
    <rect class="cls-1" x="71.96" y="38.24" width="1.37" height="5.27"/>
    <polygon class="cls-1" points="78.19 39.42 76.62 39.42 76.62 43.5 75.25 43.5 75.25 39.42 73.68 39.42 73.68 38.24 78.19 38.24 78.19 39.42"/>
    <polygon class="cls-1" points="81.56 41.54 81.56 43.5 80.19 43.5 80.19 41.54 78.27 38.24 79.82 38.24 80.87 40.38 81.92 38.24 83.47 38.24 81.56 41.54"/>
  </g>
</svg>