<?xml version="1.0" encoding="UTF-8"?>
<svg id="Layer_1" xmlns="http://www.w3.org/2000/svg" viewBox="0 0 120 60">
  <defs>
    <style>
      .cls-1 {
        fill: #231f20;
      }

      .cls-2 {
        fill: #7e8da1;
      }

      .cls-3 {
        fill: #070707;
      }
    </style>
  </defs>
  <g>
    <path class="cls-3" d="M28.96.17h62.08v19.03H28.96V.17ZM28.8,0v19.36h62.41V0H28.8Z"/>
    <g>
      <path class="cls-3" d="M47.31,4.34c-.28-.18-.85-.6-1.26-.59-.42,0-.81.27-.92.51-.02.04-.03.07-.04.1-.04,0-.06.02-.06.02,0,0-.11.02-.34.1,0,0-.01,0-.02,0l1.03-1.32.06.04s.06.01.09.02c.22.02.64-.17.9-.52.26-.34.34-1.01.39-1.33.06-.32.28-.51.28-.51,0,0-.65.23-1.03.43-.37.2-.68.55-.79.82-.15.35-.09.67-.05.85.02.06.03.11.07.16l.07.04c-.41.44-.8.83-1.15,1.18,0-.16.04-.26.04-.26,0,0,.01-.02.02-.07.03-.01.06-.02.09-.04.22-.12.46-.55.46-1s-.4-1.06-.57-1.36c-.17-.3-.11-.6-.11-.6,0,0-.44.6-.64,1.01-.2.41-.24.89-.15,1.19.11.38.38.62.55.74.05.04.11.07.18.09,0,.05,0,.09-.01.12-.03.09-.1.31-.17.5-.17.17-.33.33-.48.48l-.66.87c-1.72,2.26-2.91,5.24-1.86,8.17l.57-.79c-.63-2.68.31-5.1,1.62-7.2l.58-.83.36-.47c.19-.12.5-.27.6-.3.03,0,.07-.01.11-.01.01.07.05.13.08.19.12.18.34.47.69.58.28.08.72.04,1.1-.18.37-.22.92-.7.92-.7,0,0-.28.07-.56-.11"/>
      <path class="cls-3" d="M44.88,6.68c-.24-.5-.43-.85-.95-1.38l-.26-.21c-1.64-1.45-3.9-1.83-5.49-3.5-2.73-.43-5.68.15-8.38-.46,1,.59,2.15,1,3.3,1.33,1.43-.81,3.25-.85,4.93-.79l.22.18c.58,1.71,2.43,1.91,3.64,2.86v.07c-1.03-.12-2.12-.24-3.18-.18-.27-.48-.69-.73-1.15-.84h0c-.81-.18-1.78.04-2.43-.17l.39.43c.14.05.3-.07.46-.03.27.48.72.91,1.15,1.28.4.16.84,0,1.25,0,1.65,0,3.28.06,4.7.64l.34.15c.66.3,1.34.78,1.76,1.43l-.31-.82ZM37.09,4.74c-.24-.21-.45-.43-.51-.71.28.05.54.13.8.22h0c.24.1.5.23.7.34-.47,0-.44.67-1,.15"/>
      <path class="cls-3" d="M44.88,15.29c-.65,1.43-1.55,2.71-2.61,3.9h1.48c.96-.97,1.76-2.08,2.3-3.42.77-2.19-.46-4.2-1.97-5.72.95,1.46,1.65,3.52.79,5.25"/>
      <path class="cls-3" d="M37.94,9.26c-.77-.68-5.2-3.18-5.2-6.1l-2.36-.76c1.18,1.5.96,1.93,3.63,4.46,3.03,2.88,4.51,4,3.76,5.1-.34.49-2.72,1.05-4.49-1.91-1.15-1.93-2.52-4.61-4.46-6.55v1.49c1.87,2.64,2.54,5.1,3.93,6.31,3.01,2.64,6.28,1.51,6.41.27.09-.83-.45-1.64-1.23-2.33"/>
      <polygon class="cls-3" points="49.85 2.86 49.85 6.47 52 6.47 52 6.92 49.31 6.92 49.31 2.86 49.85 2.86"/>
      <rect class="cls-3" x="52.24" y="2.86" width=".54" height="4.06"/>
      <polygon class="cls-3" points="54.44 6.92 53.01 2.86 53.59 2.86 54.75 6.38 54.76 6.38 55.93 2.86 56.5 2.86 55.05 6.92 54.44 6.92"/>
      <polygon class="cls-3" points="59.52 2.86 59.52 3.32 57.26 3.32 57.26 4.61 59.37 4.61 59.37 5.06 57.26 5.06 57.26 6.47 59.54 6.47 59.54 6.92 56.72 6.92 56.72 2.86 59.52 2.86"/>
      <path class="cls-3" d="M61.83,2.86c.39,0,.69.1.91.28.22.19.33.45.33.78,0,.25-.06.46-.17.65-.11.19-.29.31-.54.38h0c.12.03.21.07.29.13.07.05.13.12.18.19.04.07.08.16.1.25.02.09.04.19.05.28,0,.1.01.2.02.3s.01.2.03.3c.02.1.04.19.07.28.03.09.07.17.13.24h-.6s-.06-.1-.08-.17c-.01-.07-.02-.15-.03-.24,0-.09,0-.18-.01-.29,0-.1-.02-.2-.03-.3-.02-.1-.03-.19-.06-.28-.02-.09-.06-.17-.11-.23s-.11-.12-.19-.16c-.08-.04-.19-.06-.32-.06h-1.32v1.74h-.54V2.86h1.91ZM61.94,4.7c.11-.02.21-.06.3-.11.09-.06.15-.13.2-.22.05-.09.08-.21.08-.36,0-.2-.06-.37-.17-.5-.11-.13-.3-.19-.55-.19h-1.34v1.42h1.13c.13,0,.24,0,.36-.03"/>
      <path class="cls-3" d="M65.38,2.86c.41,0,.72.11.93.32.21.21.32.51.32.88s-.11.67-.32.89c-.21.21-.52.32-.93.31h-1.24v1.66h-.54V2.86h1.78ZM65.2,4.81c.31,0,.53-.06.67-.19.14-.13.21-.31.21-.56s-.07-.43-.21-.55c-.14-.13-.37-.19-.67-.19h-1.06v1.49h1.06Z"/>
      <path class="cls-3" d="M66.94,4.09c.08-.26.2-.48.37-.68.16-.2.37-.35.61-.47.24-.12.53-.18.85-.18s.6.06.85.18c.24.12.45.27.61.47.16.2.29.42.37.68.08.26.12.52.12.8s-.04.54-.12.8c-.08.26-.2.48-.37.68-.16.2-.37.35-.61.47-.24.12-.53.17-.85.17s-.61-.06-.85-.17c-.24-.12-.45-.27-.61-.47-.16-.2-.29-.42-.37-.68-.08-.26-.12-.52-.12-.8s.04-.54.12-.8M67.43,5.5c.05.2.14.38.25.54.11.16.26.29.44.38.18.1.39.15.64.15s.46-.05.64-.15c.18-.1.32-.22.44-.38.11-.16.2-.34.25-.54.05-.2.08-.4.08-.61s-.03-.41-.08-.61c-.05-.2-.14-.38-.25-.54-.11-.16-.26-.29-.44-.38-.18-.1-.39-.15-.64-.15s-.46.05-.64.15c-.18.1-.32.22-.44.38-.11.16-.2.34-.25.54-.05.2-.08.4-.08.61s.03.41.08.61"/>
      <path class="cls-3" d="M71.05,4.09c.08-.26.2-.48.37-.68.16-.2.37-.35.61-.47.24-.12.53-.18.85-.18s.6.06.85.18c.24.12.45.27.61.47.16.2.29.42.37.68.08.26.12.52.12.8s-.04.54-.12.8c-.08.26-.2.48-.37.68-.16.2-.37.35-.61.47-.24.12-.53.17-.85.17s-.61-.06-.85-.17c-.24-.12-.45-.27-.61-.47-.16-.2-.29-.42-.37-.68-.08-.26-.12-.52-.12-.8s.04-.54.12-.8M71.54,5.5c.05.2.14.38.25.54s.26.29.44.38c.18.1.39.15.64.15s.46-.05.64-.15c.18-.1.32-.22.44-.38.11-.16.2-.34.25-.54.05-.2.08-.4.08-.61s-.03-.41-.08-.61c-.05-.2-.14-.38-.25-.54-.11-.16-.26-.29-.44-.38-.18-.1-.39-.15-.64-.15s-.46.05-.64.15c-.18.1-.32.22-.44.38-.11.16-.2.34-.25.54-.05.2-.08.4-.08.61s.03.41.08.61"/>
      <polygon class="cls-3" points="75.79 2.86 75.79 6.47 77.94 6.47 77.94 6.92 75.25 6.92 75.25 2.86 75.79 2.86"/>
      <path class="cls-3" d="M51.56,11.75c-.04.13-.11.25-.2.36-.09.1-.22.19-.37.25-.15.06-.34.09-.57.09-.38,0-.67-.1-.88-.3-.2-.2-.31-.49-.31-.88v-.25h.54v.17c0,.12,0,.23.03.32.02.1.05.18.1.26.05.07.11.13.2.17.09.04.19.06.33.06.25,0,.42-.07.51-.2.09-.13.14-.31.14-.53v-2.97h.54v3.05c0,.14-.02.27-.06.4"/>
      <path class="cls-3" d="M52.16,9.53c.08-.26.2-.48.37-.68.16-.2.37-.35.61-.47.24-.12.53-.18.85-.18s.61.06.85.18c.24.12.45.28.61.47.16.2.29.42.37.68.08.26.12.52.12.8s-.04.54-.12.8c-.08.26-.2.48-.37.68-.16.2-.37.35-.61.47-.24.12-.53.17-.85.17s-.61-.06-.85-.17c-.24-.12-.45-.27-.61-.47-.16-.2-.29-.42-.37-.68-.08-.26-.12-.52-.12-.8s.04-.54.12-.8M52.66,10.93c.05.2.14.38.25.54.11.16.26.29.44.38.18.1.39.15.64.15s.46-.05.64-.15c.18-.1.32-.22.44-.38.11-.16.2-.34.25-.54.05-.2.08-.4.08-.61s-.03-.41-.08-.61c-.05-.2-.14-.38-.25-.54-.11-.16-.26-.29-.44-.38-.18-.1-.39-.15-.64-.15s-.46.05-.64.15c-.18.1-.32.22-.44.38-.11.16-.2.34-.25.54-.05.2-.08.4-.08.61s.03.41.08.61"/>
      <polygon class="cls-3" points="56.9 8.29 56.9 10.04 59.04 10.04 59.04 8.29 59.58 8.29 59.58 12.36 59.04 12.36 59.04 10.5 56.9 10.5 56.9 12.36 56.36 12.36 56.36 8.29 56.9 8.29"/>
      <polygon class="cls-3" points="60.81 8.29 62.95 11.59 62.96 11.59 62.96 8.29 63.47 8.29 63.47 12.36 62.88 12.36 60.76 9.1 60.74 9.1 60.74 12.36 60.23 12.36 60.23 8.29 60.81 8.29"/>
      <polygon class="cls-3" points="66.45 8.29 67.73 11.71 69.02 8.29 69.76 8.29 69.76 12.36 69.24 12.36 69.24 8.98 69.23 8.98 67.96 12.36 67.5 12.36 66.23 8.98 66.22 8.98 66.22 12.36 65.71 12.36 65.71 8.29 66.45 8.29"/>
      <path class="cls-3" d="M70.31,9.53c.08-.26.2-.48.37-.68.16-.2.37-.35.61-.47.24-.12.53-.18.85-.18s.6.06.85.18c.24.12.45.28.61.47.16.2.29.42.37.68.08.26.12.52.12.8s-.04.54-.12.8c-.08.26-.2.48-.37.68-.16.2-.37.35-.61.47-.24.12-.53.17-.85.17s-.6-.06-.85-.17c-.24-.12-.45-.27-.61-.47-.16-.2-.29-.42-.37-.68-.08-.26-.12-.52-.12-.8s.04-.54.12-.8M70.81,10.93c.05.2.14.38.25.54.11.16.26.29.44.38.18.1.39.15.64.15s.46-.05.64-.15c.18-.1.32-.22.44-.38.11-.16.2-.34.25-.54.05-.2.08-.4.08-.61s-.03-.41-.08-.61c-.05-.2-.14-.38-.25-.54-.11-.16-.26-.29-.44-.38-.18-.1-.39-.15-.64-.15s-.46.05-.64.15c-.18.1-.32.22-.44.38-.11.16-.2.34-.25.54-.05.2-.08.4-.08.61s.03.41.08.61"/>
      <path class="cls-3" d="M74.42,9.53c.08-.26.2-.48.37-.68.16-.2.37-.35.61-.47.24-.12.53-.18.85-.18s.61.06.85.18c.24.12.45.28.61.47.16.2.29.42.37.68.08.26.12.52.12.8s-.04.54-.12.8c-.08.26-.2.48-.37.68-.16.2-.37.35-.61.47-.24.12-.53.17-.85.17s-.6-.06-.85-.17c-.24-.12-.45-.27-.61-.47-.16-.2-.29-.42-.37-.68-.08-.26-.12-.52-.12-.8s.04-.54.12-.8M74.92,10.93c.05.2.14.38.25.54.11.16.26.29.44.38.18.1.39.15.64.15s.46-.05.64-.15c.18-.1.32-.22.44-.38.11-.16.2-.34.25-.54.05-.2.08-.4.08-.61s-.03-.41-.08-.61c-.05-.2-.14-.38-.25-.54-.11-.16-.26-.29-.44-.38-.18-.1-.39-.15-.64-.15s-.46.05-.64.15c-.18.1-.32.22-.44.38-.11.16-.2.34-.25.54-.05.2-.08.4-.08.61s.03.41.08.61"/>
      <path class="cls-3" d="M80.54,8.29c.39,0,.69.09.91.28.22.19.33.45.33.78,0,.25-.06.46-.17.65-.11.19-.29.31-.54.38h0c.12.03.21.07.29.13.07.05.13.12.18.19.04.07.08.16.1.25.02.09.04.19.05.28,0,.1.01.2.02.3s.01.2.03.3c.02.1.04.19.07.28.03.09.07.17.13.24h-.6s-.06-.1-.08-.17c-.01-.07-.02-.15-.03-.24,0-.09,0-.18-.01-.29,0-.1-.02-.2-.03-.3-.02-.1-.03-.19-.06-.28-.02-.09-.06-.17-.11-.23-.05-.07-.11-.12-.19-.16-.08-.04-.19-.06-.32-.06h-1.32v1.74h-.54v-4.06h1.91ZM80.65,10.14c.11-.02.21-.06.3-.11.09-.06.15-.13.2-.22.05-.09.08-.21.08-.36,0-.2-.06-.37-.17-.5-.11-.13-.3-.19-.55-.19h-1.34v1.42h1.13c.13,0,.24,0,.36-.03"/>
      <polygon class="cls-3" points="85.12 8.29 85.12 8.75 82.86 8.75 82.86 10.04 84.97 10.04 84.97 10.5 82.86 10.5 82.86 11.9 85.14 11.9 85.14 12.36 82.32 12.36 82.32 8.29 85.12 8.29"/>
      <path class="cls-3" d="M87.5,8.85c-.18-.13-.41-.2-.69-.2-.11,0-.23.01-.34.03s-.21.06-.29.11c-.09.05-.15.12-.2.21-.05.09-.08.2-.08.33,0,.13.04.23.11.3.07.08.17.14.3.19.12.05.26.09.42.12.16.03.31.07.48.11.16.04.32.08.48.13.16.05.29.12.42.21.12.09.22.2.3.33.07.13.11.3.11.5,0,.22-.05.4-.15.55-.1.15-.22.28-.37.38-.15.1-.32.17-.51.21-.19.04-.37.07-.56.07-.23,0-.44-.03-.65-.09-.2-.06-.38-.14-.53-.26-.15-.12-.28-.26-.36-.44-.09-.18-.13-.39-.13-.64h.51c0,.17.03.32.1.44.07.12.15.22.26.3.11.08.23.14.38.18.14.04.29.06.44.06.12,0,.24-.01.37-.03.12-.02.23-.06.33-.12.1-.06.18-.13.24-.22.06-.09.09-.22.09-.36s-.04-.25-.11-.34c-.07-.09-.17-.16-.3-.21-.12-.06-.26-.1-.42-.13-.16-.03-.31-.07-.48-.11-.16-.04-.32-.08-.47-.13-.16-.05-.3-.11-.42-.19s-.22-.18-.3-.3c-.07-.12-.11-.28-.11-.46,0-.2.04-.38.13-.53.08-.15.19-.27.33-.37.14-.1.3-.17.47-.22.18-.05.36-.07.54-.07.21,0,.4.02.58.07.18.05.33.13.47.23.13.11.24.24.32.4s.12.35.13.58h-.51c-.03-.29-.14-.5-.32-.63"/>
      <path class="cls-3" d="M51.72,15.57c0,.79-.36,1.19-1.19,1.19s-1.19-.4-1.19-1.19v-1.61h.71v1.65c0,.35.13.53.48.53s.48-.18.48-.53v-1.65h.71v1.61Z"/>
      <polygon class="cls-3" points="52.12 13.96 52.85 13.96 53.8 15.65 53.81 15.65 53.81 13.96 54.48 13.96 54.48 16.7 53.75 16.7 52.8 15 52.79 15 52.79 16.7 52.12 16.7 52.12 13.96"/>
      <rect class="cls-3" x="54.9" y="13.96" width=".71" height="2.74"/>
      <polygon class="cls-3" points="57.43 16.7 56.61 16.7 55.74 13.96 56.49 13.96 57.02 16 57.03 16 57.57 13.96 58.31 13.96 57.43 16.7"/>
      <polygon class="cls-3" points="58.45 13.96 60.63 13.96 60.63 14.54 59.16 14.54 59.16 15.01 60.5 15.01 60.5 15.57 59.16 15.57 59.16 16.09 60.67 16.09 60.67 16.7 58.45 16.7 58.45 13.96"/>
      <path class="cls-3" d="M61.01,13.96h1.4c.48,0,.96.22.96.77,0,.3-.14.58-.43.69h0c.29.08.38.4.4.66,0,.12.02.52.12.62h-.71c-.06-.09-.07-.36-.08-.44-.02-.28-.07-.56-.4-.56h-.54v1h-.71v-2.74ZM61.72,15.15h.6c.21,0,.33-.11.33-.32s-.16-.3-.36-.3h-.57v.62Z"/>
      <path class="cls-3" d="M64.27,15.78c.02.32.21.43.52.43.21,0,.44-.08.44-.28,0-.24-.39-.29-.79-.4-.39-.11-.8-.29-.8-.79,0-.6.6-.83,1.12-.83.54,0,1.09.26,1.1.88h-.71c.01-.25-.22-.33-.44-.33-.15,0-.35.05-.35.23,0,.21.39.25.79.36.39.11.79.3.79.79,0,.69-.59.92-1.19.92s-1.19-.28-1.19-.98h.71Z"/>
      <rect class="cls-3" x="66.22" y="13.96" width=".71" height="2.74"/>
      <polygon class="cls-3" points="69.46 14.58 68.64 14.58 68.64 16.7 67.93 16.7 67.93 14.58 67.11 14.58 67.11 13.96 69.46 13.96 69.46 14.58"/>
      <polygon class="cls-3" points="71.21 15.68 71.21 16.7 70.5 16.7 70.5 15.68 69.5 13.96 70.31 13.96 70.85 15.08 71.4 13.96 72.21 13.96 71.21 15.68"/>
    </g>
  </g>
  <g>
    <g>
      <path class="cls-1" d="M34.65,35.5v-9.19h.82v8.49h3.81v.69h-4.63Z"/>
      <path class="cls-1" d="M40.19,35.5v-9.19h.82v9.19h-.82Z"/>
      <path class="cls-1" d="M44.24,35.5l-2.42-9.19h.87l2.05,8.31h.03l2.05-8.31h.87l-2.42,9.19h-1.03Z"/>
      <path class="cls-1" d="M48.45,35.5v-9.19h4.55v.69h-3.73v3.35h3.49v.69h-3.49v3.76h3.85v.69h-4.67Z"/>
      <path class="cls-1" d="M54.16,35.5v-9.19h2.74c.75,0,1.34.2,1.76.61.42.41.62.97.62,1.69,0,1.35-.55,2.12-1.66,2.33v.03c.56.05.95.25,1.19.59.24.34.36.87.38,1.59l.03,1c.02.63.15,1.08.39,1.35h-.97c-.15-.24-.23-.67-.24-1.29l-.03-.77c-.03-.83-.15-1.39-.37-1.67-.25-.31-.73-.46-1.45-.46h-1.56v4.19h-.82ZM54.98,27.01v3.6h1.42c1.37,0,2.06-.6,2.06-1.8s-.66-1.8-1.97-1.8h-1.51Z"/>
      <path class="cls-1" d="M60.59,35.5v-9.19h2.48c1.68,0,2.52.87,2.52,2.6s-.93,2.6-2.8,2.6h-1.38v3.99h-.82ZM61.41,27.01v3.81h1.4c1.3,0,1.96-.63,1.96-1.9s-.65-1.9-1.96-1.9h-1.4Z"/>
      <path class="cls-1" d="M66.69,30.91c0-3.17.98-4.75,2.93-4.75s2.93,1.58,2.93,4.75-.98,4.75-2.93,4.75-2.93-1.58-2.93-4.75ZM67.51,30.91c0,2.7.7,4.05,2.11,4.05s2.11-1.35,2.11-4.05-.7-4.05-2.11-4.05-2.11,1.35-2.11,4.05Z"/>
      <path class="cls-1" d="M73.84,30.91c0-3.17.98-4.75,2.93-4.75s2.93,1.58,2.93,4.75-.98,4.75-2.93,4.75-2.93-1.58-2.93-4.75ZM74.67,30.91c0,2.7.7,4.05,2.11,4.05s2.11-1.35,2.11-4.05-.7-4.05-2.11-4.05-2.11,1.35-2.11,4.05Z"/>
      <path class="cls-1" d="M81.07,35.5v-9.19h.82v8.49h3.81v.69h-4.63Z"/>
    </g>
    <g>
      <path class="cls-2" d="M37.68,38.4c.38,0,.73.04,1.05.12.32.08.6.21.83.39.23.18.41.42.54.72.13.3.19.67.19,1.11,0,.5-.12.92-.35,1.28-.23.36-.58.6-1.04.73v.03c.51.07.92.29,1.22.66.3.37.45.86.45,1.48,0,.36-.05.7-.14,1.03-.09.33-.26.61-.48.86-.23.24-.52.44-.89.59-.36.15-.82.22-1.36.22h-3.13v-9.19h3.1ZM36.96,42.17c.51,0,.89-.09,1.13-.28.24-.18.35-.5.35-.93s-.11-.75-.32-.93c-.21-.18-.55-.27-1.02-.27h-.67v2.41h.53ZM37.15,46.22c.45,0,.81-.1,1.08-.3.27-.2.41-.56.41-1.09,0-.27-.04-.49-.11-.66-.07-.18-.17-.32-.3-.42-.12-.11-.27-.18-.44-.23-.17-.04-.36-.06-.57-.06h-.8v2.77h.72Z"/>
      <path class="cls-2" d="M43.47,44.8c0,.23.02.44.05.64.03.19.09.36.17.5.08.14.19.25.33.33.14.08.32.12.53.12s.4-.04.54-.12c.14-.08.25-.19.33-.33.08-.14.14-.31.17-.5.03-.19.04-.41.04-.64v-6.41h1.85v6.41c0,.58-.08,1.07-.24,1.45-.16.38-.38.68-.66.91-.27.22-.59.37-.94.45-.35.08-.72.12-1.09.12s-.74-.03-1.09-.1c-.35-.07-.66-.21-.94-.42-.27-.21-.49-.51-.66-.89-.16-.39-.24-.89-.24-1.51v-6.41h1.85v6.41Z"/>
      <path class="cls-2" d="M50.14,44.98c0,.21.02.41.05.59.03.18.1.32.19.44s.22.21.38.28c.16.07.36.1.6.1.28,0,.54-.09.77-.28.23-.18.34-.47.34-.86,0-.21-.03-.38-.08-.53s-.15-.29-.28-.41c-.13-.12-.3-.23-.51-.33-.21-.1-.47-.2-.78-.3-.41-.14-.77-.29-1.07-.45-.3-.16-.55-.35-.75-.57s-.35-.47-.44-.76c-.09-.29-.14-.62-.14-1,0-.91.25-1.59.76-2.03.51-.45,1.2-.67,2.08-.67.41,0,.79.05,1.14.14s.65.24.9.44c.25.2.45.46.59.77.14.31.21.69.21,1.13v.26h-1.78c0-.44-.08-.77-.23-1.01-.15-.24-.41-.35-.77-.35-.21,0-.38.03-.51.09-.14.06-.25.14-.33.24-.08.1-.14.21-.17.34-.03.13-.05.26-.05.4,0,.28.06.52.18.71.12.19.38.37.77.53l1.43.62c.35.15.64.32.86.48.22.17.4.35.53.54.13.19.22.41.28.64.05.23.08.49.08.77,0,.97-.28,1.67-.84,2.12-.56.44-1.34.66-2.35.66s-1.79-.23-2.25-.68c-.45-.45-.68-1.11-.68-1.96v-.37h1.85v.27Z"/>
      <path class="cls-2" d="M55.42,38.4h1.85v9.19h-1.85v-9.19Z"/>
      <path class="cls-2" d="M63.02,44.69h.03v-6.29h1.7v9.19h-2.11l-2.26-6.43h-.03v6.43h-1.7v-9.19h2.14l2.24,6.29Z"/>
      <path class="cls-2" d="M71.17,39.91h-3.28v2.16h3.09v1.52h-3.09v2.47h3.41v1.52h-5.26v-9.19h5.13v1.52Z"/>
      <path class="cls-2" d="M73.71,44.98c0,.21.02.41.05.59.03.18.1.32.19.44s.22.21.38.28c.16.07.36.1.6.1.28,0,.54-.09.77-.28.23-.18.34-.47.34-.86,0-.21-.03-.38-.08-.53s-.15-.29-.28-.41c-.13-.12-.3-.23-.51-.33-.21-.1-.47-.2-.78-.3-.41-.14-.77-.29-1.07-.45-.3-.16-.55-.35-.75-.57s-.35-.47-.44-.76c-.09-.29-.14-.62-.14-1,0-.91.25-1.59.76-2.03.51-.45,1.2-.67,2.08-.67.41,0,.79.05,1.14.14s.65.24.9.44c.25.2.45.46.59.77.14.31.21.69.21,1.13v.26h-1.78c0-.44-.08-.77-.23-1.01-.15-.24-.41-.35-.77-.35-.21,0-.38.03-.51.09-.14.06-.25.14-.33.24-.08.1-.14.21-.17.34-.03.13-.05.26-.05.4,0,.28.06.52.18.71.12.19.38.37.77.53l1.43.62c.35.15.64.32.86.48.22.17.4.35.53.54.13.19.22.41.28.64.05.23.08.49.08.77,0,.97-.28,1.67-.84,2.12-.56.44-1.34.66-2.35.66s-1.79-.23-2.25-.68c-.45-.45-.68-1.11-.68-1.96v-.37h1.85v.27Z"/>
      <path class="cls-2" d="M80.39,44.98c0,.21.02.41.05.59.03.18.1.32.19.44s.22.21.38.28c.16.07.36.1.6.1.28,0,.54-.09.77-.28.23-.18.34-.47.34-.86,0-.21-.03-.38-.08-.53s-.15-.29-.28-.41c-.13-.12-.3-.23-.51-.33-.21-.1-.47-.2-.78-.3-.41-.14-.77-.29-1.07-.45-.3-.16-.55-.35-.75-.57s-.35-.47-.44-.76c-.09-.29-.14-.62-.14-1,0-.91.25-1.59.76-2.03.51-.45,1.2-.67,2.08-.67.41,0,.79.05,1.14.14s.65.24.9.44c.25.2.45.46.59.77.14.31.21.69.21,1.13v.26h-1.78c0-.44-.08-.77-.23-1.01-.15-.24-.41-.35-.77-.35-.21,0-.38.03-.51.09-.14.06-.25.14-.33.24-.08.1-.14.21-.17.34-.03.13-.05.26-.05.4,0,.28.06.52.18.71.12.19.38.37.77.53l1.43.62c.35.15.64.32.86.48.22.17.4.35.53.54.13.19.22.41.28.64.05.23.08.49.08.77,0,.97-.28,1.67-.84,2.12-.56.44-1.34.66-2.35.66s-1.79-.23-2.25-.68c-.45-.45-.68-1.11-.68-1.96v-.37h1.85v.27Z"/>
    </g>
    <g>
      <path class="cls-1" d="M39.51,53.01h-.82c0-1.21-.55-1.81-1.65-1.81-.54,0-.96.16-1.27.47s-.46.71-.46,1.18c0,.75.39,1.31,1.16,1.66.71.27,1.42.55,2.14.82.77.41,1.16,1.07,1.16,1.98s-.25,1.53-.75,1.99c-.5.46-1.18.69-2.03.69-1.78,0-2.68-.91-2.68-2.73v-.27h.82v.35c0,.6.16,1.08.47,1.43.31.35.77.53,1.36.53s1.09-.16,1.45-.47c.36-.31.53-.78.53-1.4,0-.75-.39-1.29-1.16-1.63-.71-.27-1.42-.55-2.14-.82-.77-.43-1.16-1.11-1.16-2.05,0-.73.23-1.32.68-1.76.45-.45,1.07-.67,1.86-.67,1.66,0,2.5.84,2.5,2.51Z"/>
      <path class="cls-1" d="M45.59,56.73h.82c-.06,1.05-.32,1.85-.79,2.42-.47.57-1.11.85-1.94.85-1.96,0-2.93-1.58-2.93-4.75s.98-4.75,2.93-4.75c.88,0,1.56.28,2.02.85.41.51.62,1.17.62,1.98h-.82c0-.64-.16-1.16-.48-1.55-.32-.39-.76-.59-1.34-.59-1.41,0-2.11,1.35-2.11,4.05s.7,4.05,2.11,4.05c.57,0,1.01-.23,1.34-.68.33-.45.52-1.08.56-1.89Z"/>
      <path class="cls-1" d="M51.92,59.85v-4.58h-3.59v4.58h-.82v-9.19h.82v3.91h3.59v-3.91h.82v9.19h-.82Z"/>
      <path class="cls-1" d="M54.11,55.25c0-3.17.98-4.75,2.93-4.75s2.93,1.58,2.93,4.75-.98,4.75-2.93,4.75-2.93-1.58-2.93-4.75ZM54.93,55.25c0,2.7.7,4.05,2.11,4.05s2.11-1.35,2.11-4.05-.7-4.05-2.11-4.05-2.11,1.35-2.11,4.05Z"/>
      <path class="cls-1" d="M61.26,55.25c0-3.17.98-4.75,2.93-4.75s2.93,1.58,2.93,4.75-.98,4.75-2.93,4.75-2.93-1.58-2.93-4.75ZM62.08,55.25c0,2.7.7,4.05,2.11,4.05s2.11-1.35,2.11-4.05-.7-4.05-2.11-4.05-2.11,1.35-2.11,4.05Z"/>
      <path class="cls-1" d="M68.49,59.85v-9.19h.82v8.49h3.81v.69h-4.63Z"/>
    </g>
  </g>
</svg>