<svg id="Layer_1" xmlns="http://www.w3.org/2000/svg" viewBox="0 0 120 60"><defs><style>.cls-1{fill:#1c509c}.cls-1,.cls-4,.cls-5,.cls-6{fill-rule:evenodd}.cls-4{fill:#fff}.cls-6{fill:#2c2a29}.cls-5{fill:#fecc0d}</style></defs><path class="cls-6" d="M73.5 22.4V19h-1.7l-.2.7-.2-.6h-1.8l.2 5.7h.1a10 10 0 0 1-8.7 7c2.9-1.4 4.5-2.7 6.5-4.3.9-.7 2-2 2-3.2 0-.9-.3-2-.6-3-.4-1.3-.9-2.8-.3-3.7l2.2-3.4c.7-1.9.4-3.7-.6-4.4l-1.5-.7L70 9 65 7.8v-.2L70.5 6l-6-.4v-.1l2.8-3.7-4.2 2 .7-3.8L61 3l-1.4-3-1 3-3-2.6 1 3.5-.4.3-4.5-2L55.2 6h-6l5.7 2-6.3 1 2 .2c-.8.3-1.5.8-1.9 1.6-1 2 .3 3.5 1.4 4.9.6.8 1.1 1.5 1.4 2.3.3 1.1 0 2.2-.5 3.5l-.6 2c-.3 1.3-.1 1.6.7 2.5 2.4 2.9 5 4.8 8 6a10 10 0 0 1-9-7l.3-5.7h-1.8l-.2.6-.2-.7h-1.7v3.3H46v.3c0 7 6.3 12.8 14.1 12.8s14.2-5.7 14.2-12.8v-.3h-.7Z"/><path class="cls-5" d="M64.6 8v-.7l4-1.1-4.3-.3-.1-.5 2-2.7-3 1.5-.5-.3.5-2.8-2 2.2h-.4l-1-2.4-.8 2.3-.4.2-2.4-2L57 4l-.6.5-3.3-1.4 2.5 2.7-.2.4h-4.3l4.2 1.4V8l-4.3.8 2.3.3.5 1 6 1.5 4.4-.5 2.1-.7-.6-1 2.7-.5-3.8-1Z"/><path d="M56 9.4c-1.5 0-3-.5-4.5-.3-1 .2-2.1.9-2.5 1.7-1.4 2.8 2 4.7 2.8 7 .5 1.8-.6 3.5-1 5.6-.3 1.2-.3 1.4.5 2.3 2.1 2.4 4.9 4.9 9 6.2a28 28 0 0 0 7.2-4.6c.9-.7 1.8-1.8 1.9-2.9 0-2.1-2-5-.9-6.9l2.2-3.4c.6-1.6.4-3.3-.5-4a6 6 0 0 0-4.3-.8c-6.5 1.3-5.6 2-10 0" style="fill:#c6c6c5;fill-rule:evenodd"/><path class="cls-1" d="M68.3 17.2c.8-1.4 1.7-2.6 2.1-4H70c-2 .5-1.8-1.8-3.5-1.4l-5 1.2c-1.3.3-5.7-.8-8.6-1.2-1 2-2 1.3-3.3.7 0 2.4 2.6 4.2 2.9 5.2.8 2.7-1.3 4.7-1 7.2a22 22 0 0 0 8.8 6.6l3.2-1.6c2.2-1.3 4.4-3.1 5.2-5 .5-1 0-2.2-.4-3.2-.7-1.7-.8-3 0-4.5M60 10.8c2.2 0 4.1-1.6 4.1-3.6S62.2 3.6 60 3.6s-4.2 1.6-4.2 3.6 2 3.6 4.2 3.6"/><path class="cls-4" d="M56.2 27V27H57.9c.5 0 1 0 1.5.2V27c-.5-.2-1-.2-1.5-.1h-.4l-.6-.1h-.7v-.1h1.6c.4 0 .9 0 1.4.2a3.4 3.4 0 0 0 1.6 0v.1H62.2l1.1.1v.1l-7.1-.1Zm.6-2.4h.7c.3 0 .6 0 1 .2s-.1.1-.1.1h-1.2l-.4-.1h-.5 2.1l-.9-.1h-1.1c.1-.2.3-.1.4 0Zm1.6.7h-1.2l-.4-.1h-.5V25h1.2l1 .1Zm.1 0v.1H57a1 1 0 0 0-.6 0v-.2h.5l.4.1h.3l1 .1Zm-.7.2h-1.5v-.1h1.3l1 .1h-.8Zm.9 0Zm.3.1h.1v.1h-1.6l-.6-.1h-.6c.2-.2.4-.1.6 0H59Zm.1.2h-1.6l-.6-.1h-.6H59v.1Zm0 .2c-.5-.2-1-.2-1.3-.2h-1.5 1.6l1.2.1v.1Zm-.3 0h-2.5v-.1h1.5l1.2.1h-.2Zm-.2.2-1.1-.1h-1.2V26h1.3l1 .1Zm-.1.1H57l-.4-.1h-.5V26h1.3l1 .1v.1Zm0 .3h.1-1.4l-.4-.1h-.6v-.1h1.2c.3 0 .7 0 1 .2Zm-2.3 0h2.4-.8c-.2 0-.3.1-.4 0h-1.2Zm0-.4h.5l.4.1h.3l1 .1h-2.2v-.2Zm.1-1.2h1.2l.9.1h-2.1V25Zm0-.1h1.2l.9.1h-1.6a1 1 0 0 0-.5 0v-.1Zm2.4 1.8Zm2.8 0H63.4v.4c-.5-.2-.9-.2-1.2-.1h-.8l-.3-.1.4-.2Zm0-.1.1-.1h1.8v.2H62c-.2-.1-.3-.1-.4 0Zm.1-.4h1l.8.1v.2c-.3-.1-.6 0-.8 0h-.2l-.3-.1h-.4v-.2h-.1Zm-.1 0L61 26h2.3v.1H61.5Zm-.6-.2V26H62.3c.3 0 .7 0 1 .2H62l-.4-.1H61Zm0-.2H62.3l1.1.1a3 3 0 0 0-1 0h-1.6v-.1Zm.5-.2h1.1l1 .1v.1a3 3 0 0 0-1.2 0H62l-.5-.1h-.3l.1-.1Zm.1-.2h1.1l.8.1v.1h-1.2l-.3-.1h-.4v-.1Zm.1-.1h1.8v.2l-.8-.1h-1v-.1Zm1.8 0h-1l-.3-.1a1 1 0 0 0-.5 0c.1-.2.3-.1.5-.1h.6l.7.1Zm-1.8-.5h1.1l.8.1H61.6h1.1l.8.1v.1H61.6v-.3Zm2-.9-.1 1c-.3-.2-.6-.1-.8-.1h-1.1v-.3h-.1v.3c0 .3 0 .6-.2.7l-.5.2v.4l.7.1c.1.2 0 .3 0 .4-1 .5-2.3.4-3-.1 0-.3.3-.3.7-.5V25.6c-.2 0-.8-.3-.7-.6v-.7.3l-1-.1h-.7c-.1 0-.3-.1-.4 0v-.8c-.4-.5-.9-.6-1.3.1l-.2 2.8c.2.6.5 1 1.2 1.4l6.8.2c.7-.1 1.3-.5 1.7-1.1v-3.3c-.3-.6-.7-.6-1 0ZM50.6 11.3c-.3 0-.5.3-.5.6s.2.5.5.5.5-.2.5-.5-.2-.5-.5-.5M69.3 11.3c-.3 0-.5.3-.5.6s.2.5.5.5.5-.2.5-.5-.2-.5-.5-.5M57.2 12.8s0-.2-.2-.3c-.1-.1-.3-.2-.4-.1 0 0 0 .2.2.3.2.2.3.2.4.1M57.2 12.9H57s0 .2.2.2h.3l-.2-.2"/><path class="cls-4" d="M57.3 12.6v.3l.2.2v-.3c0-.2-.2-.3-.2-.2M58.6 13l.1-.3c0-.2-.1-.3-.2-.3v.4h-.2v.5c0 .2.1.2.2.2v-.3c.1 0 .1-.1 0-.2M58.9 13c-.1 0-.2 0-.3.2v.3c.1 0 .2 0 .3-.2v-.4M59.3 12.6c0-.2-.2-.3-.2-.3l-.1.3c0 .2.1.3.2.3v-.3M59.5 12.9v-.2l-.1-.2s-.1 0 0 .2v.2M59.8 12.5l-.2-.2v.3l.1.2.1-.3ZM60.1 12.4v-.3c-.2 0-.2.1-.3.3l.1.3c.1 0 .2-.1.2-.3Z"/><path class="cls-4" d="M60.4 12.6v-.3l-.2.1c-.1.2-.2.3 0 .4l.2-.2M59.4 12.9h-.3s0 .2.2.2h.3s0-.2-.2-.2M61 12.8l.1-.1v-.3h-.3v.2h-.3v.5l-.2.1V13.5l.4-.4h.2l.2-.2-.1-.2M63 12.4l-.2.2v.4l.3-.3v-.3M63.4 12.7c.2-.1.3-.3.2-.3h-.3l-.2.4h.2l-.1.2h.3c.1 0 .2-.2.1-.3h-.2M62.2 12.7l-.1.2v.2l.1-.2v-.2M62.4 13l-.2.1v.2l.2-.1V13M62 13l-.2.2v.3c.1 0 .2 0 .3-.2v-.2M61.3 13c-.1 0-.2 0-.2.2v.2c.2 0 .3 0 .3-.2l-.1-.3"/><path class="cls-5" d="M56.4 23.8c-.4-.5-.9-.6-1.3.1l-.2 2.8c.2.6.3 1 1.2 1.4h4l.1-1h-4l.2-3.3ZM61 23.8c-.6.1-1 .4-1 .6 0 .2.6.3 1.2.2.6-.1 1-.4 1-.6-.1-.2-.6-.3-1.2-.2"/><path class="cls-5" d="M58.9 24.5c.6.2 1 .1 1.1 0 0-.3-.3-.6-.9-.7-.6-.2-1-.1-1.1.1-.1.2.3.5.9.6M60.7 26.1v-.5l.6-.5-.1-.4h-.7c-.3 0-.4.2-.4.3-.1-.1-.3-.3-.5-.3h-1c0 .4.4.7 1 1-.1.4-.4.6-.9.7v.2c1 0 1.5.4 2.6-.1 0-.2-.3-.3-.6-.4M60 24c.2.2.8-1.7.6-2.2-.1-.6-.3-1-.5-1 0 .4-.1.6-.3.9-.2.4-.2.4-.2 1 0 .4.2.9.4 1.3"/><path class="cls-4" d="m61.7 10.1-.5-.2.7-1.3c.4 0 .8.2 1.2.4-.3.5-.8.9-1.4 1.1m-.8.3h.1Zm-1 0s-.2-.1-.2-.3l.9.1-.2.3h-.5Zm-.7-.2.1.2h-.6l.5-.2Zm-2.5-1.3 1.6-.4.6 1.3-.9.2c-.5-.2-1-.6-1.3-1ZM58 4.4l1 .2-.7 1-1.5-.3 1.1-1Zm1.6-.5-.3.3a4 4 0 0 1-.7-.1l1-.2Zm.4 0-.4.3h-.1l.3-.3h.2Zm3 1.3-1.2.4c-.1-.4-.3-.8-.6-1.1l.5-.2c.5.2 1 .5 1.3.9Zm-1 3.1 1.3.5V9l-1.4-.5Zm-.4 0h.2-.2ZM61 10l.6-1.4h.1c-.1.5-.4 1-.6 1.4H61Zm-1.5 0h1.2v.2l-1.1-.1-.1-.1Zm-.9-1.4.6 1.3h-.1l-.7-1.3h.2Zm-.3-.3h.3v.1h-.2v-.1Zm-.1 0v.2c-.5 0-1 .2-1.6.4l-.1-.1 1.7-.5Zm-.1-.7v.6c-.5 0-1 .2-1.7.4l-.3-1h2Zm0-.4v.3h-2V7h2Zm0-1v.8h-2c0-.4.2-.9.4-1.2l1.7.4Zm.1-.1-1.6-.5 1.7.3V6Zm.4-.1V6h-.2v-.1h.2Zm.7-1.3-.6 1.1h-.2c.1-.4.4-.7.6-1h.2Zm.6-.2h.7l-1 .1.1-.1h.2Zm.3-.5.2.3h-.6l.4-.3Zm.5.3h-.1a8 8 0 0 0-.3-.3h.2l.2.3Zm.2 0-.2-.3.4.1-.2.1Zm0 0H61.6l-.4.2-.1-.1Zm-.1.2h-.1l.1-.1h.1l-.1.1Zm.7 1.3L61 4.5h.1l.7 1.1h-.2Zm.3.2h-.2l.1-.1Zm.1 0v-.2c.4 0 .8-.2 1.2-.4a8 8 0 0 1-1.2.5Zm.2 1L62 6c.4 0 .8-.2 1.2-.4.3.4.5 1 .6 1.4H62Zm0 .6h1.7c0 .4-.2.8-.4 1.2L62 8.2l.1-.7Zm-.3 0h.2l-.2.6h-.1v-.6Zm-3.4 0 .1.5h-.2v-.5h.1Zm0-.4v.3h-.2V7h.2Zm0-.2h-.2l.1-.8h.2l-.1.8Zm3.2.5h-3V7h3v.3Zm.2-.3h.2v.3h-.2V7Zm.2-.2h-.2l-.1-.8h.1l.2.8Zm-2.1-.6 1.6-.2.1.8h-3v-.7H60Zm-1.1-.5.7-1.1h.3l1-.1.6 1c-.8.3-1.7.3-2.6.1ZM60 6c.5 0 1 0 1.4-.2V6c-.8.2-1.7.2-2.7.1V6H60Zm-1.4 2v-.5h3v.6c-1-.2-2-.2-3 0Zm2.8.5c-.1.4-.3.9-.6 1.3h-1.4l-.6-1.4h2.6Zm-2.7-.2v-.1c1-.2 2-.1 2.8 0v.1h-2.8Zm5-1.1v.2h-1.6V7h1.7v.2Zm-4.6-2.7-1-.2.3-.2.8.2-.1.2Zm.3-.1h.1v.1h-.2v-.1ZM59 10l-.7.1h-.2l.8-.3v.2Zm.4 0 .2.4h-.2l-.2-.3h.2Zm-.3 0v-.2h.1l.1.1h-.2Zm1.6.2v.1h-.2l.1-.2h.1Zm.3-.2.4.1H61V10Zm-.2 0V10v.1Zm3-3c0-1.8-1.8-3.4-4-3.4h-.1c-.5 0-1 .1-1.4.3-1.4.5-2.5 1.7-2.5 3.2s1 2.6 2.5 3.2a4.5 4.5 0 0 0 2.9 0c1.5-.5 2.6-1.7 2.6-3.2ZM49.7 22.5v.2c0 .6 0 1.1.2 1.6l.2-4.8h-1.3l-.5 1.3-.3-1.4h-1.2v3H49.7ZM70.3 22.7v-.2h2.9v-3H72l-.3 1.3-.5-1.3h-1.3l.2 4.8.2-1.6"/><path class="cls-4" d="M70.5 22.7c0 5.3-4.7 9.5-10.5 9.5S49.5 28 49.5 22.7h-3.3c0 6.9 6.2 12.5 13.8 12.5s13.8-5.6 13.8-12.5h-3.3Z"/><path class="cls-5" d="m56.4 14.5.2-.2V14c-.2 0-.2.2-.3.3V14H56s.1.3 0 .2c0 0 0-.2-.3-.1v.1c0 .1.2 0 .3.2l-.3.1v.2c.2 0 .4-.2.6 0l.3.3.2-.1-.4-.4M65.4 15s.3-.2.2-.3c0-.2-.3 0-.4-.1 0-.2.2 0 .3-.3 0 0 0-.4-.2-.4l-.2.3c0-.2.2-.4 0-.6H65v.6c-.1 0-.2-.3-.4-.3l-.1.2c0 .2.3.4.2.6l-.3.9h.3c.1-.3.1-.6.3-.8l.4.1M54.1 17v-.3l.1-.1.1.3v.2h.2v-.6l.2-.1v-.1l.7.3v-.3l-1-.4.2-.3-.1-.2.1-.2V15s-.2-.1-.2 0l-.2.3v-.6H53.9v.4h-.1v.5s.3.1.2.2h-.4l-.3-.1s.2 0 .1-.1l-.1-.3h-.4v.2c-.1 0-.1-.2-.3-.2v.1l.1.3h.3v.2h.3c0 .1 0 0 .1 0s.3.1.4 0h.3l.2.1.3.3-.2.1-.3-.2c-.1 0-.2 0-.2.2l.2.2-.5-.1s-.2.1-.1.2c0 0 .2 0 .3.2l.1.3h.2M67.8 15.1c-.1 0-.1.2-.3.2v-.2h-.3l-.2.3.2.1-.3.1h-.4l.1-.2v-.1l.1-.3-.2-.1v-.3h-.2v.5l-.2-.3h-.2c-.1.1-.1.3 0 .4v.4s.1.1 0 .2l-.8.4v.4l.6-.4.3.2v.1c0 .2-.1.3 0 .4 0 .1 0 .1.1 0l.1-.4.2.1v.3c0 .1 0 .2.1.1.1 0 0-.2.2-.3l.3-.2s0-.2-.2-.2l-.4.2v-.1l.2-.2-.2-.2-.4.2H66c0-.2.2-.3.3-.4l.2-.1.2.1H67.5v-.3h.3l.1-.3v-.1"/><path d="M66.5 17.2c-.2 0-.3.2-.4.3v-.3c0-.1-.1-.1-.2 0 0 0 0 .3-.3.4l-.7.2.2.2.5-.2c.2 0 .1.2.2.3h.2v-.3c0-.1 0 .2.2 0l.3-.2h-.3c.1 0 .3 0 .4-.3l-.1-.1" style="fill:#ffcc04;fill-rule:evenodd"/><path class="cls-5" d="M54.6 18.4h-.2v.3l-.4-.3-.1.1c0 .2.3.3.4.3H54l.2.3h.3c0 .1-.2.1-.2.3h.3c.1 0 0-.3.2-.3l.7.4v-.2l-.7-.4c-.1 0 0-.3-.2-.5M60 14.4l-.3-.2-.1-.2v-.2l.2-.1v-.2h.1l.2.1v.8Zm3-1-.4.1.1-.2h-.2l-.6.2h-.4l-.3-.1c-.1 0-.1.3-.2.2v-.1h-.2v.6l-.3.1h-.1v-.7l-.2-.1h-.5c0 .1 0 .2-.2.2l-.3-.1v.2H59c0 .2.3.4.1.4-.3 0-.6-.2-.8-.5l-.8-.5.7.7H58v-.2h-.3v.3s0-.2-.2-.2c0 0-.2 0-.2.2 0 0 .3.1.2.2l-.3-.1s-.1 0 0 0c0 .2.1.2.2.2s.1-.1.2 0c0 0-.1 0 0 0 0 .2 0 .1.2.1l.1-.2c.2 0 .5-.2.6 0h.3l-.1.2h-.3c-.1 0-.2 0-.2.2l.2.2v-.2l.1.2h.3v-.1.2h.3l.3-.3c.2 0 .6 0 .6.2v.6l.1.2.3-.3v-.7l.4-.2h.1c.1.1.3 0 .3.2 0 .1-.3.2-.2.3h.3v-.3c.2 0 .1.2.2.3l.2-.1c0-.1.1-.2 0-.2l-.2-.1c0-.1.3-.2.2-.3h-.2c.1-.2.3-.3.4-.3h.5v.3h.3s-.1 0 0-.1h.3c.1 0 .2 0 .2-.2l-.3-.3Z"/><path class="cls-4" d="M61 24c-.4 0-.7.2-.7.3 0 .1.4.2.8.1.4 0 .7-.2.6-.3H61M59.1 24h-.7c0 .1.2.3.6.3.4.1.7.1.8 0 0-.1-.3-.3-.7-.3M61.6 17.1h-1.1l-.3.3v.1l1.4-.4zM60.2 17.6v.1l.9 1.1-.4-1.1-.5-.1zM60.1 18.1v-.5l-1 1.2 1-.7zM59.7 17.1l.4.5v-1.5l-.4 1z"/><path class="cls-4" d="m64.8 20.7-3.8-.2a3 3 0 0 1-.4.2h-.4a1.9 1.9 0 0 1-.8-.2l-3.8.2v-5h.5l-.2.2v4.5l3.6-.2c.2.2.4.2.7.2l.6-.2 3.6.2V16l-.2-.3h.6v5.1ZM56 16l.4-.7v4l-.4.8V16Zm1.5 3.4h.8l1.2.1c.3.2.4.4.4.7l-.4-.2-3.3.2.4-.7 1-.1Zm2-2.3.5-1.2v-.3h.1v.7l.3.7h1.3l-1 .8.5 1.2-1-.7V20H60v-1.8l-1.2.8.5-1.2-1.1-.7h1.3Zm3 2.3 1 .1.5.7-3.3-.2-.5.2c0-.6.5-.9 1.6-.9h.8Zm1.2-4.1.4.7v4l-.4-.7v-4Zm.3.1-.3-.5a11.8 11.8 0 0 0-1.8-.2 3 3 0 0 0-1.2.2c-.3 0-.5.3-.6.5l-.7-.5-1.1-.2a7.1 7.1 0 0 0-1.9.3l-.3.5h-.9V21l4-.3a2.6 2.6 0 0 0 1 .2 1.8 1.8 0 0 0 .7-.2l4 .3v-5.5H64Z"/><path class="cls-4" d="m60.1 17.6-1.6-.5 1 .6.6-.1zM60.1 17.6z"/><path class="cls-6" d="m52.2 30.2.2.2V31l-.3.2h-.4l-.1-.2.5-.8h.1Zm.4 1 .2-.3v-.7c-.1 0-.2 0-.3-.2l-.5-.4-.9 1.5.5.4.3.1h.5l.3-.4ZM54.7 31.5l-.3-.2-.7 1.6 1 .5.2-.3-.7-.4.5-1.2zM57.7 32.5l-.4-.1-.3 1.7 1.2.2V34l-.7-.1.2-1.4zM59.5 33.6l-.2.4h-.5l-.1-.5.1-.4.3-.1.3.1v.5m-.3-1h-.3l-.2.2-.2.2-.1.5c0 .3 0 .5.2.7l.5.3.6-.2.2-.7-.1-.7a.7.7 0 0 0-.6-.3ZM51.7 29.3l-.6.8.2-1.2-.3-.3-1 1.4.2.2.6-.7-.2 1.1.3.3 1-1.3-.2-.3zM56.3 33.3h.3v.3h-.4a.4.4 0 0 1-.2-.3V33c0-.2 0-.3.2-.4h.3l.2.1v.2l.4.1-.1-.5-.4-.2c-.2 0-.3-.1-.4 0l-.4.1-.2.5v.5l.1.4.4.2h.8l.1-.7-.7-.3v.4ZM53.5 31.3l-.1.5-.3-.1.4-.4Zm0-.5L52.2 32l.4.2.2-.3.5.3v.4l.3.3.2-2-.3-.1ZM47.5 25.6l-.3.2.1.3.4-.2-.2-.3zM47.3 25a.4.4 0 0 1-.2-.3v-.4s.1-.2.3-.2l.2-.1h.1l.3.3v.3l-.3.3h-.4m.5.4.5-.5v-.7l-.2-.3-.2-.2h-.3a1 1 0 0 0-.4 0l-.5.5v.7l.4.5h.7ZM48.1 27.4l.2.3.3-.2-.3-.3-.2.2zM49.8 28.8l.8-.7-.3-.3-.8.8h-.2c-.1 0-.1 0 0-.1v-.2l-.2-.3-.3.4c0 .2 0 .3.2.5l.3.2h.3l.2-.2M48.7 27Zm-.2-.7v-.1l.2-.2.2.3V26.6h-.2l-.2-.3Zm.7.3v-.3l-.1-.3-.3-.5-1.3.8.1.4.5-.3.1.1c0 .2.1.3.2.3l.1.2h.5l.2-.3ZM60.5 33.7h.3V34h-.5v-.3h.2Zm.3-.4h-.5V33h.4l.1.2v.1Zm.2.2.1-.1v-.5l-.1-.1-.2-.1H60v1.8h1l.2-.2.1-.2v-.5l-.2-.1ZM50.7 28.3l-1.2 1.2.3.3 1.1-1.2-.2-.3zM69.3 30.2l-.2-.3.5-.6-.2-.3-.6.6-.2-.2.6-.6-.2-.3-.8.9-.3.3.3 1.1-.9-.7-.3.3-.3.2.8 1.5.3-.2-.8-1.5 1.4 1.1.3-.3-.5-1.7 1.1 1.2.8-.9-.2-.3-.6.7zM69.8 28.6l-.2-.2.1-.2.2-.2h.2v.2l-.1.3-.1.1Zm.7-.3V28l-.2-.3-.2-.1h-.3l-.2.3-.5.6 1.2 1.1.2-.3-.4-.4v-.2h.9l.2-.3h-.4l-.3-.1ZM73.2 24.6l.1-.3-.6-.3-.6-1-.2.5.4.5-.6.2-.1.3h-.1v.1l-.5 1.1-.2.4 1.3.9.2-.3-1-.8.2-.4 1.1.6.2-.3-1.2-.7.2-.4-.1-.1.9-.2.6.2zM71.6 27c0-.2-.1-.2-.3-.2h-.2l-.3.3-.2.2-.1-.1V27l.2-.2h.1v.1l.3-.3a.4.4 0 0 0-.4-.1c-.2 0-.3.1-.4.3l-.1.3v.3l.1.2c.1 0 .3.1.4 0 0 0 .2 0 .3-.2l.2-.1h.2v.3l-.2.1H71l-.2.3.4.2.5-.4.1-.3V27l-.2-.2M66.3 30.9l.4.9-.9-.7-.3.2.7 1.6.3-.2-.4-.9.9.6.3-.1-.7-1.6-.3.2zM65 33.4Zm.7-1.2-.3-.8-.4.1.4 1v.4h-.1l-.2.1-.1-.1-.1-.2-.4-1-.3.2.3.9.2.4.1.1.3.1h.3l.3-.3V33l.1-.2-.1-.5ZM62.2 33.5h-.4l.2-.4.2.4Zm-.5-1-.4 1.9h.4v-.5h.6l.2.3h.4l-.8-1.7h-.4ZM63.3 33.7l-.3-1.4-.3.1.3 1.7 1.1-.3-.1-.3-.7.2z"/><path d="M49 48V48l.1-.2v-1.1l-.2-.1-.2-.1h-.5v.1l-.2.2-.1.3V47.9l.1.1.1.1.1.1h.1l.2.1a.6.6 0 0 0 .4-.2h.1m.3-1.6v.2a1.2 1.2 0 0 1 .3.4v.5l-.1.2a1.1 1.1 0 0 1-.2.3l-.2.2H49l-.2.1H48.1l-.2-.1-.1-.2-.1-.1-.1-.2v-.2l-.1-.3V47a1.1 1.1 0 0 1 .3-.4l.2-.1.1-.1h.2l.2-.1a1 1 0 0 0 .6.2l.2.1ZM70 47.8v.6h-1.8v-.1h.2V46.4h-.1v-.1h-.1v-.1h1.6v.5l-.1-.1-.1-.1-.1-.1h-.7v.8h.4v-.1h.1V47h.2v.8h-.1V47.5H68.7v.7H69.8V47.8l.1-.1h.2Zm-3 .7H67l-.2-.1-.2-.1-.1-.2-.2-.1v-.2l-.1-.2v-.7l.1-.2.2-.2.1-.1.2-.1h.2l.2-.1h.4l.1.1h.2v.7h-.1v-.2l-.1-.2-.2-.1v-.1h-.7v.2l-.1.1-.1.2v.4a1.3 1.3 0 0 0 0 .4v.2l.1.1.1.1.2.1h.6l.1-.1V48l.1-.1h.2l-.2.2c0 .1 0 .2-.2.2l-.2.1H67Zm-1.2-2.1h-.2l-.1.2v1.8h-.2L64 46.7V48h.1v.1H64.5v.2h-.9v-.1h.2v-.1h.1V46.4h-.1v-.1h-.2v-.2h.6l1.2 1.6V46.5h-.1l-.1-.1H65v-.2h.8v.2Zm-2.5 1.4v.6h-1.8v-.1h.2V46.4h-.1l-.1-.1v-.1H63v.5H63v-.1l-.1-.1-.1-.1H62v.8h.4v-.1h.1V47h.2v.8h-.1v-.1l-.1-.2H62v.7H63l.1-.2V48l.1-.1h.1Zm-2.1-1.4H60.8v2h-.2l-1.3-1.7V48h.1v.1h.2v.2H59v-.1h.1l.1-.1.1-.1V46.5H59l-.1-.1h-.1v-.2h.6l1.2 1.6V46.5h-.1l-.2-.1v-.2h.8v.2Zm-2.6 2h-1v-.1h.2l.1-.1V46.3h-.2v-.2h1v.1H58.3v.1h-.1V48.2l.1.1h.2v.1Zm-1.3 0h-1v-.1h.2l.1-.1v-1.6l-.7 1.8-.8-1.9v1.6h.1v.1h.2v.2h-.8v-.1h.2v-.1l.1-.1v-1.6h-.1l-.2-.1v-.1h.7l.6 1.6.5-1.4v-.1h.1v-.1h.7l-.1.1H57V48.3h.2v.2Zm-3-.6v.6h-1.8v-.1h.2l.1-.1V46.4h-.1l-.1-.1v-.1h1.6v.5H54v-.1l-.2-.1v-.1h-.7v.8h.4V47l.1-.1h.2v.8h-.2V47.5H53v.7h.9V48l.1-.1v-.1h.2Zm-7.7-1.4h-.2l-.1.2v1.8H46l-1.3-1.7V48h.1v.1H45.3v.2h-.9v-.1h.2v-.1l.1-.1V46.5h-.1v-.1h-.2v-.2h.6l1.2 1.6V46.5H46l-.1-.1h-.1v-.2h.8v.2ZM43.5 48V48l.1-.2v-.9l-.1-.2-.1-.1h-.1l-.2-.1h-.4l-.1.1-.1.2-.1.3V48l.2.1v.1h.2l.2.1a.6.6 0 0 0 .4-.2Zm.2-1.5.1.2a1.2 1.2 0 0 1 .2.4v.7a1.1 1.1 0 0 1-.3.3l-.1.2h-.2l-.2.1H42.6l-.2-.1-.2-.2V48l-.2-.2V46.9a1.1 1.1 0 0 1 .3-.4l.1-.1.2-.1h.2l.2-.1h.4l.2.2.1.1Zm-2.1 1.9h-1v-.1h.2l.1-.1V46.3h-.2v-.2h1v.1H41.3V48.3h.2v.1Zm-1.2-1.6h-.1v-.1h-.1v-.1l-.1-.1-.1-.1H39.6v1.8h.2v.2h-1v-.1H39.3v-1.9H38.8l-.1.1v.1l-.1.1v.1h-.2v-.6h1.9v.6Zm-2-.4H38v1.4l-.1.1v.2l-.2.1v.1h-.2l-.1.1h-.8v-.1l-.2-.1V46.5h-.1v-.1h-.2v-.2h.9v.2h-.2V48.2h.2v.1h.6l.1-.1v-.2l.1-.1v-1.3l-.2-.1h-.1v-.2h.8v.1Zm-2.5.4h-.1v-.1h-.1v-.1l-.1-.1-.1-.1H35.1v1.8H35.5v.2h-1v-.1h.2v-1.9H34.4v.1h-.1v.1l-.1.1v.1H34v-.6H36v.6Zm-2.1 1.6h-1v-.1h.2v-.1h.1V46.3H32.7v-.2h1v.1h-.2l-.1.1V48.2l.1.1h.2v.1Zm-1.3-1.6-.1-.1-.1-.1v-.1h-.1v-.1h-.4v1.8H32.2v.2h-1v-.1H31.5v-1.9H31l-.1.1-.1.1v.1l-.1.1h-.1v-.6h1.9v.6Zm-2.2.6v.2h.1v.4l-.2.2-.2.2h-.8v-.1l-.1.1h-.2v-.7h.2v.2l.1.1v.1h.2v.2h.5l.1-.1v-.5l-.2-.1h-.1l-.1-.1h-.1l-.1-.1-.2-.1-.1-.1a.6.6 0 0 1-.1-.4V46.5l.2-.1.2-.1H30.4v.7H30V46.7l-.1-.1-.1-.1-.2-.1H29.4l-.1.2V47h.1l.1.1.1.1h.2l.1.1h.1l.1.1h.1v.1Zm-1.6-1H28.3v2h-.2l-1.3-1.7V48l.1.1h.2v.2h-.8v-.1h.2V46.4l-.1-.1h-.1v-.2h.6l1.2 1.6V46.6l-.1-.1-.2-.1h-.1v-.2h.9v.2Zm66.2 1.4v.6H93v-.1H93.3V46.4H93v-.2h1.6v.5h-.1v-.1l-.1-.1-.1-.1H93.7v.8h.4v-.1h.1V47h.2v.8h-.1v-.1l-.1-.2h-.5v.7H94.6l.1-.2V48l.1-.1h.1Zm-2.6 0v-.2l-.1-.2h-.6V48.1H92.2V48l.1-.3Zm-.2-.7v-.6l-.1-.1h-.4v.8h.4l.1-.1Zm.4.3.1.1v.2l.1.1V48.1h-.2v.1l-.2.1H91h.1v-.1h.1V46.3H91v-.2h1.2l.2.1a.6.6 0 0 1 .1.2v.4l-.1.1v.1h-.2l-.1.1h.2l.2.1Zm-3.1.6V48l.1-.2v-.9l-.1-.2-.1-.1h-.1l-.2-.1h-.4l-.1.1-.1.2-.1.3V48l.2.1v.1h.2l.2.1a.6.6 0 0 0 .4-.2Zm.2-1.5.2.2a1.2 1.2 0 0 1 .1.4v.7a1.1 1.1 0 0 1-.3.3l-.1.2h-.2l-.2.1H88.5l-.2-.1-.2-.2V48l-.2-.2V46.9a1.1 1.1 0 0 1 .3-.4l.1-.1.2-.1h.2l.2-.1h.4l.2.2.1.1Zm-2 .3h-.1v-.1h-.1v-.2h-.1v-.1h-.5V48l.1.1h.2v.2h-1v-.1H86.5v-.1h.1v-1.8h-.4v.1H86v.1l-.1.1v.1h-.2v-.6h2v.6Zm-3.1.5V47l-.2-.1v-.1a.6.6 0 0 0-.3-.2h-.2l-.1-.1H83.4V48.2H84.2l.2-.2v-.1l.1-.2v-.4Zm.4 0v.3l-.2.2v.2l-.2.1-.2.1-.2.1h-.2l-.2.1h-1v-.1H83V46.4h-.2v-.2H84l.2.1.1.1.2.2.2.2v.5Zm-2.4.5v.6h-1.9v-.1H81V46.4h-.1l-.1-.1v-.1h1.6v.5h-.1v-.1l-.2-.1v-.1h-.7v.8h.4v-.1l.1-.1V47h.2v.8h-.2V47.5h-.5v.7h.8V48l.2-.1v-.1h.1Zm-2.3.6h-1v-.1H79.6l.1-.1v-1.6l-.7 1.8-.8-1.9v1.6h.1v.1h.2v.2h-.8v-.1h.2v-.1l.1-.1v-1.6h-.1l-.1-.1h-.1v-.1h.7l.6 1.6.5-1.4v-.1h.1v-.1h.7l-.1.1H80V48.3h.2v.2Zm-2.9-.6v.6h-1.8v-.1h.2V46.4l-.2-.1v-.1h1.7v.5H77v-.2l-.2-.1H76v.8h.4l.1-.1V47l.1-.1h.1v.8h-.1V47.5H76v.7H77l.2-.2v-.2h.2Zm-2 0-.1.6h-1.8v-.1h.2V46.4h-.1v-.1h-.1v-.1H75v.5l-.1-.1-.1-.1-.1-.1H74v.8h.4l.1-.1V47h.2v.8h-.1V47.5H74v.7H75V47.8l.1-.1h.2Zm-2.7-.5v-.5l-.2-.1a.6.6 0 0 0-.2-.2H72l-.2-.1h-.2V48.2h.8V48l.1-.1.1-.2v-.4Zm.4 0v.5l-.2.2-.1.1-.2.1-.2.1H72l-.3.1H71v-.1H71.2V46.4H71v-.2h1.3l.2.1.1.1.2.2.1.2.1.2v.3Zm-21.4-.5h-.1v-.1l-.1-.2h-.1l-.1-.1H50.5v.8h.4l.1-.1v-.2h.2v.8h-.1v-.1H51v-.1l-.1-.1h-.4V48.2h.2v.2h-1v-.1H50.2V46.4l-.1-.1h-.1v-.1h1.7v.5Zm.5 12.6h-.2a.5.5 0 0 1-.3-.2V59H51.9v.2h.4l.1-.1V58.8h-.1l-.2-.1H52v-.1h-.1v-.1h-.1v-.2l.1-.4h.2l.2-.1h.5V58.2H52.4V58H52V58.4l.2.1a.8.8 0 0 1 .3.2v.1l.1.1a.5.5 0 0 1-.2.4l-.2.1h-.2Zm-.6-1.3v.2h-.2l-.1-.1V58H51v.1h-.2v.2l-.3 1h-.3l.2-1V58h-.2v-.2h.5v.2l.2-.1.1-.1h.4v.2Zm-1.7 0V58h-.4a.7.7 0 0 0-.2.4l-.1.2H49.5l.1-.1h.1l.1-.2V58Zm.3 0v.2l-.1.1-.2.1h-.1l-.2.1h-.1l-.2.1h-.1v.4h.2l.1.1h.2l.2-.2h.2l-.1.2h-.2l-.2.2h-.2a.6.6 0 0 1-.4-.2l-.1-.1v-.8l.2-.2V58l.2-.1H50v.1l.1.1Zm-1.5 0v.5l-.2.2v.2l-.2.1a1 1 0 0 1-.3.3h-.4l-.1-.1a.4.4 0 0 1-.2-.3v-.1l.2-.5V58H47v-.2h.6V58.3l-.1.6V59.2h.5l.1-.2a.8.8 0 0 0 .1-.2V57.8h.2l.1.1v.2Zm-1.5-.9v.2h-.4V57H47v.2Zm-.1 2-.2.1h-.4v-1h.1V58H46.1V58h.2l.1-.1h.3V58.2l-.2.7V59.2H47Zm-1 0v.1h-.5l-.1-.2V59l.2-.6V58h-.2c-.1 0 0 0 0 0h-.2l-.1.1-.1.1-.3 1.1h-.3l.3-1V58H44.3V58h.2l.1-.1h.2l.1.1v.1h.2l.1-.2h.5V59.2h.2Zm-3 .2h-.3l-.2-.1-.1-.2v-.2l.2-1.4v-.1h-.2v-.2h1l-.1.1H43v.1l-.3 1.3v.4h.1l.2.1h.4V59h.2v-.2h.1v-.2l.1-.2v-.3l.1-.2v-.2l.1-.1V57.3h-.2v-.2h.8v.1h-.2l-.1.1v.1l-.1.1v.4l-.1.2v.2l-.1.3-.1.2-.1.1-.1.1-.1.1h-.2l-.1.1H43ZM41 58V58h-.4a.7.7 0 0 0-.3.4v.2h.2l.2-.1h.1v-.2h.1V58Zm.2 0V58.4l-.2.1h-.2l-.1.1h-.2l-.1.1h-.2v.2l.1.2h.1l.2.1h.2l.1-.2h.2l-.1.2h-.2l-.2.2h-.1a.6.6 0 0 1-.5-.2v-.1l-.1-.3V58.5l.1-.2.1-.2.1-.1.2-.1h.7v.2Zm-2 1.3H39V59c0-.4 0-.7.2-1h-.3v-.2h.3l.1-.5h.3l-.1.5h.4v.1h-.4l-.2.8V59.2H39.6v.2h-.4Zm-1-1.2V58h-.5v.2l-.2.1V59.1h.5V59l.3-.8Zm-.2 1h-.1v.1h-.5a.4.4 0 0 1-.3-.3V58.4l.2-.1V58l.2-.1.2-.1H38.6c0 .3 0 .6-.2 1v.2H38.8v.2H38v-.1ZM37 58l-.1.5-.1.2-.1.2-.2.1a1 1 0 0 1-.3.3h-.4l-.1-.1a.4.4 0 0 1-.1-.3v-.1l.1-.5V58h-.2v-.2h.5v.9h-.1V59.2h.5l.1-.2a.8.8 0 0 0 .2-.2v-.5l-.1-.1V57.7h.2l.1.1v.2Zm-1.6-.9v.2H35V57h.2l.1.2Zm-.1 2-.1.1h-.5V59l.1-.7V58h-.2v-.1h.5V58.2l-.1.6V59.2h.2Zm-.8-1.1v.1l-.1.1h-.2V58H34l-.2.1-.1.2-.3 1h-.3l.3-1V58H33.1v-.2h.6v.2l.2-.1v-.1h.5v.2Zm-1.8 0v-.7h-.5l-.2.9h.4l.2-.2Zm.5-.5v.2l-.1.2H33l-.1.2h-.2l-.1.1H32l-.2.7v.1h.2v.2h-.9v-.1H31.5V59l.4-1.6v-.2h-.2v-.1H33l.1.2v.2Zm-3.7 1.7.1-.1h.1v-.6H29l-.1.2v.1h-.1v.2l.1.1h.1v.1h-.8l.1-.1h.1V59h.1V59l.4-.5.3-.4.2-.5.3-.4h.1l.3 1.8v.1h.1v.1h.1v.2h-.8ZM79 57l-.4 2v.1H79v.2h-.6V59l.3-1.6v-.2h-.2V57h.6Zm-1.3 1.4V58h-.1l-.1-.1H77.2v.1H77l-.3 1h.1v.1h.4l.1-.1.1-.1v-.1l.1-.2V58.4Zm.3 0v.4l-.1.2-.2.1v.1l-.2.1h-.8l-.1-.1.3-1.8v-.2h-.2V57h.6l-.2 1 .1-.2h.7v.3l.1.2Zm-2.3.7-.1.1-.2.1H75l-.1-.1v-.4l.1-.4V58H74.7l.1-.1h.5V58.2l-.1.6V59.2h.4l.1-.1.3-1.2h.3l-.3 1V59.2H76.4v.2h-.5l-.1-.1Zm-1.5-1 .1-.2v-.5h-.5l-.2.9h.4l.1-.2h.1Zm.5-.5v.4h-.1l-.1.2h-.2l-.1.1H73.6l-.2.7v.1h.2v.2h-.9v-.1H73V59l.4-1.6v-.1h-.2v-.2h1.2l.2.1.1.2v.1Zm-3.2.6V58H71l-.1.2v.1l-.1.2v.6h.4l.1-.1.2-.8Zm-.2 1h-.1l-.1.1h-.5a.4.4 0 0 1-.2-.3V58.4l.1-.1.1-.2.2-.1.1-.1h1l-.2 1.1v.3l-.2.2v.2h-.2l-.1.2H70.9l-.2.1H70.3V59.6h.2l.1.1h.4v-.2l.2-.1V59Zm-1 0h-.1l-.1.1h-.5V59l.1-.6V58H69.4l-.1.1-.1.1-.3 1.1h-.3l.2-1V58h-.2V58h.2v-.1H69.2v.1l.1.1h.2v-.2H70v1h-.1V59.2H70.3Zm-1.8-2v.2H68.2V57H68.5v.2Zm0 2h-.1l-.1.1h-.5V59l.1-.7V58h-.2v-.1h.5V58.2l-.1.6V59.2h.2Zm-1.5.2h-.2l-.1-.2V59l.2-1h-.3v-.2h.4v-.5h.4l-.1.5h.4v.1h-.5l-.2.8V59.2h.4v.2H67Zm-.9-1V58h-.5l-.1.1-.1.2V58.6l-.1.1v.5h.5l.1-.1V59l.1-.2v-.1l.1-.2v-.1Zm.3 0v.4a.9.9 0 0 1-.2.3l-.1.1-.2.1h-.2l-.2.1h-.2l-.2-.2-.1-.1v-.7l.1-.1.1-.2h.1l.2-.2H66l.2.1v.2l.1.2Zm-1.6.8-.1.1h-.5V59l.1-.6V58h-.4l-.1.2-.3 1.1h-.3l.2-1V58H63l-.2.2-.2 1.1h-.3a35.4 35.4 0 0 0 .2-1V58h-.2v-.1h.2l.1-.1h.2v.2h.2l.1-.2h.5l.1.1v.1h.2l.1-.2h.5v.1l.1.2v.2l-.1.5V59.1h.2Zm-3-.9v-.1l-.1-.2h-.4l-.1.1-.1.2v.1l-.1.2V59.2h.5V59l.1-.1.1-.2v-.4Zm.3.1v.4a.9.9 0 0 1-.2.3l-.2.1-.1.1h-.2l-.2.1H61l-.2-.2-.1-.1V58.3l.2-.2h.1l.2-.2H61.8l.1.1.2.2v.2Zm-1.5-.3v.1h-.1v.1h-.2V58H60v.1H60l-.1.2-.3 1h-.3l.3-1V58H59.2v-.2h.5l.1.2.2-.1v-.1h.5v.2Zm-1.9 0v-.2h.1v-.5h-.5l-.2.9h.4l.1-.2h.1Zm.5-.5v.4H59l-.2.2-.3.1H58l-.1.7v.1h.2v.2h-.9v-.1H57.5V59l.4-1.6v-.2h-.2v-.1h1.4l.1.2v.2ZM56 59.1l-.1.1a1 1 0 0 1-.3.1H55.2l-.1-.1v-.8h.1V58H54.8v-.2H55.5V58.3l-.1.6V59.2h.4l.1-.1.3-1.1h.2l-.2 1.2a4.2 4.2 0 0 1-.1.4l-.1.2h-.1l-.2.2h-.1l-.2.1H55V59.6H55.2v.1h.4l.1-.2v-.1l.1-.2v-.1Zm-1.7.3H54V59c0-.4 0-.7.2-1h-.3v-.2h.3l.1-.5h.3l-.1.5h.4v.1h-.5l-.1.8V59.2H54.6v.2h-.4Zm-.4-2.1v.1H53.4l-.1-.2V57H53.8v.2Zm-.1 1.9-.2.1H53V59l.1-.7V58H52.9V58h.2l.1-.1h.3V58.2l-.2.7V59.2H53.6Zm38-1.1-.1-.1H91.2a.7.7 0 0 0-.3.4v.2H91.3v-.1h.2v-.2h.1V58Zm.2 0-.1.3-.1.1h-.2l-.1.1h-.2l-.1.1h-.2v.2l.1.2h.1l.1.1H91.5l.1-.2h.2l-.1.2h-.2l-.2.2h-.2a.6.6 0 0 1-.4-.2v-.1l-.1-.3V58.5l.1-.2.1-.2.1-.1.2-.1h.7v.2Zm-2.1 1.3h-.2l-.2-.2-.2-.2V58.4l.1-.1.1-.2.1-.1.2-.1h.7v.1l.1.2v.1l-.1.1h-.2V58h-.4l-.1.2-.1.3v.6h.1l.2.1h.2l.1-.2h.2v.2a1 1 0 0 1-.4.2h-.2Zm-.6-2.1v.1h-.4V57H89.2v.2Zm-.2 1.9v.1h-.5l-.1-.2V59l.2-.7V58H88.2l.1-.1h.5V58.2l-.2.6V59.2H89Zm-.9-1.1v.5l-.1.2-.1.2-.2.1a1 1 0 0 1-.3.3H87l-.1-.1a.4.4 0 0 1-.1-.3v-.1l.1-.5V58h-.2v-.2h.5v.9H87V59.2h.5l.1-.2a.8.8 0 0 0 .2-.2v-.5l-.1-.1V57.7h.2l.1.1v.2Zm-1.5 0v.1l-.1.1h-.2V58h-.1l-.2.1-.1.2-.3 1h-.2l.2-1V58H85.2v-.2h.6v.2l.2-.1v-.1h.5v.2Zm-1.8 0V58H84.4a.7.7 0 0 0-.3.4v.2h.2l.2-.1.2-.2V58Zm.3 0v.2l-.1.1-.1.1h-.2l-.1.1h-.2l-.1.1H84v.2l.1.2h.1l.1.1H84.7l.1-.2h.2l-.1.2h-.2l-.2.2h-.2a.6.6 0 0 1-.4-.2v-.1l-.1-.3V58.5l.1-.2.1-.2.1-.1.2-.1h.7v.2Zm-2.4 1.3H82.4l-.1-.1H82l.1-.7h.2v.5h.2l.2.1h.4l.1-.2v-.4l-.2-.1-.2-.1-.2-.1v-.1l-.2-.1V57.5l.2-.2.2-.1h1l-.2.7h-.1v-.4l-.1-.1h-.1l-.1-.1h-.4a.4.4 0 0 0-.2.4v.1l.1.1h.1l.1.1h.2l.1.1.2.1v.1l.1.2v.5l-.2.2h-.1l-.2.1H82.7Zm-2.2 0h-.2l-.2-.2-.1-.2V58.3l.2-.2V58l.2-.1H81.1l.1.1v.4H80.8V58H80.5l-.2.2v.3l-.1.3v.3h.2l.1.1h.2l.2-.2h.2l-.1.2a1 1 0 0 1-.4.2h-.2Zm-.6-2.1v.1H79.6V57H80v.2Zm-.1 1.9-.1.1h-.5V59l.1-.7V58H79V58h.2v-.1H79.6V58.2l-.1.7V59.2h.2Zm-50.1-.7-.1-.8-.5.8h.6Zm-3.6-10.1h-1v-.1h.2l.1-.1V46.3h-.2v-.2h1v.1H25.8v.1h-.1V48.2l.1.1h.2v.1Z" style="fill:#2c2a29"/><path d="M81 50.7h-.2l-.1.2h-.1l-.2.2a6.8 6.8 0 0 0-.4.7l-.2.4-.3.5-.1.2v.1l-.1.2v1.2h.1v.1H79.8l.2.1h.1v.3H78v-.3h.6v-.2l.1-.2V53l-.1-.1-.1-.2-.2-.4-.2-.4-.2-.4-.2-.3-.1-.2h-.1v-.2h-.2l-.1-.1h-.2v-.3h1.9v.3h-.5l-.1.1V51.2l.4.5.1.3.4.7.4-.7.4-.5a3.4 3.4 0 0 0 .2-.5v-.1h-.2v-.1h-.4v-.3h1.6v.3Zm-4.4 1h-.2v-.2l-.1-.1-.1-.2-.1-.1-.1-.1-.1-.2H75v3.6h.1l.1.1h.2l.2.1h.1v.3h-2v-.3h.5v-.1l.1-.1v-3.7h-.7l-.1.1-.2.2-.1.2-.1.2v.1l-.1.1h-.3v-1.2h4v1.2Zm-4.5 3.2h-2v-.3H70.7v-3.7l-.1-.1h-.2l-.2-.1v-.3h2v.3h-.6v3.7l.1.1h.2l.1.1h.2v.3Zm-3-2 .2.3v1l-.4.4-.5.3h-1.2l-.3-.1-.2-.1-.1.2h-.3v-1.6h.2l.1.3.1.3.1.2.2.2.1.1.2.2H68.4v-.1l.1-.1.1-.2v-.5l-.1-.3-.2-.2-.2-.1-.3-.1h-.2l-.2-.2a2.2 2.2 0 0 1-.6-.3l-.2-.2-.2-.4v-.8l.2-.2c0-.1 0-.2.2-.2l.2-.2h.2l.2-.2h.3a1.4 1.4 0 0 1 .6.1l.2.1.2.1.1-.2h.3V52h-.3v-.2l-.1-.3-.1-.2-.1-.2-.2-.2h-.2a1 1 0 0 0-.4-.2.8.8 0 0 0-.5.2l-.2.2v.5l.1.2.2.2.2.1.2.1.2.1.3.1.2.1h.1l.2.2.2.1.1.1Zm-5-1.3v-.4l-.2-.3-.3-.1a1 1 0 0 0-.4 0h-.5v1.8h.4a1 1 0 0 0 .7-.3 1 1 0 0 0 .3-.7Zm1.7 3.3h-1.2l-.4-.6a41 41 0 0 0-.3-.5l-.4-.5a12 12 0 0 0-.3-.4h-.5V54.5H63v.1H63.4v.3h-1.9v-.3h.5v-.2h.1V50.8h-.2l-.1-.1h-.2v-.3H64l.3.1.2.1.1.2.2.2v.2l.1.3v.4l-.2.2-.1.2-.2.1-.2.1-.2.1-.2.1a7.3 7.3 0 0 1 .6.7l.5.7.1.2.1.1h.1l.2.1a1.6 1.6 0 0 0 .3.1v.3Zm-5.1-1.3-.1 1.3h-3.7v-.3h.5v-.1l.1-.1V50.8H57l-.1-.1v-.3h3.4v1.1h-.2l-.1-.2a1.6 1.6 0 0 0-.4-.5h-1.4v1.7H59l.1-.1.1-.1v-.1l.1-.2v-.2h.4v1.7h-.3V53.2l-.1-.2-.2-.1v-.1h-.9v1.7h.1l.1.1H60l.2-.3.1-.2.1-.3.1-.2h.3Zm-4.3-3-.1.1H56l-.1.2-.1.2h-.1c0 .3-.2.5-.3.7l-.3 1-.5 1-.4 1.1H54l-.9-2.3-.3-1-.2-.5V51h-.1l-.1-.2h-.2v-.1H52v-.3h1.8v.3h-.5V51l.3 1 .7 1.7v.2l.3-.6.3-.7.2-.7.2-.4v-.3l.1-.1V50.8h-.2v-.1h-.4v-.3h1.7v.2Zm-5 4.3h-2v-.3h.6v-.1l.1-.1V50.9l-.2-.1h-.2l-.1-.1h-.1v-.3h2v.3H51l-.1.2V54.4l.1.1h.2l.2.1h.1v.3ZM49 50.7h-.5v.1l-.2.1v4h-.4l-2.6-3.6v2.3a3.5 3.5 0 0 0 0 .6l.1.1v.1l.2.1h.2l.1.1h.2v.3H44v-.3h.5v-.1l.1-.1.1-.2V51h-.1l-.2-.1-.1-.1h-.2l-.1-.1v-.3h1.2l2.5 3.4V51l-.1-.1v-.1h-.2l-.2-.2H47v-.3H49v.3Zm47.3-9L96 43h-3.7v-.3h.4l.1-.1.1-.2v-3.6l-.1-.1h-.2l-.2-.1v-.3h2v.3H94l-.1.1-.1.2V42.7l.2.1h1.3l.2-.3.2-.2.1-.3.1-.2h.3ZM90 41l-.6-1.7-.7 1.7H90Zm2 2h-2v-.3h.4l.1-.1v-.2l-.3-1h-1.6l-.1.2v.1l-.2.4v.4l.2.1h.2l.2.1v.3h-1.7v-.3h.2l.2-.1v-.1h.2v-.2l.1-.1.4-1 .4-1 .7-2h.3l1.6 4v.2l.2.1.1.1h.4v.4Zm-6.2-1.4a.9.9 0 0 0-.3-.7l-.3-.2h-1v1.8h.2a.8.8 0 0 0 .4.2h.5l.3-.3.2-.3v-.5Zm-.4-1.5V40l.1-.1v-.7l-.1-.3-.3-.2h-.9v1.8h.7a1 1 0 0 0 .3-.2l.2-.1Zm.8.7.2.1a1 1 0 0 1 .2.5v.3a1.1 1.1 0 0 1-.7 1 1.7 1.7 0 0 1-.5.3h-2.5v-.3h.4v-.1h.1V38.7h-.2l-.1-.1h-.2v-.3H85a2 2 0 0 1 .7.1l.3.1a.9.9 0 0 1 .3.3v.3l.1.2v.5l-.2.2-.1.1-.2.1-.2.1-.2.1h-.2l.2.1h.2l.3.1.2.2Zm-5.4 1.4a2.4 2.4 0 0 0 .3-1.1v-1.3l-.2-.4-.1-.3-.2-.3-.3-.1a1.3 1.3 0 0 0-.6-.2h-.3a1 1 0 0 0-.3.2c-.1 0-.2 0-.3.2l-.2.2-.1.4a3.1 3.1 0 0 0-.2 1.1v.9a1.9 1.9 0 0 0 .3.6l.2.3a1.1 1.1 0 0 0 .6.3h.3a1.1 1.1 0 0 0 .6-.1 1.2 1.2 0 0 0 .5-.5Zm.5-3.3a2.5 2.5 0 0 1 .7 1.7 3 3 0 0 1-.2 1l-.2.5-.3.3-.3.3-.4.2a2.3 2.3 0 0 1-2.2-.2l-.3-.3a2.4 2.4 0 0 1-.6-1.3v-.5a3.1 3.1 0 0 1 .1-1 2.7 2.7 0 0 1 .5-.8 2.4 2.4 0 0 1 .8-.5 2.3 2.3 0 0 1 2 .2l.4.3ZM77 41.7V43h-3.7v-.3h.4v-.1h.1V38.8l-.1-.1h-.2l-.1-.1h-.1v-.3h2v.3h-.5l-.1.1V42.7l.1.1H76.1l.1-.3.2-.2.2-.3v-.2h.3Zm-4.4-.5H72v.1H72v.1l-.1.1v1.2a4 4 0 0 1-.5.3H71l-.4.2a3 3 0 0 1-.9 0 2.4 2.4 0 0 1-.8-.3 2.2 2.2 0 0 1-.8-1.1l-.2-.5a3 3 0 0 1 .2-1.5c0-.2 0-.3.2-.5a2.5 2.5 0 0 1 .6-.6l.4-.3h.5a2.4 2.4 0 0 1 1.1 0h.3l.2.2.1-.2h.3V40h-.2l-.1-.3-.1-.2-.1-.3-.2-.2-.1-.2a1.1 1.1 0 0 0-.8-.2 1.2 1.2 0 0 0-.6.1l-.3.2-.2.2-.2.3v.4l-.2.4v.9a2.6 2.6 0 0 0 .4 1.1l.2.3a1.4 1.4 0 0 0 .6.3H70.8l.2-.1.1-.1v-1.2l-.1-.1h-.5v-.1h-.1v-.3h2v.3Zm-6.8.5V43H62v-.3h.4v-.1h.1V38.8l-.1-.1h-.2l-.1-.1H62v-.3h2v.3h-.5l-.1.1V42.7l.1.1H65l.1-.3.2-.2.2-.3v-.2h.3Zm-6.1-.6-.7-1.7-.7 1.7h1.4Zm1.9 2h-2v-.3h.5v-.1h.1v-.2l-.4-1h-1.6v.2l-.1.1-.1.4v.2h-.1v.2l.2.1h.2l.3.1v.3h-1.8v-.3H57l.1-.1.1-.1h.1v-.2l.1-.1.4-1 .4-1 .8-2h.3l1.5 4v.2h.1l.1.1h.1v.1h.4v.4Zm-6-2.3a3.1 3.1 0 0 0-.2-.9l-.2-.3c0-.1 0-.2-.2-.3l-.2-.3a1.5 1.5 0 0 0-.7-.3H53.1V42.5l.2.2h.5a1.7 1.7 0 0 0 1-.3l.2-.2.2-.3.1-.3v-.4l.1-.4Zm.8 0a2.5 2.5 0 0 1-.3 1l-.2.4a2.6 2.6 0 0 1-2 .9h-2v-.3h.4l.1-.2V38.8H52l-.1-.1h-.1v-.3h2a3 3 0 0 1 .9.1 2.1 2.1 0 0 1 .7.4 2 2 0 0 1 .6.8l.2.5v.6ZM51 38.7h-.5v.1l-.2.1v4.2H50l-2.8-3.7v2.3a3.8 3.8 0 0 0 0 .6l.1.2.1.1h.1l.2.1h.2l.1.1v.3h-1.9v-.3H46.4l.2-.1h.1v-.2l.2-.1v-3.2l-.1-.2h-.1l-.1-.2h-.2a1 1 0 0 0-.3-.1v-.3h1.3l2.6 3.5v-2.8l-.1-.2h-.1l-.1-.1h-.2l-.2-.1h-.1v-.3H51v.3ZM45.4 43h-2.1v-.3h.5v-.1h.1v-3.9h-.4v-.1h-.2v-.3h2.1v.3H45l-.2.1V42.7l.1.1h.2l.2.1h.1v.3Zm-2.9-4.4H42v3.1l-.1.2v.3a1.6 1.6 0 0 1-.3.4 1.4 1.4 0 0 1-.8.5 1.7 1.7 0 0 1-.8-.1 1 1 0 0 1-.4-.2.9.9 0 0 1-.3-.4V41.6l.2-.1H40.1a.4.4 0 0 1 0 .4v.4H40v.2h-.1v.2l.2.1H40.8l.2-.1v-.2l.1-.2V38.9l-.1-.1h-.1l-.2-.1h-.2v-.3h2v.3Zm-5.6 4v.2l-.2.1-.1.1H36l-.1-.2v-.5a.4.4 0 0 1 .4-.2h.2l.1.2a.4.4 0 0 1 .1.3Zm-3-2.4.1-.1V39.2l-.1-.2a.8.8 0 0 0-.5-.3h-.7v2h.6a1 1 0 0 0 .5-.2l.1-.2Zm1-.7v.3l-.1.3-.2.3-.2.2-.3.2h-.3l-.3.1h-.8v1.6l.2.1h.5v.4h-2v-.3H31.7l.2-.1V38.7h-.1l-.1-.1H31.4v-.3H34a1.3 1.3 0 0 1 .7.7l.1.5Zm-4.6 3v.3l-.2.1-.1.1h-.5l-.1-.2v-.5l.2-.1h.5a.4.4 0 0 1 .2.4Zm-3.2-.4a2.4 2.4 0 0 0 .4-1v-.9l-.1-.4-.1-.4-.2-.3-.2-.3-.2-.1a1.3 1.3 0 0 0-.6-.2h-.4a1 1 0 0 0-.3.2s-.2 0-.2.2l-.2.2-.2.4a3.1 3.1 0 0 0-.2 1.1v.5l.1.4a1.9 1.9 0 0 0 .3.6l.2.3a1.1 1.1 0 0 0 .5.3h.3a1.1 1.1 0 0 0 .7-.1 1.2 1.2 0 0 0 .4-.5Zm.6-3.3a2.5 2.5 0 0 1 .6 1.8 3 3 0 0 1-.1 1l-.3.5-.2.3-.4.3-.3.2a2.3 2.3 0 0 1-2.2-.2l-.3-.3a2.4 2.4 0 0 1-.6-1.3v-.5a3.1 3.1 0 0 1 0-1 2.7 2.7 0 0 1 .6-.8 2.4 2.4 0 0 1 .7-.5 2.3 2.3 0 0 1 2.1.2l.4.3Zm16 11.8h-.5l-.1.1v.1l-.1.2v2.5a1.3 1.3 0 0 1-.2.6l-.2.3-.2.2-.3.1-.3.1h-.2l-.3.1h-.4l-.3-.1-.3-.1-.2-.2-.2-.2-.2-.2V51h-.1v-.2H39.2l-.2-.1v-.3h1.8v.3h-.5V54.2l.1.1.2.2h.1l.3.2h.6l.3-.1.2-.1.2-.2a1 1 0 0 0 .1-.3v-3h-.1l-.1-.1H42l-.2-.1h-.1v-.3h1.8v.3Z" style="fill:#294997"/><path d="M25.3 56.7h-1.7V44.6h1.7v.3H24v11.4h1.3v.4Zm69.4-12.1h1.6v12.1h-1.6v-.4H96V45h-1.3v-.3Z" style="fill:#fecc0d"/></svg>