<?xml version="1.0" encoding="UTF-8"?>
<svg id="Layer_1" xmlns="http://www.w3.org/2000/svg" viewBox="0 0 120 60">
  <defs>
    <style>
      .cls-1 {
        fill: #f7fcfe;
      }

      .cls-2 {
        fill: #e32735;
      }

      .cls-3 {
        fill: #5392c5;
      }

      .cls-4 {
        fill: #fef5f6;
      }

      .cls-5 {
        fill: #1061ab;
      }

      .cls-6 {
        fill: #abc9e1;
      }
    </style>
  </defs>
  <path class="cls-5" d="M84.59,27.32v16.16c0,.64.09.48-.45.84-7.87,5.13-15.77,10.28-23.65,15.41-.57.36-.39.36-.91,0-7.87-5.13-15.77-10.28-23.65-15.41-.54-.36-.45-.18-.45-.84v-16.13h49.11v-.02ZM76.62,36.94c-.2.05-.41.07-.59.2-.09.02-.18.05-.27.07-1.45.43-2.88.95-4.31,1.45-.98.34-1.97.68-2.97,1.02-.07-.02-.16,0-.2-.09.36-.16.7-.32,1.07-.45,2.86-1.25,5.58-2.75,8.33-4.22.29-.07.52-.25.77-.43-.32.09-.68.14-.98.34-.07,0-.16.05-.23.07-1.77.61-3.52,1.32-5.26,2.04-.93.39-1.88.75-2.84,1.11-.07,0-.16,0-.2-.11.11-.07.23-.11.34-.18,1.09-.52,2.16-1.09,3.2-1.7,2.41-1.41,4.72-3,7.03-4.56.05,0,.09-.02.11-.07h0c.36-.18.7-.36.95-.68,0,0,.05,0,.07-.02,0,0-.05,0-.05.02-.41.16-.82.32-1.18.57,0,0-.05,0-.07.02-.05,0-.09,0-.11.07-.14.07-.27.11-.41.18-2.7,1.27-5.42,2.52-8.19,3.68-2.59,1.07-5.2,2.04-7.9,2.84-.25.07-.39.18-.48.41-.14.34-.32.68-.52.98-.09.14-.2.29-.36.39-.18.11-.34.09-.45-.09-.18-.32-.23-.66-.23-1.02,0-.05.05-.11.07-.11.23,0,.41-.18.66-.14.11,0,.16-.05.14-.16,0-.16-.14-.27-.27-.32-.16-.05-.32-.07-.48-.11-.07,0-.18,0-.2-.09-.16-.32-.45-.27-.73-.25-.39.02-.77.11-1.13.27,0,.11.09.18.14.25.25.45.29.91.16,1.41-.02.11-.09.2-.14.29-.11.16-.27.16-.43.07-.14-.09-.23-.23-.32-.36-.16-.27-.27-.54-.39-.84-.23-.61-.07-.45-.73-.66-1.52-.43-3-.91-4.47-1.45-3.24-1.18-6.38-2.56-9.49-4.06-.86-.41-1.72-.82-2.59-1.25-.29-.2-.61-.41-1-.45h-.02s.02-.02.05-.02c.25.25.54.45.86.59.36.25.73.5,1.07.73,1.41.95,2.81,1.88,4.24,2.79,1.72,1.09,3.52,2.09,5.36,2.97-.05.09-.14.09-.2.11-.07-.02-.16-.05-.23-.07-1.84-.73-3.68-1.47-5.51-2.2-.86-.34-1.7-.66-2.59-.93-.27-.16-.57-.27-.88-.27,0,0-.05-.05-.07-.05h-.02s.07.02.09.05c.18.23.43.29.68.39,1.72.91,3.45,1.82,5.17,2.72,1.13.59,2.29,1.11,3.45,1.63v.2s-.07,0-.09-.02c-.05-.07-.11-.09-.2-.07-.07,0-.11-.02-.18-.05-1.18-.41-2.36-.84-3.56-1.25-.98-.34-1.95-.68-2.95-.95-.27-.16-.59-.2-.88-.29-.05-.07-.14-.09-.2-.09-.02,0-.07,0-.09.02,0,.02,0,.07.02.07.07.05.16.11.25.09.23.11.43.25.68.29.61.29,1.25.61,1.86.91,2.13,1.04,4.27,2.06,6.49,2.86-.07.11-.18.05-.29.09-.07,0-.14,0-.18-.05-1.25-.36-2.5-.73-3.77-1.09-.84-.23-1.68-.48-2.52-.66-.39-.16-.77-.25-1.18-.27h0c.32.16.61.32.98.39,1.41.61,2.81,1.18,4.24,1.75,1.25.48,2.52.88,3.81,1.27-.07.14-.2.07-.29.09h-.18c-1.36-.27-2.75-.54-4.11-.79-.7-.14-1.38-.25-2.09-.36-.39-.14-.68-.16-.98-.11.23.09.43.18.68.2,1.02.32,2.02.66,3.04.98,1.79.57,3.61,1.04,5.45,1.32.18.02.36,0,.64.16-1.47,0-2.84-.05-4.2-.09s-2.72-.07-4.11-.09c.14.11.27.14.41.16,2.41.52,4.83.82,7.31.88.5,0,1,.02,1.5.05.07,0,.16-.02.18.11-.18.14-.39.23-.59.32-.29.16-.61.29-.91.43-.18.09-.36.18-.45.34-.07.14-.18.16-.32.16-.29,0-.54-.07-.77-.23-.16-.09-.29-.2-.45-.29-.14-.09-.27-.09-.41-.05-.18.07-.32.2-.41.39.16-.02.29-.07.45-.07.41,0,.7.25.75.66v.43s.09,0,.11-.02c.25-.34.64-.43,1-.54.09-.02.18,0,.25.07.27.34.64.36,1,.27.23-.05.43-.14.64-.2.11-.05.23-.09.36-.14h.09v.09s-.14.18-.2.27c-.79,1-1.57,2.02-2.36,3.02-.07.09-.18.18-.2.32.11,0,.18-.05.25-.11.45-.29.91-.64,1.32-1,.7-.61,1.29-1.32,1.86-2.04l.14.14c-.07.14-.11.27-.18.39-.59,1.2-1.16,2.38-1.75,3.59-.05.11-.16.2-.11.36h.05s.11-.07.16-.11c.91-.84,1.68-1.79,2.25-2.9.07-.11.09-.27.23-.34h0c.07.16,0,.29-.07.45-.39,1.29-.77,2.56-1.16,3.86-.05.16-.09.29-.14.48.07-.05.09-.07.11-.09.05-.07.11-.11.16-.18.64-.84,1.11-1.72,1.45-2.72.05-.14.07-.27.23-.43-.18,1.63-.34,3.18-.5,4.74.14-.02.16-.11.18-.18.27-.5.45-1.02.59-1.59.05-.16.07-.34.16-.54,0,.18,0,.29.02.41.05,1.07.2,2.11.48,3.15.02.09.02.18.14.23.32-.77.64-2.63.64-3.61h.16c.07.54.25,1.07.48,1.57.09.18.16.39.34.57.05-.27,0-.45,0-.66-.14-1.27-.27-2.52-.41-3.79h.14c.57,1.47,1.27,2.72,1.77,3.04-.45-1.52-.91-3.02-1.34-4.52h.16s.14.23.18.34c.57,1.02,1.27,1.91,2.13,2.68.05.09.11.16.18.2,0,0,.07.02.09,0,0,0,.02-.07,0-.07-.02-.07-.07-.11-.09-.16-.18-.36-.34-.73-.52-1.09-.5-1.04-1.02-2.11-1.52-3.15l.11-.11c.11.14.23.27.32.41.84,1.07,1.82,2,2.97,2.75.07.05.11.11.23.05-.36-.48-.73-.95-1.09-1.41-.61-.77-1.2-1.57-1.79-2.34.02-.02.07-.05.09-.09.27.11.57.23.84.34s.54.18.84.18c.2,0,.41-.05.52-.2.18-.23.34-.23.59-.11.2.09.41.2.54.39.05.05.07.14.18.09v-.34c.02-.5.34-.75.84-.7.11,0,.23.05.36.07-.05-.16-.16-.25-.25-.32-.2-.16-.36-.16-.57-.02-.14.09-.25.2-.39.29-.23.16-.45.23-.73.2-.09,0-.16-.02-.2-.11-.14-.25-.36-.34-.61-.45-.34-.16-.68-.32-1-.48-.14-.07-.29-.11-.41-.27.14-.09.27-.07.39-.07,1.36-.05,2.72-.09,4.06-.23,1.5-.16,2.97-.39,4.45-.7.14-.02.25-.07.34-.16-2.56.07-5.13.11-7.69.18h-.5s.11-.09.18-.09c.84-.11,1.66-.27,2.47-.45,2.16-.48,4.22-1.2,6.31-1.88.27-.02.52-.11.75-.25-.34,0-.66,0-.95.14-.09,0-.2,0-.29.02-1.27.23-2.52.48-3.79.7-.77.14-1.54.29-2.31.43-.09-.05-.23.02-.29-.09.05,0,.09-.05.14-.05,2.72-.75,5.33-1.86,7.92-2.95.34-.07.66-.25.98-.39h0c-.43,0-.86.11-1.27.27-.95.2-1.88.48-2.81.73-1.2.34-2.38.68-3.59,1.02-.09-.02-.23.02-.29-.09,2.88-1.07,5.6-2.45,8.35-3.79.18,0,.32-.14.5-.18.18-.02.32-.09.45-.27-.23,0-.41.07-.57.14l.09.16Z"/>
  <path class="cls-5" d="M35.46,15.05V.55c0-.61-.07-.54.54-.54h48.04c.61,0,.54-.07.54.54v14.5c-.16,0-.32.02-.48.02h-48.15c-.16,0-.32,0-.48-.02h-.02ZM67.5,10.87s.02.05.02.02h-.05s-.09-.11-.16-.14c0-.02-.02-.05-.05-.05-.16-.14-.27-.29-.48-.39-.05-.05-.07-.07-.11-.09-1.95-1.68-3.9-3.36-5.83-5.01-.05-.05-.09-.09-.16-.11-.07-.07-.14-.05-.2,0-.09.07-.16.16-.25.23-2.31,2.29-4.63,4.61-6.94,6.9-.07.07-.14.14-.2.2-.11.05-.18.14-.25.2s-.16.14-.18.29c.25-.14.48-.23.64-.41,1-.61,2-1.2,2.97-1.82.11-.07.23-.14.34-.2.07-.05.16,0,.18.09.18.61.34,1.2.52,1.82,0,.07.02.14.14.14.07-.25.11-.52.18-.79.07-.27.11-.54.18-.79.07-.27.11-.57.2-.84.07-.25.07-.52.2-.77.16.02.25.14.36.2.43.29.84.59,1.27.91.07.05.11.11.23.02v-2.5s0-.07.05-.07c.05-.05.09,0,.11.02.07.07.14.14.2.2.32.34.64.68.98,1.02.07.07.11.16.25.11.14-.5.25-.98.39-1.47.07-.25.11-.27.32-.14.54.34,1.09.7,1.63,1.04.91.57,1.79,1.13,2.7,1.7.09.14.27.2.39.29.05.07.11.11.18.11.07.07.14.09.2.07h.02v-.02ZM52.66,10.8c.61-.48,1.25-.98,1.86-1.45.2-.16.43-.27.7-.29.25-.02.52-.05.82-.16-.07-.05-.11-.07-.16-.09l-.95-.48c-.11-.07-.2-.05-.29.07-.66.77-1.34,1.52-2,2.29-.05.05-.11.07-.14.11-.05.05-.11.11-.16.18-.02.05-.11.07-.05.14.14-.09.27-.16.36-.29h0v-.02ZM44.29,13.78h.75c.23,0,.43-.05.64-.18.82-.5,1.66-.93,2.45-1.45.43-.27.79-.34,1.27-.16.34.14.7.2,1.07.32.18.05.32,0,.43-.14.02-.05.07-.07.09-.11.7-.79,1.41-1.61,2.11-2.41.5-.57,1-1.16,1.5-1.72.29-.34.25-.29.64-.11.29.14.59.27.88.41.41.18.32.23.7-.14.07-.07.14-.14.2-.2.75-.73,1.5-1.43,2.22-2.16.45-.45.93-.91,1.41-1.34.14-.14.18-.14.32,0,.09.07.16.16.25.23,2.29,2.11,4.58,4.22,6.9,6.33.14.11.23.27.43.34.25-.18.5-.34.75-.52.11-.07.2-.16.32-.23.09-.07.16-.05.2.02.07.09.14.18.2.27.7.91,1.43,1.82,2.11,2.72.14.18.29.25.52.25h3.49s.16.05.23-.11c-.18-.23-.41-.48-.61-.73-.07-.09-.16-.07-.27-.05-.29.11-.57.23-.86.34-.29.11-.61.23-.91.36-.14.05-.2,0-.29-.09-.07-.09-.11-.18-.18-.29-.93-1.43-1.84-2.86-2.77-4.27-.07-.09-.11-.18-.18-.27-.07-.11-.14-.11-.23,0-.32.29-.66.59-.98.88-.39.34-.29.34-.68,0-2.45-2.22-4.88-4.42-7.33-6.65-.09-.09-.18-.18-.29-.25-.07-.07-.14-.05-.2,0-.09.09-.18.18-.27.27-1.25,1.25-2.47,2.52-3.72,3.77-.18.18-.32.41-.57.5-.2-.14-.41-.25-.61-.39-.25-.16-.52-.34-.77-.52-.09-.07-.18-.05-.25.05-.05.07-.11.11-.16.18-.79.93-1.59,1.84-2.36,2.77-.48.54-.95,1.11-1.43,1.66-.11.14-.25.18-.43.11-.36-.14-.75-.23-1.11-.34-.2-.07-.39-.07-.59.07-1.29.93-2.61,1.86-3.9,2.79-.07.05-.14.07-.16.23,0,0,.05-.05.05-.05ZM71.18,13.1s0-.14-.05-.16c-.45-.61-.91-1.2-1.38-1.82-.11-.16-.14-.16-.32-.05-.52.32-1.04.64-1.57.98-.54.34-.45.2-.45.84,0,1.09-.18.84.93.88.14,0,.25-.05.32-.18.11-.18.25-.39.36-.57.07-.09.09-.2.25-.25.2.18.36.41.57.64.09.11.18.23.29.32.05.05.14,0,.16-.05v-.59c0-.16.05-.2.2-.18.2.05.41.09.66.16h0l.02.02ZM51.25,13.66s0-.02.02-.05c-.05,0-.07-.05-.11-.07-.75-.41-1.5-.82-2.25-1.23-.14-.07-.25,0-.34.07-.54.41-1.09.79-1.63,1.2-.05.05-.11.07-.09.16,0,0,0,.02.02.02h1.07c.36,0,.68,0,.77-.45,0-.11.11-.14.23-.14.09,0,.18.05.29.05.68.14,1.36.27,2.04.41h-.02v.02Z"/>
  <path class="cls-2" d="M35.46,15.05c.16,0,.32.02.48.02h48.15c.16,0,.32,0,.48-.02h1.84c.43,0,.45-.05.45.45v11.32c0,.45,0,.43-.45.43-.61,0-1.23,0-1.84.02h-49.08c-.59,0-1.16,0-1.75-.02-.68,0-.59.09-.59-.59v-11.3c0-.21.11-.32.34-.32h1.5c.16,0,.32,0,.48,0ZM67.03,18.04c-1.61,0-2.54.54-3.15,1.61-.25.45-.36.93-.39,1.43-.05,1.41.77,2.61,2.04,3.02.61.2,1.25.2,1.86.05,1.66-.45,2.52-1.91,2.34-3.4-.25-1.95-1.77-2.77-2.68-2.75v.05h-.02ZM75.53,24.17h2c.48,0,.95-.18,1.36-.43,1-.64,1.45-1.57,1.41-2.75-.07-1.43-1.13-2.63-2.56-2.81-.73-.09-1.45-.05-2.18,0l-.05.05c.25.18.25.45.25.73v4.4c0,.43,0,.45-.25.82h.02ZM57.81,18.16c.18.2.27.39.27.61v1.75c0,.23-.02.25-.25.25h-2.43c-.23,0-.23-.02-.25-.27v-1.41c0-.34.07-.66.2-.95h-1.16c.34.23.34.52.34.79v4.36c0,.14-.02.29-.02.43,0,.16-.16.25-.23.41h1.09v-.07c-.2-.18-.23-.43-.23-.68v-2.18s.05-.11.11-.14h2.68s.11.07.11.14v2.47c0,.18-.18.29-.23.48h.57c.18,0,.36.02.59-.05-.27-.23-.29-.5-.29-.77v-4.47c0-.14.02-.25.02-.39s.16-.23.23-.36h-1.16v.05h.02ZM70.57,18.18c.27.2.27.48.27.75v4.42c0,.29,0,.57-.32.82.43.02.79,0,1.16,0-.16-.27-.25-.57-.25-.88v-2.09s.07-.09.14-.09c.18,0,.32.09.43.25.45.7.91,1.38,1.36,2.06.11.16.23.32.36.45.29.29.61.36,1.07.23-.29-.14-.48-.36-.64-.61-.48-.7-.95-1.43-1.43-2.13-.05-.07-.14-.14-.11-.27.09-.02.18-.07.27-.09.18-.07.36-.14.52-.25.5-.36.64-.88.54-1.47-.07-.52-.43-.82-.91-.98-.2-.07-.43-.14-.66-.14h-1.7s-.09,0-.16.05h.05v-.02ZM40.52,24.15c-.25-.36-.25-.41-.25-.82v-2.09c0-.11.09-.16.2-.16.18,0,.29.11.39.25.43.66.86,1.32,1.32,1.97.11.16.23.32.34.45.32.34.61.41,1.16.29-.32-.14-.5-.39-.68-.64-.45-.68-.91-1.36-1.36-2.06-.07-.09-.14-.18-.16-.29.07-.09.18-.11.29-.14.18-.07.36-.16.5-.27.45-.36.61-.82.52-1.38-.07-.57-.43-.88-.93-1.07-.14-.05-.27-.09-.43-.09-.68-.07-1.34-.02-2.04-.02.16.27.25.57.25.88v4.22c0,.34-.07.66-.23.93h1.11v.02ZM52.8,18.25c-.34-.07-.68-.16-1-.18-.25-.02-.48-.02-.73,0-.45.05-.84.2-1.16.54-.48.48-.61,1.59.18,2.13.2.14.41.25.64.34.32.14.64.25.95.39.2.09.41.18.59.34.27.2.41.48.41.84,0,.59-.36,1.07-.93,1.2-.45.11-.91.11-1.34-.09-.29-.11-.52-.32-.61-.64,0-.05,0-.14-.14-.14v.79s.05.14.11.14c.43.09.84.27,1.27.32.52.05,1.02-.05,1.5-.32.98-.54,1.04-2.02.11-2.65-.25-.16-.5-.29-.77-.41-.25-.09-.52-.2-.77-.29-.2-.09-.41-.18-.59-.32-.32-.25-.45-.59-.34-1,.11-.52.45-.84,1-.91.32-.02.61,0,.91.07.27.07.48.2.57.48.02.07.02.16.14.14v-.79h0v.02ZM44.24,18.13c.32.25.34.5.34.77v3.34c0,.32.02.61.11.91.16.52.5.86,1.02,1,.5.14,1,.14,1.47,0,.57-.14.93-.5,1.09-1.07.09-.29.09-.57.09-.86v-3.34c0-.29.05-.54.29-.75-.32-.05-.57-.05-.84,0,.16.25.23.54.23.86v3.2c0,.2,0,.39-.02.59-.14.82-.59,1.18-1.41,1.16-.11,0-.23,0-.34-.05-.59-.14-.93-.48-1.04-1.07-.05-.29-.07-.57-.07-.86v-2.86c0-.18,0-.36.02-.52,0-.18.14-.29.27-.45h-1.23ZM59.85,18.13c.18.24.27.51.27.79v4.4c0,.3-.08.57-.25.82h1.09v-.07c-.16-.11-.23-.27-.23-.48v-2.31c0-.16.05-.2.2-.2h1.27c.16,0,.32.05.43.18.05.05.05.16.18.11v-.82s0-.09-.09-.14c-.14.27-.36.34-.66.34h-1.11c-.2,0-.23-.02-.23-.23v-1.93s.07-.16.16-.16h1.75c.2,0,.36.09.48.27.02.05.02.14.11.14,0-.02.05-.05.05-.07v-.34c0-.29,0-.32-.29-.32h-3.18.05Z"/>
  <path class="cls-1" d="M79.53,31.52c-2.31,1.57-4.61,3.15-7.03,4.56-1.04.61-2.11,1.18-3.2,1.7-.11.05-.23.11-.34.18-.14,0-.25.09-.36.14-.68.29-1.36.59-2.02.88-.18,0-.32.09-.54.25.27-.02.45-.05.59-.2.84-.23,1.66-.57,2.47-.88l.07-.07c.95-.36,1.88-.75,2.84-1.11,1.75-.7,3.49-1.41,5.26-2.04.07-.02.16-.05.23-.07.07.02.16,0,.2.09-2.75,1.45-5.47,2.97-8.33,4.22-.36.16-.7.32-1.07.45-.16,0-.29.09-.45.16-.59.23-1.16.43-1.75.66-.23.05-.45.07-.61.25-.11,0-.23,0-.29.09h-.2s.05.07.07.07c.07,0,.11-.02.14-.09.11,0,.23,0,.29-.09.25,0,.48-.05.68-.2.07,0,.16,0,.23-.05.64-.2,1.27-.41,1.91-.61.07-.02.14-.07.2-.11,1-.34,1.97-.68,2.97-1.02,1.43-.5,2.86-1,4.31-1.45.09-.02.18-.05.27-.07.07.02.18,0,.2.11-2.75,1.34-5.47,2.72-8.35,3.79-.07,0-.16.02-.23.05-.34.11-.68.23-1.02.34-.41.14-.82.25-1.25.39,0,0-.02.05-.05.07.34,0,.95-.14,1.38-.32.48-.11.98-.2,1.45-.41,1.2-.34,2.38-.68,3.59-1.02.93-.27,1.86-.54,2.81-.73.09.05.23-.02.29.11-2.61,1.09-5.2,2.2-7.92,2.95-.05,0-.09.02-.14.05-.11,0-.23,0-.32.05-.36.09-.73.18-1.11.27-.32.02-.61.14-.88.25.34,0,.66,0,.98-.16.36,0,.7-.09,1.04-.16.2-.05.41,0,.61-.14.77-.14,1.54-.29,2.31-.43,1.27-.23,2.52-.48,3.79-.7.09,0,.18,0,.29-.02.07.02.16,0,.2.11-2.09.68-4.15,1.41-6.31,1.88-.82.18-1.63.34-2.47.45-.07,0-.14,0-.18.07h.02s.02.02.05.02h.43c2.56-.07,5.13-.11,7.69-.18-.09.09-.2.14-.34.16-1.47.32-2.95.54-4.45.7-1.36.14-2.7.2-4.06.23-.11,0-.25-.02-.39.07.11.16.27.2.41.27.34.16.68.32,1,.48.23.11.48.23.61.45.05.09.11.09.2.11.27.02.52-.05.73-.2.14-.09.25-.2.39-.29.2-.14.39-.14.57.02.09.09.2.16.25.32-.14,0-.25-.05-.36-.07-.5-.05-.82.23-.84.7v.34s-.14-.05-.18-.09c-.14-.18-.34-.29-.54-.39-.23-.09-.41-.11-.59.11-.11.16-.32.2-.52.2-.29,0-.57-.07-.84-.18-.29-.11-.57-.23-.84-.34-.05-.05-.09-.07-.14,0,0,0,.02.07.05.11.59.77,1.2,1.57,1.79,2.34.36.48.73.93,1.09,1.41-.11.07-.16,0-.23-.05-1.16-.73-2.13-1.66-2.97-2.75-.11-.14-.23-.27-.32-.41-.11-.25-.29-.48-.48-.68,0-.05-.05-.05-.05,0h.05c0,.32.18.57.34.82.5,1.04,1.02,2.11,1.52,3.15.18.36.34.73.52,1.09h-.18c-.86-.77-1.57-1.68-2.13-2.68-.07-.11-.14-.23-.18-.34-.05-.18-.11-.34-.25-.5-.05.2.02.34.09.48.45,1.5.88,3,1.34,4.52-.5-.32-1.23-1.59-1.77-3.04,0-.16-.07-.29-.14-.45-.05.18-.07.32,0,.45.14,1.27.27,2.52.41,3.79,0,.2.07.41,0,.66-.18-.2-.25-.39-.34-.57-.23-.5-.39-1.02-.48-1.57v-.14s-.07-.23-.14-.43c-.07.25-.07.43-.05.59,0,.98-.32,2.86-.64,3.61-.11-.05-.11-.14-.14-.23-.27-1.04-.43-2.09-.48-3.15,0-.11,0-.23-.02-.41-.11.2-.14.39-.16.54-.14.54-.32,1.09-.59,1.59-.05.07-.07.16-.18.18.16-1.57.34-3.11.5-4.74-.16.16-.18.29-.23.43-.34.98-.84,1.88-1.45,2.72-.05.07-.09.14-.16.18,0,.02-.05.05-.11.09.05-.18.09-.34.14-.48.39-1.29.77-2.56,1.16-3.86.05-.16.14-.29.07-.45.09.05.09-.05.11-.09.14-.09.09-.25.11-.39,0-.02.05-.05.07-.07,0-.05,0-.07-.02-.07,0,0-.02,0-.02.02v.09s-.18.23-.18.39v.11c-.14.07-.16.23-.23.34-.59,1.09-1.34,2.04-2.25,2.9-.05.05-.09.09-.16.11h-.05c-.05-.14.07-.25.11-.36.57-1.2,1.16-2.38,1.75-3.59.07-.14.11-.27.18-.39.18-.18.23-.43.34-.61,0-.05.02-.09.05-.16.05-.05.07-.07,0-.11,0,0-.05.02-.07.05-.05.02-.09.07-.09.14-.14.18-.29.34-.39.57-.57.73-1.16,1.43-1.86,2.04-.41.36-.84.7-1.32,1-.07.05-.14.11-.25.11.02-.14.14-.23.2-.32.79-1,1.57-2.02,2.36-3.02.07-.09.14-.18.2-.27v-.09s-.07-.02-.09,0c-.11.05-.23.09-.36.14-.2.07-.43.16-.64.2-.39.09-.75.07-1-.27-.07-.09-.16-.11-.25-.07-.36.11-.75.2-1,.54,0,0-.05,0-.11.02v-.43c-.05-.41-.34-.68-.75-.66-.14,0-.27.05-.45.07.09-.2.23-.32.41-.39.14-.07.29-.05.41.05.16.09.29.2.45.29.25.14.5.25.77.23.14,0,.25-.02.32-.16.09-.18.27-.27.45-.34.29-.16.61-.29.91-.43.2-.09.41-.18.59-.32,0-.14-.11-.11-.18-.11-.5,0-1-.02-1.5-.05-2.47-.07-4.9-.36-7.31-.88-.14-.02-.27-.05-.41-.16,1.38.02,2.75.05,4.11.09s2.75.09,4.2.09c-.25-.16-.45-.14-.64-.16-1.86-.29-3.68-.75-5.45-1.32-1.02-.32-2.02-.66-3.04-.98.07-.11.2-.05.29-.09.7.11,1.38.23,2.09.36,1.36.25,2.75.54,4.11.79h.18s.2.09.32.09c.48.09.95.16,1.41.25.11,0,.25.07.39,0-.25-.07-.5-.14-.75-.18-.36-.07-.7-.23-1.07-.25-1.29-.36-2.56-.77-3.81-1.27-1.43-.54-2.84-1.13-4.24-1.75.05-.11.14-.09.23-.14.86.18,1.68.41,2.52.66,1.25.36,2.52.73,3.77,1.09.07,0,.14.02.18.05s.07.07.11.07c.54.14,1.09.27,1.61.43.34.16.7.23,1.09.25-.32-.14-.64-.27-1-.34-.07,0-.16-.05-.23-.07-.43-.14-.88-.27-1.32-.41-2.22-.82-4.36-1.84-6.49-2.86-.61-.29-1.25-.61-1.86-.91.05-.11.14-.09.23-.11,1,.27,1.97.61,2.95.95,1.18.41,2.36.84,3.56,1.25.07,0,.11.05.18.05.05.07.11.09.2.07.02,0,.07.02.09.02.05.02.11.07.16.09.86.29,1.75.57,2.61.84.14.05.27.11.43.09.09.18.25.11.41.14.07.11.18.09.29.09l.09.09s.09,0,.11-.05c0,0-.05-.02-.07-.02h-.14s-.18-.09-.29-.09c-.11-.14-.27-.14-.41-.16-.88-.34-1.79-.68-2.68-1.02-.16-.07-.32-.16-.5-.18-1.16-.52-2.31-1.04-3.45-1.63-1.72-.91-3.45-1.82-5.17-2.72.05-.09.14-.07.2-.09.88.27,1.72.61,2.59.93,1.84.73,3.68,1.47,5.51,2.2.07.02.16.05.23.07.57.29,1.16.48,1.75.68.23.14.48.23.73.29.2.07.41.18.64.16.05.02.07.07.11.07h.09l-.05-.05h-.14s-.11-.11-.18-.14c-.36-.14-.73-.29-1.09-.43-.16-.07-.29-.14-.45-.18-.41-.16-.77-.39-1.2-.5-1.84-.88-3.63-1.88-5.36-2.97-1.43-.91-2.84-1.84-4.24-2.79-.36-.25-.73-.5-1.07-.73.05-.05.07-.09.11-.11.86.41,1.72.84,2.59,1.25,3.11,1.47,6.24,2.88,9.49,4.06,1.47.54,2.97,1.02,4.47,1.45.66.18.48.05.73.66.11.29.23.57.39.84.09.14.18.27.32.36.16.11.32.09.43-.07.07-.09.11-.2.14-.29.14-.5.09-.95-.16-1.41-.05-.09-.14-.14-.14-.25.36-.14.73-.23,1.13-.27.27,0,.57-.07.73.25.05.07.14.07.2.09.16.02.32.07.48.11.14.05.25.14.27.32,0,.11-.05.18-.14.16-.23-.02-.43.11-.66.14-.02,0-.07.07-.07.11,0,.36.05.7.23,1.02.11.18.27.2.45.09.16-.11.25-.25.36-.39.2-.32.39-.64.52-.98.09-.23.25-.34.48-.41,2.68-.79,5.31-1.77,7.9-2.84,2.77-1.13,5.47-2.41,8.19-3.68.14-.07.27-.11.41-.18.07,0,.09,0,.11-.07,0,0,.05-.02.07-.02.07,0,.18,0,.2.11h0s-.09,0-.11.07c0,0-.14-.25-.14-.25ZM60.51,38.01s0-.07-.05-.07c-.09-.02-.2,0-.23.09,0,.05,0,.09.07.11.11.02.18-.02.2-.14ZM55.09,41.98s-.05-.05-.07-.05-.05,0-.07.02c.02,0,.05.05.07.05s.05,0,.07-.02ZM65.1,41.98s-.05-.02-.07-.02-.05,0-.07.02c.02,0,.05.02.07.02s.05,0,.07-.02ZM65.87,39.26h-.05s.02.02.05.02h0v-.02ZM61.53,47.75h0v.05s.02.02.05,0v-.05h-.05Z"/>
  <path class="cls-3" d="M54.2,40.55c-.16.05-.29-.05-.43-.09-.86-.27-1.75-.57-2.61-.84-.07,0-.11-.07-.16-.09v-.2c.18,0,.34.11.5.18.88.34,1.79.68,2.68,1.02v.05h.02v-.02Z"/>
  <path class="cls-3" d="M69.18,38.06l-.07.07c-.82.32-1.63.66-2.47.88,0,0-.05-.02-.05-.05.68-.29,1.36-.59,2.02-.88.11-.05.23-.14.36-.14.05.09.14.09.2.11Z"/>
  <path class="cls-3" d="M66.09,40.42c.59-.23,1.16-.43,1.75-.66.16-.05.29-.14.45-.16.05.09.14.07.2.09-.07.05-.14.09-.2.11-.64.2-1.27.41-1.91.61-.07.02-.16.02-.23.05l-.05-.05h-.02Z"/>
  <path class="cls-3" d="M53.25,42.53c.36,0,.7.16,1.07.25.25.05.5.11.75.18-.14.09-.25.02-.39,0-.48-.07-.95-.16-1.41-.25-.11,0-.23-.02-.32-.09.09-.05.23.02.29-.09Z"/>
  <path class="cls-3" d="M52.66,38.76c-.59-.2-1.2-.39-1.75-.68.07,0,.16,0,.2-.11.43.11.79.36,1.2.5.16.05.29.11.45.18-.02.05-.07.07-.09.11,0,0-.02,0-.02,0Z"/>
  <path class="cls-3" d="M52.16,41.07c.43.14.88.27,1.32.41.07.02.16.05.23.07l-.09.09c-.54-.14-1.09-.27-1.61-.43-.05,0-.09-.05-.11-.07.09-.02.23.02.29-.09h-.02v.02Z"/>
  <path class="cls-3" d="M67.12,42.62c-.18.11-.41.09-.61.14-.34.07-.68.16-1.04.16-.02-.02-.05-.07-.07-.09.36-.09.73-.18,1.11-.27.11-.02.2-.07.32-.05.07.14.2.07.29.09h0v.02Z"/>
  <path class="cls-3" d="M68.18,41.17c-.45.2-.95.29-1.45.41-.02-.05-.07-.07-.09-.11.34-.11.68-.23,1.02-.34.07-.02.16-.05.23-.05.07.11.18.07.29.09Z"/>
  <path class="cls-6" d="M79.64,31.45s-.14-.09-.2-.11c.36-.25.77-.41,1.18-.57h0c-.27.29-.61.5-.95.68h-.02Z"/>
  <path class="cls-6" d="M74.88,39.51c-.07-.14-.2-.07-.29-.11.41-.18.84-.27,1.27-.27h0c-.32.14-.64.32-.98.39Z"/>
  <path class="cls-6" d="M40.54,31.34s-.07.09-.11.11c-.32-.14-.61-.34-.86-.59h0c.39.07.68.25,1,.48,0,0-.02,0-.02,0Z"/>
  <path class="cls-6" d="M45.4,39.4s-.18,0-.23.14c-.34-.07-.66-.23-.98-.39h0c.41,0,.82.11,1.18.27h.02v-.02Z"/>
  <path class="cls-6" d="M77.69,34.93s-.14-.07-.2-.09c.29-.2.64-.23.98-.34-.25.18-.48.36-.77.43Z"/>
  <path class="cls-6" d="M73.72,41.55s-.14-.07-.2-.11c.32-.14.64-.16.95-.14-.25.14-.48.23-.75.25Z"/>
  <path class="cls-6" d="M42.59,34.83s-.16,0-.2.09c-.25-.09-.5-.16-.68-.39h0c.32,0,.61.14.88.29Z"/>
  <path class="cls-6" d="M46.56,41.44s-.23,0-.29.09c-.25,0-.45-.11-.68-.2.29-.05.57,0,.98.11Z"/>
  <path class="cls-6" d="M44.04,37.17s-.18,0-.23.11c-.25-.05-.45-.18-.68-.29v-.11c.29.09.61.14.88.29h.02Z"/>
  <path class="cls-3" d="M62.33,47.2c-.18-.25-.32-.5-.34-.82h0c.2.2.36.43.48.68l-.11.11h-.02v.02Z"/>
  <path class="cls-6" d="M76.24,37.29s-.14-.09-.2-.11c.18-.14.39-.16.59-.2.05.02.11.07.11.14-.16.05-.29.18-.5.18Z"/>
  <path class="cls-3" d="M57.99,46.68c-.14.2-.18.45-.34.61l-.14-.14c.09-.23.25-.39.39-.57.02.02.07.05.09.07h0v.02Z"/>
  <path class="cls-3" d="M76.74,37.08s-.05-.11-.11-.14c.16-.09.34-.16.57-.14-.14.18-.27.25-.45.27Z"/>
  <path class="cls-3" d="M61.72,48.43c-.07-.14-.16-.27-.09-.48.16.16.23.32.25.5h-.16v-.02Z"/>
  <path class="cls-6" d="M60.63,52.22c-.02-.16,0-.34.05-.59.07.2.11.32.14.43v.14h-.18v.02Z"/>
  <path class="cls-3" d="M61.17,49.88c-.09-.14-.07-.27,0-.45.07.18.16.29.14.45h-.14Z"/>
  <path class="cls-3" d="M43.15,36.88v.11s-.18-.05-.25-.09c0,0,0-.05-.02-.07.02,0,.05-.02.09-.02.09,0,.16,0,.2.09h-.02v-.02Z"/>
  <path class="cls-6" d="M64.19,51.47h.18s.07.11.09.16v.07h-.09s-.16-.11-.18-.2h0v-.02Z"/>
  <path class="cls-3" d="M50.91,39.49s-.16,0-.2-.07c.09,0,.16,0,.2.07Z"/>
  <path class="cls-6" d="M80.62,30.77s.05,0,.05-.02c0,0-.05,0-.07.02h.02Z"/>
  <path class="cls-6" d="M41.7,34.56s-.07-.02-.09-.05h.02s.05.05.07.05h0Z"/>
  <polygon class="cls-6" points="75.85 39.12 75.88 39.1 75.85 39.12 75.85 39.12"/>
  <polygon class="cls-6" points="44.22 39.12 44.2 39.1 44.22 39.12 44.22 39.12"/>
  <path class="cls-6" d="M79.35,31.36s-.07.07-.11.07c0-.05.07-.07.11-.07Z"/>
  <path class="cls-6" d="M79.53,31.52s.05-.07.11-.07c0,.05-.05.07-.11.07Z"/>
  <path class="cls-1" d="M44.31,13.78c0-.16.09-.18.16-.23,1.29-.93,2.61-1.86,3.9-2.79.2-.14.36-.16.59-.07.36.14.75.23,1.11.34.18.07.29.02.43-.11.48-.57.95-1.11,1.43-1.66.79-.93,1.59-1.84,2.36-2.77.05-.07.11-.11.16-.18.07-.09.16-.11.25-.05.25.18.5.34.77.52.2.14.41.25.61.39.25-.09.39-.32.57-.5,1.25-1.25,2.47-2.5,3.72-3.77.09-.09.18-.18.27-.27.07-.07.14-.07.2,0,.09.09.18.18.29.25,2.45,2.22,4.88,4.42,7.33,6.65.39.34.32.34.68,0,.32-.29.66-.59.98-.88.11-.09.16-.09.23,0s.14.18.18.27c.93,1.43,1.84,2.86,2.77,4.27.07.09.14.18.18.29.07.11.16.14.29.09.29-.11.59-.25.91-.36.29-.11.57-.23.86-.34.09-.05.18-.05.27.05.2.25.41.48.61.73-.05.14-.14.11-.23.11h-3.49c-.23,0-.39-.07-.52-.25-.7-.91-1.41-1.82-2.11-2.72-.07-.09-.14-.18-.2-.27-.07-.07-.14-.09-.2-.02-.11.07-.2.16-.32.23-.25.18-.5.36-.75.52-.2-.07-.29-.23-.43-.34-2.29-2.11-4.58-4.22-6.9-6.33-.09-.07-.16-.16-.25-.23-.14-.14-.18-.14-.32,0-.48.45-.93.91-1.41,1.34-.75.73-1.5,1.43-2.22,2.16-.07.07-.14.14-.2.2-.36.36-.27.32-.7.14-.29-.14-.59-.27-.88-.41-.39-.18-.34-.23-.64.11-.5.57-1,1.16-1.5,1.72-.7.79-1.41,1.61-2.11,2.41-.02.05-.07.07-.09.11-.11.16-.25.18-.43.14-.36-.11-.73-.18-1.07-.32-.45-.18-.84-.11-1.27.16-.79.52-1.63.98-2.45,1.45-.2.11-.41.18-.64.18h-.75l-.05.05Z"/>
  <path class="cls-1" d="M53.14,12.41s.14-.14.2-.2c2.31-2.29,4.63-4.61,6.94-6.9.09-.09.16-.16.25-.23.07-.07.14-.07.2,0,.05.05.09.09.16.11,1.95,1.68,3.9,3.36,5.83,5.01.05.02.07.07.11.09-.02.02-.07.07-.09.09-.91-.57-1.79-1.13-2.7-1.7-.54-.34-1.09-.7-1.63-1.04-.2-.14-.25-.11-.32.14-.14.5-.27,1-.39,1.47-.14.05-.18-.07-.25-.11-.32-.34-.64-.68-.98-1.02-.07-.07-.14-.14-.2-.2-.05-.02-.07-.07-.11-.02,0,0-.05.05-.05.07v2.5s-.18,0-.23-.02c-.43-.29-.84-.59-1.27-.91-.11-.07-.2-.18-.36-.2-.14.23-.14.5-.2.77s-.14.57-.2.84-.11.54-.18.79c-.07.27-.11.52-.18.79-.11,0-.11-.07-.14-.14-.18-.61-.34-1.2-.52-1.82-.02-.09-.11-.14-.18-.09-.11.07-.23.14-.34.2-1,.61-2,1.2-2.97,1.82-.07,0-.16,0-.18-.09h-.02Z"/>
  <path class="cls-1" d="M71.2,13.1c-.25-.07-.45-.11-.66-.16-.16-.05-.2,0-.2.18v.59s-.11.09-.16.05c-.09-.11-.2-.2-.29-.32-.18-.2-.36-.45-.57-.64-.14.07-.18.16-.25.25-.14.18-.25.39-.36.57-.07.11-.18.18-.32.18-1.13-.02-.93.2-.93-.88,0-.64-.09-.48.45-.84.52-.34,1.04-.66,1.57-.98.18-.11.2-.11.32.05.45.61.91,1.2,1.38,1.82,0,0,0,.07.05.16h0l-.02-.02Z"/>
  <path class="cls-1" d="M51.25,13.66c-.68-.14-1.36-.27-2.04-.41-.09,0-.18-.05-.29-.05s-.2,0-.23.14c-.09.45-.41.45-.77.45h-1.09c-.02-.11.05-.14.09-.18.54-.41,1.09-.79,1.63-1.2.11-.09.2-.14.34-.07.75.41,1.5.82,2.25,1.23.05,0,.07.05.11.07,0,0,0,.02-.02.05h.02v-.02Z"/>
  <path class="cls-1" d="M52.66,10.67c.66-.77,1.34-1.52,2-2.29.09-.09.16-.14.29-.07l.95.48s.09.05.16.09c-.32.11-.57.14-.82.16-.27.02-.48.14-.7.29-.61.5-1.25.98-1.86,1.45v-.14h0l-.02.02Z"/>
  <path class="cls-6" d="M53.14,12.41s.11.09.18.09c-.16.18-.39.27-.64.41.05-.16.11-.23.18-.29s.14-.18.25-.2h.02Z"/>
  <path class="cls-6" d="M66.73,10.4s.07-.07.09-.09c.2.09.32.25.48.39h-.18c-.14-.09-.29-.14-.39-.29Z"/>
  <path class="cls-6" d="M52.66,10.67v.14c-.07.14-.23.23-.36.29-.07-.07,0-.11.05-.14.05-.07.09-.14.16-.18.05-.05.09-.07.14-.11h.02Z"/>
  <path class="cls-3" d="M67.12,10.69h.18s.05.02.05.05c0,0-.02.05-.05.07-.07,0-.14-.05-.18-.11Z"/>
  <path class="cls-3" d="M67.34,10.76s.14.05.16.14h0s-.16,0-.2-.07c0,0,.02-.05.05-.07Z"/>
  <path class="cls-3" d="M67.5,10.89h.05l-.02-.02h-.02v.02Z"/>
  <path class="cls-4" d="M67.05,18.04c.91-.02,2.43.77,2.68,2.75.18,1.5-.66,2.95-2.34,3.4-.61.16-1.25.16-1.86-.05-1.27-.41-2.09-1.63-2.04-3.02,0-.5.14-1,.39-1.43.61-1.09,1.54-1.59,3.15-1.61v-.05h.02ZM69.09,21.02c0-.66-.34-1.43-1.02-2.04-1.02-.91-2.47-.77-3.29.27-1.23,1.57-.61,3.4.59,4.29.39.29.84.45,1.32.43.77-.05,1.41-.36,1.86-.98.39-.5.57-1.09.57-1.95h0l-.02-.02Z"/>
  <path class="cls-4" d="M75.56,24.17c.23-.36.25-.39.25-.82v-4.4c0-.27,0-.54-.25-.73,0-.02.05-.05.05-.05.73-.05,1.45-.07,2.18,0,1.41.16,2.5,1.36,2.56,2.81.05,1.18-.41,2.11-1.41,2.75-.41.27-.88.41-1.36.43-.66.02-1.32,0-2,0h-.02ZM76.44,21.17v2.52c0,.11.05.18.18.18.66,0,1.29-.09,1.86-.41.59-.34,1-.82,1.16-1.47.2-.88,0-1.7-.52-2.43-.64-.82-1.5-1.13-2.52-1.09-.11,0-.16.07-.18.18v2.52h.02Z"/>
  <path class="cls-4" d="M57.83,18.16h1.16c-.07.16-.2.23-.23.36,0,.14-.02.25-.02.39v4.47c0,.27,0,.54.29.77-.23.07-.41.05-.59.05h-.57c.07-.18.23-.29.23-.48v-2.47s-.05-.11-.11-.14h-2.68s-.11.07-.11.14v2.18c0,.27.02.52.23.68v.07h-1.09c.07-.16.23-.25.23-.41,0-.14.02-.29.02-.43v-4.36c0-.29,0-.57-.34-.79h1.16c-.14.27-.2.59-.2.95v1.41c0,.25,0,.27.25.27h2.43c.23,0,.25-.02.25-.25v-1.75c0-.23-.09-.43-.27-.61v-.05h-.02Z"/>
  <path class="cls-4" d="M70.59,18.18s.11-.05.16-.05h1.7c.23,0,.45.05.66.14.48.16.82.45.91.98.09.59-.05,1.09-.54,1.47-.16.11-.34.2-.52.25-.09.02-.18.07-.27.09,0,.14.07.2.11.27.48.7.95,1.43,1.43,2.13.16.25.34.45.64.61-.45.14-.77.07-1.07-.23-.14-.14-.25-.29-.36-.45-.45-.68-.91-1.36-1.36-2.06-.11-.16-.25-.25-.43-.25-.07,0-.14,0-.14.09v2.09c0,.32.09.61.25.88h-1.16c.27-.23.32-.52.32-.82v-4.42c0-.27,0-.54-.27-.75h-.05v.02ZM71.5,19.61h0v.64c0,.59-.05.52.57.54.27,0,.54-.02.79-.18.41-.23.64-.7.57-1.2-.07-.48-.34-.75-.79-.86-.29-.09-.61-.11-.91-.09-.16,0-.2.05-.2.2v.98h0l-.02-.02Z"/>
  <path class="cls-4" d="M40.54,24.17h-1.11c.16-.27.23-.59.23-.93v-4.22c0-.34-.09-.64-.25-.88.7,0,1.36-.02,2.04.02.14,0,.29.05.43.09.52.18.86.5.93,1.07.07.54-.09,1.02-.52,1.38-.16.11-.32.2-.5.27-.11.05-.23.05-.29.14,0,.11.09.2.16.29.45.68.91,1.36,1.36,2.06.16.25.36.5.68.64-.54.11-.84.05-1.16-.29-.14-.14-.25-.29-.34-.45-.43-.66-.88-1.32-1.32-1.97-.09-.14-.2-.25-.39-.25-.11,0-.18.05-.2.16v2.09c0,.41,0,.45.25.82h0v-.02ZM40.27,19.65h0v.48c0,.73-.09.64.66.64.27,0,.54-.07.77-.2.45-.29.54-.75.48-1.23-.07-.43-.36-.66-.77-.77-.32-.09-.64-.11-.95-.11-.11,0-.18.07-.18.18v1.02Z"/>
  <path class="cls-4" d="M52.82,18.27v.79s-.11-.07-.14-.14c-.09-.27-.29-.41-.57-.48-.29-.09-.61-.11-.91-.07-.54.07-.88.36-1,.91-.09.41.02.73.34,1,.18.14.39.25.59.32.25.09.52.2.77.29.27.11.52.23.77.41.93.64.86,2.11-.11,2.65-.45.25-.98.36-1.5.32-.43-.05-.84-.2-1.27-.32-.07,0-.11-.07-.11-.14v-.79s.11.07.14.14c.09.34.32.52.61.64.43.18.88.2,1.34.09.57-.16.93-.64.93-1.2,0-.36-.14-.64-.41-.84-.18-.14-.39-.25-.59-.34-.32-.14-.64-.25-.95-.39-.23-.09-.43-.2-.64-.34-.79-.54-.66-1.66-.18-2.13.32-.32.73-.5,1.16-.54.25,0,.48-.02.73,0,.34.05.66.11,1,.18h0v-.02Z"/>
  <path class="cls-4" d="M44.27,18.16h1.23c-.11.16-.25.27-.27.45,0,.18-.02.36-.02.52v2.86c0,.29,0,.59.07.86.11.61.43.95,1.04,1.07.11.02.23.05.34.05.82,0,1.27-.34,1.41-1.16.02-.18.02-.39.02-.59v-3.2c0-.32-.07-.61-.23-.86.27-.02.54-.05.84,0-.25.23-.29.48-.29.75v3.34c0,.29,0,.59-.09.86-.16.57-.52.91-1.09,1.07-.5.11-1,.11-1.47,0-.52-.14-.86-.48-1.02-1-.09-.29-.11-.59-.11-.91v-3.34c0-.27,0-.52-.34-.77Z"/>
  <path class="cls-4" d="M59.9,18.13h3.18c.2,0,.29.11.29.32v.34s-.02.05-.05.07c-.09,0-.09-.09-.11-.14-.11-.18-.27-.27-.48-.27h-1.75s-.16.07-.16.16v1.93c0,.18.05.23.23.23h1.11c.29,0,.52-.07.66-.34.09.05.09.09.09.14v.82c-.16.05-.14-.07-.18-.11-.11-.11-.27-.18-.43-.18h-1.27c-.16,0-.2.05-.2.2v2.31c0,.2.09.36.23.48v.07h-1.09c.17-.24.25-.51.25-.82v-4.4c0-.29-.09-.55-.27-.79h-.05Z"/>
  <path class="cls-6" d="M66.64,41.46s.07.07.09.11c-.43.18-1.04.32-1.38.32,0-.02.02-.07.05-.07.41-.14.82-.25,1.25-.39h0v.02Z"/>
  <path class="cls-6" d="M52.66,38.76s.07-.07.09-.11c.36.14.73.29,1.09.43.07.02.14.07.18.14h0c-.23,0-.43-.09-.64-.16-.25-.09-.5-.18-.73-.29Z"/>
  <path class="cls-6" d="M53.64,41.66l.09-.09c.34.05.68.18,1,.34-.39,0-.75-.09-1.09-.25Z"/>
  <path class="cls-6" d="M65.39,42.82s.05.07.07.09c-.32.14-.64.16-.98.16.29-.11.59-.23.88-.25h.02Z"/>
  <path class="cls-6" d="M66.09,40.42l.05.05c-.2.16-.43.2-.68.2h0c.16-.18.39-.2.61-.25h.02Z"/>
  <path class="cls-6" d="M66.57,38.96l.05.05c-.14.16-.32.18-.59.2.2-.16.36-.25.54-.25Z"/>
  <path class="cls-3" d="M60.54,38.01s-.11.16-.2.14c-.05,0-.09-.07-.07-.11.02-.09.16-.14.23-.09,0,0,.02.05.05.07Z"/>
  <path class="cls-6" d="M58.29,48.13c0-.16.07-.29.18-.39h.02c0,.16.05.29-.11.41h-.11l.02-.02Z"/>
  <path class="cls-6" d="M54.2,40.55v-.05c.14.02.29.02.41.16h0c-.14,0-.32.05-.41-.14h0v.02Z"/>
  <path class="cls-6" d="M54.88,40.78s-.23,0-.29-.09h0s.23,0,.29.09h0Z"/>
  <path class="cls-6" d="M54.02,39.21h.14s.05.02.05.05c-.02,0-.07.02-.09,0-.05,0-.07-.05-.11-.07h.02v.02Z"/>
  <path class="cls-6" d="M55.11,41.98s-.05.02-.07.02-.05-.02-.07-.05c.02,0,.05-.02.07-.02s.05.02.07.05Z"/>
  <path class="cls-6" d="M65.12,41.98s-.05.02-.07.02-.05,0-.07-.02c.02,0,.05-.02.07-.02s.05,0,.07.02Z"/>
  <path class="cls-6" d="M65.19,40.78s.18-.09.29-.09h0s-.18.09-.29.09h0Z"/>
  <path class="cls-1" d="M54.88,40.78h.14l.07.02s-.07.07-.11.05c-.05,0-.07-.05-.09-.09h0v.02Z"/>
  <path class="cls-1" d="M65.19,40.78s-.09.09-.14.09c-.02,0-.05-.02-.07-.05,0,0,0-.02.02-.02h.18v-.02Z"/>
  <path class="cls-6" d="M65.89,39.26h0s-.02.02-.05.02h0s.02-.02.05-.02Z"/>
  <path class="cls-6" d="M58.04,46.52s-.02.09-.05.16c-.02-.02-.07-.05-.09-.07,0-.07.05-.11.09-.14l.07.07h-.02v-.02Z"/>
  <path class="cls-6" d="M58.47,47.75v-.09s.02-.05.02-.02c.05,0,.05.05.02.07,0,.02-.05.05-.07.07h-.02.05v-.02Z"/>
  <path class="cls-3" d="M61.56,47.75v.05s0,.05-.05,0v-.05h.05Z"/>
  <path class="cls-3" d="M61.99,46.38h-.05s0-.02.05,0h0Z"/>
  <path class="cls-6" d="M57.97,46.48s.07-.07.07-.05c.07.05.02.07,0,.11,0,0-.05-.05-.07-.07Z"/>
  <path class="cls-5" d="M63.08,46.54s-.07-.09-.05-.11c.05-.07.09-.02.14,0-.02.02-.07.05-.09.09h0v.02Z"/>
  <path class="cls-5" d="M58.29,48.13h.11s0,.14-.11.09h0v-.11h0v.02Z"/>
  <path class="cls-2" d="M69.09,21.02c0,.86-.18,1.45-.57,1.95-.45.64-1.11.93-1.86.98-.48.02-.93-.14-1.32-.43-1.18-.88-1.82-2.72-.59-4.29.84-1.04,2.27-1.18,3.29-.27.68.59,1,1.36,1.02,2.04h0l.02.02Z"/>
  <path class="cls-2" d="M76.44,21.15v-2.52c0-.11.05-.18.18-.18,1.02-.05,1.88.27,2.52,1.09.54.73.73,1.54.52,2.43-.16.66-.57,1.16-1.16,1.47-.57.32-1.2.43-1.86.41-.11,0-.16-.07-.18-.18v-2.52h-.02Z"/>
  <path class="cls-2" d="M71.5,19.61v-.98c0-.16.05-.18.2-.2.32,0,.61,0,.91.09.45.11.73.39.79.86.07.5-.16.95-.57,1.2-.25.14-.52.18-.79.18-.61,0-.54.05-.57-.54v-.64h0l.02.02Z"/>
  <path class="cls-2" d="M40.27,19.65v-1.02c0-.11.07-.18.18-.18.32,0,.64,0,.95.11.41.11.7.34.77.77.07.5-.02.93-.48,1.23-.23.16-.5.23-.77.2-.73,0-.64.09-.66-.64v-.48h0Z"/>
</svg>