<?xml version="1.0" encoding="UTF-8"?>
<svg id="Layer_1" xmlns="http://www.w3.org/2000/svg" xmlns:xlink="http://www.w3.org/1999/xlink" viewBox="0 0 120 60">
  <defs>
    <style>
      .cls-1 {
        fill: none;
      }

      .cls-2 {
        clip-path: url(#clippath-1);
      }

      .cls-3 {
        fill: #ee2f3d;
      }

      .cls-4 {
        clip-path: url(#clippath);
      }
    </style>
    <clipPath id="clippath">
      <rect class="cls-1" y="14" width="120" height="32"/>
    </clipPath>
    <clipPath id="clippath-1">
      <rect class="cls-1" y="14" width="120" height="32"/>
    </clipPath>
  </defs>
  <g id="Vector_Smart_Object">
    <g class="cls-4">
      <g class="cls-2">
        <path class="cls-3" d="M17.28,21.63v17.34h-5.81v-2.16c-1.18,1.7-2.88,2.68-5.32,2.68C2.26,39.5,0,37.14,0,32.79v-11.16h5.81v9.91c0,2.29.9,3.23,2.71,3.23,1.91,0,2.95-1.11,2.95-3.41v-9.73h5.81Z"/>
        <path class="cls-3" d="M38.86,30.29c0,2.02-.35,3.65-.94,5.01-1.22,2.61-3.54,4.17-6.74,4.17-2.26,0-4-.76-5.21-2.4v8.93h-5.81v-24.37h5.67v2.09c1.25-1.77,3.02-2.61,5.35-2.61,3.2,0,5.53,1.56,6.74,4.21.59,1.36.94,2.99.94,4.97M32.68,30.29c0-1.22-.14-2.09-.42-2.71-.52-1.15-1.56-1.74-2.99-1.74-2.19,0-3.37,1.39-3.37,3.96v.94c0,2.57,1.18,3.96,3.37,3.96,1.43,0,2.47-.59,2.99-1.74.28-.63.42-1.46.42-2.68"/>
        <path class="cls-3" d="M68.1,21.63h5.77v1.56c.9-1.46,1.88-2.05,3.27-2.05,2.09,0,3.41,1.36,3.41,3.37s-1.36,3.37-3.34,3.37c-1.22,0-2.26-.63-2.71-1.56-.49.21-.59.49-.59,1.7v10.95h-5.81v-17.34Z"/>
        <path class="cls-3" d="M98.92,29v9.98h-5.81v-2.05c-1.15,1.6-2.92,2.54-5.74,2.54s-4.8-.97-5.67-2.92c-.35-.7-.49-1.49-.49-2.47s.14-1.7.42-2.36c1.25-2.71,4.62-3.34,8.86-3.34h2.61v-.28c0-1.04-.07-1.42-.28-1.88-.35-.76-1.15-1.15-2.4-1.15-1.36,0-2.12.35-2.47,1.11-.14.35-.17.59-.21,1.04h-5.91c.04-.94.21-1.74.52-2.43,1.15-2.54,4.1-3.68,8-3.68,4.21,0,6.67,1.11,7.82,3.61.49,1.15.73,2.57.73,4.28M92.8,33.76c.24-.49.31-.97.31-1.91v-.24h-2.23c-1.67,0-3.02.17-3.41,1.08-.1.21-.17.45-.17.77s.04.56.17.83c.35.76,1.25,1.04,2.29,1.04,1.56,0,2.57-.56,3.02-1.56"/>
        <path class="cls-3" d="M120,14.44v24.54h-5.67v-2.09c-1.25,1.74-2.99,2.57-5.35,2.57-3.2,0-5.53-1.53-6.74-4.17-.59-1.36-.94-2.99-.94-5.01s.35-3.61.94-4.97c1.18-2.64,3.54-4.21,6.74-4.21,2.26,0,3.96.76,5.21,2.4v-9.07h5.8ZM114.27,29.8c0-2.57-1.18-3.96-3.37-3.96-1.43,0-2.47.59-2.99,1.74-.28.63-.42,1.49-.42,2.71s.14,2.09.42,2.75c.52,1.15,1.56,1.74,2.99,1.74,2.19,0,3.37-1.39,3.37-3.96v-1.01Z"/>
        <path class="cls-3" d="M54.98,25.92v4.47h3.74l-.14.58c-.47,1.94-2.79,3.25-4.67,3.25-2.61,0-5.99-1.26-5.99-7.25,0-4.96,2.18-7.33,5.5-7.33,1.82,0,3.22.43,4.07,1.7.35.56.68,1.32.71,1.95h6.64s.16-3.08-2.35-5.77c-.04-.04-.08-.08-.12-.12-2.02-2.19-5.06-3.41-8.82-3.41-7.67,0-12.63,5.11-12.63,13.01,0,9.14,6.28,12.39,11.66,12.39,3.02,0,5.74-.9,7.39-2.68l.08,2.25h5.2v-13.05h-10.28Z"/>
      </g>
    </g>
  </g>
</svg>