<?xml version="1.0" encoding="UTF-8"?>
<svg id="Layer_1" data-name="Layer 1" xmlns="http://www.w3.org/2000/svg" viewBox="0 0 68 68">
  <defs>
    <style>
      .cls-1 {
        fill: #00539a;
      }

      .cls-2 {
        fill: #838381;
      }
    </style>
  </defs>
  <g id="g42">
    <path id="path12" class="cls-2" d="m13.57,6.69c-1.36.17-3.07.68-4.41,1.33-1.58.75-2.73,1.55-3.97,2.74-.66.64-.79.8-.73.87.14.14,2.25,1.19,3.17,1.59,1.72.74,3.45,1.29,4.93,1.59.78.15,2.33.34,2.41.3.03-.02.05-1.93.05-4.26v-4.22h-.49c-.27.01-.71.05-.97.07Z"/>
    <path id="path14" class="cls-2" d="m16.04,10.82c0,2.32.03,4.25.05,4.3.06.09,1.56,0,2.61-.15,2.5-.38,5.01-1.36,7.44-2.9.32-.2.59-.38.6-.39.05-.05-.68-.81-1.27-1.32-1.97-1.7-4.06-2.79-6.49-3.38-.77-.18-2.03-.36-2.58-.36h-.37v4.21Z"/>
    <path id="path16" class="cls-2" d="m3.44,12.7c-.28.36-1.04,1.58-1.33,2.15-.56,1.09-1.07,2.59-1.32,3.83-.15.72-.31,2.31-.25,2.46.03.08.98.09,7.24.08l7.21-.02v-5.03l-.81-.08c-1.35-.14-2.54-.4-4.1-.87-1.55-.48-4.06-1.54-5.57-2.38-.39-.21-.75-.4-.79-.4-.04,0-.16.11-.27.25Z"/>
    <path id="path18" class="cls-2" d="m26.79,12.9c-1.3.87-3.12,1.75-4.77,2.32-1.65.56-2.98.83-4.86.96l-1.09.07v4.97h14.45v-.67c-.07-2.28-1.07-5.2-2.52-7.32-.25-.37-.51-.68-.56-.68s-.35.15-.64.36Z"/>
    <path id="path20" class="cls-2" d="m.51,22.31s.03.37.07.75c.24,2.29,1,4.52,2.22,6.47.45.73.9,1.31,1,1.31.04,0,.79-.36,1.67-.79,2.94-1.47,5.48-2.32,7.87-2.63.57-.07,1.17-.16,1.34-.19l.31-.05.02-2.47v-2.46s-7.24,0-7.24,0c-4.22,0-7.26.03-7.26.06Z"/>
    <path id="path22" class="cls-2" d="m16.04,24.7c0,1.91.02,2.45.09,2.45.04,0,.51.03,1.03.07,3.53.25,6.38,1.22,9.78,3.36.2.12.4.2.45.18.16-.06,1.06-1.48,1.49-2.31.94-1.84,1.49-3.73,1.64-5.64l.05-.55h-14.53v2.45Z"/>
    <path id="path24" class="cls-2" d="m16.08,28.34c-.06.15-.04,8.2.02,8.24.03.02.38,0,.79-.03,3.36-.3,6.61-1.8,9.07-4.17l.68-.66-.18-.16c-.57-.49-3.11-1.8-4.33-2.24-1.86-.66-3.98-1.09-5.47-1.09-.45,0-.56.02-.6.11Z"/>
    <path id="path26" class="cls-2" d="m14.04,28.34c-1.91.25-4.21.89-6.14,1.71-.81.35-2.59,1.21-3.11,1.51l-.3.17.57.56c2.02,2.03,4.68,3.44,7.53,4.01.84.17,2.27.33,2.37.27.03-.02.05-1.89.05-4.16v-4.12h-.39c-.22.01-.48.03-.6.05Z"/>
    <path id="path28" class="cls-1" d="m48.81,40.56l.02,11.73,3.01.02c2.37.01,3.02,0,3.07-.07.03-.05.05-.45.05-.89v-.8l.63.6c.98.94,1.86,1.47,3.01,1.81.53.16.71.18,1.58.18,1.16,0,1.71-.11,2.68-.58,2.2-1.05,3.83-3.31,4.46-6.17.22-1,.22-3.18,0-4.22-.69-3.33-2.75-5.79-5.54-6.6-.84-.25-2.15-.26-3.02-.03-1.19.32-2.12.85-3.15,1.83l-.64.6v-4.42c-.02-2.44-.03-4.48-.03-4.56,0-.13-.06-.13-3.08-.15h-3.07s.01,11.71.01,11.71Zm10.47-1.12c1.55.75,2.54,2.95,2.33,5.17-.25,2.63-1.99,4.53-3.89,4.23-.65-.1-1.09-.35-1.68-.93-.43-.42-.58-.64-.83-1.15-.54-1.09-.73-2.25-.59-3.44.2-1.75,1.04-3.21,2.17-3.81.6-.32.71-.34,1.4-.32.54.01.67.05,1.09.25Z"/>
    <path id="path30" class="cls-1" d="m32.45,31.71c0,1.28-.03,2.29-.07,2.38l-.07.17h-3.26v2.42h1.68s1.68.03,1.68.03v7.75s.02,7.75.02,7.75l3.53.02h3.53s0-7.77,0-7.77v-7.79h1.59c1.38,0,1.59-.01,1.63-.11.05-.13.05-1.96,0-2.15-.04-.15-.05-.15-1.61-.17l-1.57-.02-.02-2.37v-2.36h-7.07v2.21Z"/>
    <path id="path32" class="cls-1" d="m1.83,39.58s-.03,2.93-.02,6.4l.02,6.31,3.51.02h3.51s.04-.34.04-.34c.02-.19.03-3.07.02-6.4l-.02-6.04-3.51-.02c-2.77-.01-3.52,0-3.54.07Z"/>
    <path id="path34" class="cls-1" d="m12.11,45.91v6.41h3.51s3.51-.03,3.51-.03v-12.75l-3.51-.02h-3.51s0,6.4,0,6.4Z"/>
    <path id="path36" class="cls-1" d="m21.67,45.91v6.41h3.51s3.51-.03,3.51-.03l.02-6.4v-6.39s-3.51,0-3.51,0h-3.53v6.41Z"/>
    <path id="path38" class="cls-1" d="m42.13,43.31s-.05.88-.05,1.9v1.86l1.34.03c.73.02,1.7.02,2.14,0l.79-.03v-1.89s-.03-1.89-.03-1.89l-2.08-.02c-1.14,0-2.09,0-2.12.03Z"/>
    <path id="path40" class="cls-2" d="m2.09,55.48s-.09.15-.09.24v.15h5.22v1.21h-1.9c-1.65,0-1.91.01-1.95.1-.02.06-.03.12,0,.13.01.02.29.11.62.2.73.21,1.14.4,1.41.64.28.27.24.46-.14.64-.4.21-.62.19-.9-.04-.34-.29-.52-.36-.78-.31-.26.05-.33.15-.26.4.06.23.26.34.83.46.53.11.9.28,1.61.73.41.26.5.29.63.23.09-.03.16-.09.16-.11s-.34-.23-.75-.47c-.48-.28-.72-.44-.66-.47.05-.03.25-.09.44-.13.56-.13.81-.39.69-.72-.07-.17-.54-.5-.96-.66-.18-.07-.34-.15-.36-.17-.02-.03.48-.06,1.12-.06h1.15l.02.99.02.99.24.11c.13.06.31.13.39.15l.15.04v-3.9h1.56v3.6l.35.15c.2.07.37.14.41.14s.07-.87.07-1.93l.02-1.93,2.33-.02h2.32s0,.66,0,.66v.67h-1.49c-1.48,0-1.84.05-1.84.23,0,.13.79.84.99.89.23.06.37-.08.37-.38v-.25l.47-.03c.26-.02.7-.02.98,0l.52.03v1.78l.22.1c.12.05.3.11.41.14l.18.04v-3.89h2.17v1.68h-.25c-.35,0-.56.07-.56.17,0,.09.68.6,1.08.8.13.07.29.09.39.07.14-.03.16-.09.16-.31v-.27h2.44v1.41l.22.13.22.13h-.31c-.4,0-.81.12-.81.23,0,.09.46.44.58.44.04,0,.22-.08.42-.18.29-.14.39-.16.57-.11.12.03.26.12.31.2.09.12.08.16-.04.32-.24.3-.73.41-1.59.36-.8-.04-1.14-.13-2.12-.56-.51-.22-.77-.26-.77-.11,0,.07.85.47,1.5.71.94.34,2.18.48,2.88.3.32-.08.75-.41.81-.63.07-.25-.2-.57-.64-.76l-.4-.18v-3.86h5.76v.87h-2.14c-1.17,0-2.14.03-2.14.05,0,.03.09.13.19.23.17.16.24.18.64.18.25,0,.45.03.45.05,0,.03-.06.11-.14.18-.2.17-.18.5.05.81.39.53,1.46,1.37,1.75,1.37.08,0,.18-.05.23-.1.05-.06.05-.1.01-.1s-.31-.15-.59-.35c-.54-.36-.92-.81-.92-1.11,0-.22.38-.61.66-.69.14-.03.62-.07,1.09-.07h.83v2.28l.37.13c.21.08.39.14.41.14.02,0,.03-.88.03-1.95v-1.95h2.17v1.68h-.25c-.35,0-.56.07-.56.17,0,.11.88.73,1.19.83.29.1.42.01.45-.29l.02-.21h2.44l-.02.4c-.01.21,0,.55.02.75.04.34.05.36.32.43.15.05.31.1.37.12.07.03.09-.29.11-1.9l.02-1.94,1.07-.02,1.06-.02v1.68h-.29c-.16,0-.35.05-.43.1-.13.09-.12.1.04.24.26.21.86.59,1.04.66.09.03.22.04.31.02.12-.03.14-.09.14-.3v-.26h1.21c1.38,0,1.3-.03,1.24.59-.01.19,0,.47.01.63.04.28.06.3.33.38.16.05.33.1.37.12.06.03.08-.38.08-1.91v-1.95h1.02v-.4h-17.99c-9.9,0-18.91-.02-20.03-.04-1.63-.03-2.04-.03-2.11.05Zm19.24,1.24v.84h-2.44v-1.68h2.44v.84Zm12.87.01l.02.83h-2.52v-1.68h1.24s1.23.03,1.23.03l.02.82Zm6.19-.83s.02.4,0,.84l-.02.81h-2.43v-.79c0-.44.02-.82.05-.84.05-.05,2.35-.07,2.4-.02Z"/>
  </g>
</svg>